<?xml version="1.0" encoding="UTF-8" standalone="no"?>
<!-- Created with Inkscape (http://www.inkscape.org/) -->

<svg
   xmlns:dc="http://purl.org/dc/elements/1.1/"
   xmlns:cc="http://creativecommons.org/ns#"
   xmlns:rdf="http://www.w3.org/1999/02/22-rdf-syntax-ns#"
   xmlns:svg="http://www.w3.org/2000/svg"
   xmlns="http://www.w3.org/2000/svg"
   xmlns:xlink="http://www.w3.org/1999/xlink"
   xmlns:sodipodi="http://sodipodi.sourceforge.net/DTD/sodipodi-0.dtd"
   xmlns:inkscape="http://www.inkscape.org/namespaces/inkscape"
   width="1400"
   height="400"
   id="svg2"
   version="1.1"
   inkscape:version="0.48.4 r9939"
   sodipodi:docname="teas.svg">
  <defs
     id="defs4">
    <linearGradient
       inkscape:collect="always"
       xlink:href="#linearGradient4477"
       id="linearGradient3028"
       gradientUnits="userSpaceOnUse"
       gradientTransform="matrix(0.64933,0,0,0.64933,-66.1434,-19.1308)"
       x1="101.36"
       y1="295.88"
       x2="590.29999"
       y2="295.88" />
    <linearGradient
       id="linearGradient4477"
       x1="101.36"
       gradientUnits="userSpaceOnUse"
       y1="295.88"
       gradientTransform="matrix(0.64933,0,0,0.64933,6.4406,-9.7506)"
       x2="590.29999"
       y2="295.88">
      <stop
         id="stop2525"
         stop-color="#c4202a"
         offset="0" />
      <stop
         id="stop2527"
         stop-color="#d02531"
         offset="1" />
    </linearGradient>
    <linearGradient
       y2="295.88"
       x2="590.29999"
       y1="295.88"
       x1="101.36"
       gradientTransform="matrix(0.26095415,0,0,0.26095415,409.75316,729.02806)"
       gradientUnits="userSpaceOnUse"
       id="linearGradient3060"
       xlink:href="#linearGradient4477"
       inkscape:collect="always" />
    <linearGradient
       y2="295.88"
       x2="590.29999"
       y1="295.88"
       x1="101.36"
       gradientTransform="matrix(0.26095415,0,0,0.26095415,409.75316,729.02806)"
       gradientUnits="userSpaceOnUse"
       id="linearGradient3060-3"
       xlink:href="#linearGradient4477-0"
       inkscape:collect="always" />
    <linearGradient
       id="linearGradient4477-0"
       x1="101.36"
       gradientUnits="userSpaceOnUse"
       y1="295.88"
       gradientTransform="matrix(0.64933,0,0,0.64933,6.4406,-9.7506)"
       x2="590.29999"
       y2="295.88">
      <stop
         id="stop2525-1"
         stop-color="#c4202a"
         offset="0" />
      <stop
         id="stop2527-3"
         stop-color="#d02531"
         offset="1" />
    </linearGradient>
    <linearGradient
       y2="295.88"
       x2="590.29999"
       y1="295.88"
       x1="101.36"
       gradientTransform="matrix(0.26095415,0,0,0.26095415,609.75316,729.02806)"
       gradientUnits="userSpaceOnUse"
       id="linearGradient3890"
       xlink:href="#linearGradient4477-0"
       inkscape:collect="always" />
    <linearGradient
       inkscape:collect="always"
       xlink:href="#linearGradient3693"
       id="linearGradient3239"
       gradientUnits="userSpaceOnUse"
       gradientTransform="matrix(0.3706206,0,-0.69510463,0.71687273,346.86408,-189.01924)"
       x1="251.96001"
       y1="562.47998"
       x2="277.76001"
       y2="590.94" />
    <linearGradient
       id="linearGradient3693">
      <stop
         id="stop3695"
         stop-color="#969aa4"
         offset="0" />
      <stop
         id="stop3697"
         stop-color="#cdcdcf"
         offset="1" />
    </linearGradient>
    <linearGradient
       y2="590.94"
       x2="277.76001"
       y1="562.47998"
       x1="251.96001"
       gradientTransform="matrix(0.0804804,0,-0.15094225,0.198202,493.00285,899.71294)"
       gradientUnits="userSpaceOnUse"
       id="linearGradient3257"
       xlink:href="#linearGradient3693"
       inkscape:collect="always" />
    <linearGradient
       inkscape:collect="always"
       xlink:href="#linearGradient3693"
       id="linearGradient3941"
       gradientUnits="userSpaceOnUse"
       gradientTransform="matrix(0.08422797,0,-0.15797087,0.24067101,494.33826,885.96738)"
       x1="251.96001"
       y1="562.47998"
       x2="277.76001"
       y2="590.94" />
    <linearGradient
       inkscape:collect="always"
       xlink:href="#linearGradient3693-4"
       id="linearGradient3941-6"
       gradientUnits="userSpaceOnUse"
       gradientTransform="matrix(0.08422797,0,-0.15797087,0.24067101,494.33826,885.96738)"
       x1="251.96001"
       y1="562.47998"
       x2="277.76001"
       y2="590.94" />
    <linearGradient
       id="linearGradient3693-4">
      <stop
         id="stop3695-2"
         stop-color="#969aa4"
         offset="0" />
      <stop
         id="stop3697-1"
         stop-color="#cdcdcf"
         offset="1" />
    </linearGradient>
    <linearGradient
       y2="590.94"
       x2="277.76001"
       y1="562.47998"
       x1="251.96001"
       gradientTransform="matrix(0.08422797,0,-0.15797087,0.24067101,694.33826,885.9674)"
       gradientUnits="userSpaceOnUse"
       id="linearGradient3958"
       xlink:href="#linearGradient3693-4"
       inkscape:collect="always" />
    <radialGradient
       inkscape:collect="always"
       xlink:href="#radialGradient4497"
       id="radialGradient3212"
       gradientUnits="userSpaceOnUse"
       gradientTransform="matrix(1.8188e-8,-1.1614,0.7424,0,-158.89,656.74)"
       cx="376"
       cy="536.45001"
       r="37.778" />
    <radialGradient
       id="radialGradient4497"
       gradientUnits="userSpaceOnUse"
       cy="536.45001"
       cx="376"
       gradientTransform="matrix(1.8188e-8,-1.1614,0.7424,0,-158.89,1339.1)"
       r="37.778">
      <stop
         id="stop4493"
         stop-color="#b88100"
         offset="0" />
      <stop
         id="stop4495"
         stop-color="#b88100"
         offset="1" />
    </radialGradient>
    <radialGradient
       r="37.778"
       cy="536.45001"
       cx="376"
       gradientTransform="matrix(0,-0.44384366,0.28371752,0,-57.368047,976.28617)"
       gradientUnits="userSpaceOnUse"
       id="radialGradient3249"
       xlink:href="#radialGradient4497"
       inkscape:collect="always" />
  </defs>
  <sodipodi:namedview
     id="base"
     pagecolor="#ffffff"
     bordercolor="#666666"
     borderopacity="1.0"
     inkscape:pageopacity="0.0"
     inkscape:pageshadow="2"
     inkscape:zoom="0.70710678"
     inkscape:cx="973.72599"
     inkscape:cy="350.65809"
     inkscape:document-units="px"
     inkscape:current-layer="layer1"
     showgrid="false"
     inkscape:showpageshadow="false"
     fit-margin-top="0"
     fit-margin-left="0"
     fit-margin-right="0"
     fit-margin-bottom="0"
     showguides="true"
     inkscape:guide-bbox="true"
     inkscape:window-width="1598"
     inkscape:window-height="879"
     inkscape:window-x="0"
     inkscape:window-y="19"
     inkscape:window-maximized="0" />
  <metadata
     id="metadata7">
    <rdf:RDF>
      <cc:Work
         rdf:about="">
        <dc:format>image/svg+xml</dc:format>
        <dc:type
           rdf:resource="http://purl.org/dc/dcmitype/StillImage" />
        <dc:title></dc:title>
      </cc:Work>
    </rdf:RDF>
  </metadata>
  <g
     inkscape:label="Layer 1"
     inkscape:groupmode="layer"
     id="layer1"
     transform="translate(-5.0870321e-7,-706.23915)">
    <path
       style="color:#000000;fill:#d5d5d5;fill-opacity:1;fill-rule:nonzero;stroke:#5b5b5b;stroke-width:4;stroke-miterlimit:4;stroke-opacity:1;stroke-dasharray:none;marker:none;visibility:visible;display:inline;overflow:visible;enable-background:accumulate"
       d="m 100,202 c -54.123905,0 -98,43.8761 -98,98 0,54.1239 43.876095,98 98,98 54.1239,0 98,-43.8761 98,-98 0,-54.1239 -43.8761,-98 -98,-98 z m -70.96875,46.375 c 0.51635,0.004 1.32794,0.096 2.375,0.25 0.69807,0.10238 1.50433,0.24259 2.375,0.40625 0.43534,0.082 0.87475,0.1533 1.34375,0.25 0.93799,0.19276 1.93404,0.43956 2.96875,0.6875 1.03143,0.24726 2.11035,0.5145 3.1875,0.8125 2.69877,0.74698 5.47234,1.63531 7.90625,2.65625 0.49081,0.20581 0.97664,0.44092 1.4375,0.65625 l 7.65625,3.5625 0.40625,-0.0312 0.03125,0.0312 L 63.5625,257.5 c 6.50922,-0.19425 9.19888,0.14174 11.9375,1.71875 -0.13897,-0.39168 -0.34611,-0.83588 -0.625,-1.375 0.25441,0.48244 0.58714,1.00928 0.9375,1.5625 0.18996,0.1154 0.3694,0.24736 0.5625,0.375 2.7939,1.84595 2.83983,1.87564 10.65625,13.90625 l 5.03125,7.78125 3.9375,0 c 0.27428,0 0.570613,-0.0181 0.84375,-0.0312 0.19144,-0.009 0.37091,-0.015 0.5625,-0.0312 0.06129,-0.005 0.1262,0.006 0.1875,0 0.31842,-0.0306 0.64731,-0.10565 0.96875,-0.15625 0.0111,-0.002 0.02015,0.002 0.03125,0 0.65796,-0.10501 1.312219,-0.23974 2,-0.4375 0.008,-0.002 0.0233,0.002 0.0312,0 0.29568,-0.0855 0.60205,-0.17715 0.90625,-0.28125 0.0519,-0.0177 0.10405,-0.0442 0.15625,-0.0625 0.34141,-0.11999 0.67648,-0.26166 1.03125,-0.40625 0.019,-0.008 0.0436,0.008 0.0625,0 0.32334,-0.13275 0.66355,-0.28335 1,-0.4375 0.0516,-0.0238 0.10435,-0.0695 0.15625,-0.0937 0.35586,-0.16565 0.72099,-0.34077 1.09375,-0.53125 0.037,-0.019 0.0877,-0.0433 0.125,-0.0625 0.38741,-0.19972 0.77942,-0.3974 1.1875,-0.625 0.0264,-0.0148 0.0673,-0.0477 0.0937,-0.0625 0.3327,-0.18646 0.68336,-0.38813 1.03125,-0.59375 0.10286,-0.0609 0.20824,-0.1249 0.3125,-0.1875 0.37466,-0.22484 0.76254,-0.47132 1.15625,-0.71875 0.088,-0.0553 0.19225,-0.0997 0.28125,-0.15625 0.41567,-0.26384 0.84275,-0.55427 1.28125,-0.84375 0.0773,-0.0511 0.1719,-0.10435 0.25,-0.15625 0.46395,-0.30831 0.94619,-0.63116 1.4375,-0.96875 0.0612,-0.0422 0.1258,-0.0824 0.1875,-0.125 0.51613,-0.3561 1.04538,-0.7358 1.59375,-1.125 0.0448,-0.0318 0.11125,-0.0929 0.15625,-0.125 0.5763,-0.40992 1.16698,-0.83377 1.78125,-1.28125 0.0232,-0.017 0.0393,-0.0143 0.0625,-0.0312 0.22635,-0.16504 0.45576,-0.36103 0.6875,-0.53125 0.42553,-0.31268 0.83695,-0.60699 1.28125,-0.9375 0.58474,-0.43492 1.15589,-0.83872 1.71875,-1.25 0.43636,-0.31897 0.89065,-0.63356 1.3125,-0.9375 0.85111,-0.61298 1.65234,-1.20257 2.4375,-1.75 0.11421,-0.0797 0.1998,-0.14045 0.3125,-0.21875 0.451,-0.31299 0.85549,-0.586 1.28125,-0.875 0.34118,-0.23179 0.6761,-0.47179 1,-0.6875 0.23946,-0.1594 0.45792,-0.28716 0.6875,-0.4375 0.95891,-0.62824 1.85658,-1.19734 2.625,-1.65625 0.12132,-0.0724 0.22756,-0.15075 0.34375,-0.21875 0.18711,-0.10962 0.3578,-0.2146 0.53125,-0.3125 0.0241,-0.0135 0.0387,-0.0179 0.0625,-0.0312 0.24347,-0.13665 0.47271,-0.26276 0.6875,-0.375 0.063,-0.033 0.127,-0.063 0.1875,-0.0937 0.33608,-0.17165 0.61981,-0.30225 0.875,-0.40625 0.0686,-0.0281 0.1249,-0.0394 0.1875,-0.0625 0.14329,-0.0527 0.26459,-0.0993 0.375,-0.125 0.11748,-0.0283 0.2327,-0.0333 0.3125,-0.0312 0.0408,0.002 0.0949,-0.0106 0.125,0 0.0308,0.008 0.0422,0.0432 0.0625,0.0625 0.008,0.008 0.0292,0.0133 0.0312,0.0312 0.006,0.0543 -0.0462,0.14886 -0.0937,0.28125 -0.0314,0.0864 -0.074,0.19873 -0.125,0.3125 -0.0518,0.11531 -0.1177,0.23603 -0.1875,0.375 -0.002,0.003 0.002,0.0283 0,0.0312 -0.28618,0.56863 -0.71656,1.30396 -1.21875,2.09375 -0.50448,0.7934 -1.06019,1.75167 -1.53125,2.65625 -0.4663,0.90198 -0.8586,1.76468 -1.0625,2.34375 -0.30846,0.87022 -1.01322,2.42687 -1.78125,3.90625 -0.002,0.004 -0.0293,-0.005 -0.0312,0 -0.25363,0.4882 -0.5012,0.96632 -0.75,1.40625 -0.002,0.004 0.002,0.0263 0,0.0312 -0.90563,1.60094 -1.45192,3.37882 -1.59375,3.84375 0.32569,0.088 0.96472,0.0482 1.71875,-0.0937 1.07582,-0.20013 5.62027,-0.4905 10.09375,-0.65625 4.47144,-0.16576 8.30637,-0.39178 8.53125,-0.53125 0.22692,-0.13948 1.18088,-0.39473 2.125,-0.5625 0.94414,-0.16779 5.16693,-1.25 9.375,-2.40625 9.33393,-2.56516 15.03125,-3.79376 15.03125,-3.25 0,0.22438 -2.24866,2.97067 -5,6.09375 -0.36417,0.4128 -0.69064,0.79202 -1.03125,1.1875 -0.008,0.002 -0.0238,0.0299 -0.0312,0.0312 -0.67297,0.76422 -1.25676,1.44884 -1.75,2.03125 -1.03433,1.25429 -1.83125,2.30948 -2.09375,2.75 -0.0529,0.0996 -0.125,0.17435 -0.125,0.21875 0,0.19203 -0.40474,0.57835 -1.03125,1.03125 -0.2489,0.18028 -0.54082,0.37707 -0.84375,0.5625 -0.15288,0.0933 -0.30692,0.19055 -0.46875,0.28125 -0.21486,0.12045 -0.41431,0.23439 -0.59375,0.34375 -0.0134,0.009 -0.018,0.0233 -0.0312,0.0312 -0.51387,0.31638 -0.89484,0.60696 -1.15625,0.90625 -0.23159,0.25976 -0.38235,0.54292 -0.46875,0.84375 -0.0647,0.24673 -0.0937,0.50707 -0.0937,0.8125 0,0.12811 0.005,0.26028 0,0.375 -0.005,0.11486 -0.0206,0.21019 -0.0312,0.3125 -0.0106,0.0978 -0.0447,0.19405 -0.0625,0.28125 -7.4e-4,0.003 7.2e-4,0.0312 0,0.0312 -0.0181,0.0866 -0.0357,0.1733 -0.0625,0.25 -0.0566,0.16298 -0.14431,0.2815 -0.25,0.40625 -0.0515,0.0615 -0.0906,0.1339 -0.15625,0.1875 -0.59212,0.48397 -1.78363,0.66029 -4.1875,0.875 -0.77586,0.0744 -1.39637,0.14375 -1.875,0.21875 -0.47925,0.0815 -0.8478,0.1942 -1.09375,0.3125 -0.14975,0.0736 -0.26135,0.1559 -0.34375,0.25 -0.0214,0.0258 -0.0452,0.0661 -0.0625,0.0937 -0.007,0.0122 0.007,0.019 0,0.0312 -0.0108,0.0199 -0.0535,0.0106 -0.0625,0.0312 -0.0553,0.12283 -0.0625,0.27138 -0.0625,0.4375 0,0.0813 -0.0157,0.1699 -0.0312,0.25 -0.0308,0.16022 -0.0712,0.31718 -0.15625,0.46875 -0.17031,0.30267 -0.45439,0.58079 -0.78125,0.8125 -0.16315,0.11639 -0.34409,0.2225 -0.53125,0.3125 -0.0937,0.0441 -0.18335,0.088 -0.28125,0.125 -0.58618,0.223 -1.23636,0.30825 -1.8125,0.15625 -0.13097,-0.034 -0.2401,-0.0515 -0.34375,-0.0625 -0.055,-0.001 -0.10815,-0.0321 -0.15625,-0.0312 -0.22092,0.008 -0.37475,0.0974 -0.46875,0.28125 -0.0228,0.0451 -0.0461,0.0983 -0.0625,0.15625 -0.0529,0.182 -0.0625,0.4211 -0.0625,0.75 0,0.1053 -0.0192,0.2135 -0.0312,0.3125 -0.0122,0.0954 -0.0395,0.19125 -0.0625,0.28125 -0.0234,0.0896 -0.0594,0.19725 -0.0937,0.28125 -0.46103,1.1386 -1.91641,1.75 -4.21875,1.75 -1.11842,0 -1.65902,0.1027 -1.90625,0.4375 l -0.0312,-0.0312 c -0.0637,0.0822 -0.098,0.2012 -0.125,0.3125 -0.0235,0.0998 -0.0312,0.1892 -0.0312,0.3125 0,0.1095 0.009,0.2125 0,0.3125 -0.009,0.0961 -0.0454,0.19325 -0.0625,0.28125 -7.4e-4,0.001 7.4e-4,0.0312 0,0.0312 -0.0175,0.0875 -0.0365,0.17 -0.0625,0.25 -0.0537,0.1614 -0.12775,0.3088 -0.21875,0.4375 -0.0451,0.0632 -0.10175,0.1315 -0.15625,0.1875 -0.1143,0.1163 -0.24838,0.19925 -0.40625,0.28125 -0.62102,0.3288 -1.58545,0.4056 -2.96875,0.25 -1.10076,-0.123 -1.72291,-0.1625 -2.09375,-0.0625 l 0,-0.0312 c -0.17794,0.0488 -0.3012,0.14685 -0.375,0.28125 0.004,0.001 0.0263,0 0.0312,0 -0.0927,0.1586 -0.14385,0.39665 -0.15625,0.71875 -0.003,0.1101 0,0.21165 0,0.34375 -3e-4,0.1526 -0.0212,0.28125 -0.0312,0.40625 -2.6e-4,0.001 2.6e-4,0.0312 0,0.0312 -0.01,0.1233 -0.01,0.2135 -0.0312,0.3125 -7.3e-4,10e-4 7.3e-4,0.0312 0,0.0312 -0.022,0.0971 -0.0577,0.175 -0.0937,0.25 -0.0175,0.0351 -0.0414,0.094 -0.0625,0.125 -0.0216,0.032 -0.0369,0.0355 -0.0625,0.0625 -0.002,10e-4 0.002,0.0312 0,0.0312 -0.0259,0.027 -0.0636,0.0405 -0.0937,0.0625 -0.22747,0.1732 -0.58705,0.21875 -1.125,0.21875 -0.0988,0 -0.19005,0.0213 -0.28125,0.0312 -0.0891,0.007 -0.1683,0.0152 -0.25,0.0312 -0.0868,0.017 -0.1705,0.0375 -0.25,0.0625 -0.3689,0.1206 -0.63443,0.353 -0.875,0.6875 l -0.0312,-0.0312 c -0.0411,0.0584 -0.0873,0.15375 -0.125,0.21875 -0.0413,0.0735 -0.0852,0.13575 -0.125,0.21875 -0.0384,0.0822 -0.0589,0.158 -0.0937,0.25 -0.0576,0.1503 -0.127,0.28435 -0.1875,0.40625 -0.002,0.001 0.002,0.0312 0,0.0312 -0.0605,0.121 -0.1182,0.2165 -0.1875,0.3125 -0.0337,0.046 -0.0881,0.11625 -0.125,0.15625 -0.19565,0.2177 -0.43937,0.3475 -0.78125,0.4375 -0.40626,0.1066 -0.95215,0.125 -1.71875,0.125 -0.34285,0 -0.61175,0.0133 -0.875,0.0312 -0.0449,10e-4 -0.0823,0 -0.125,0 -0.0828,0.007 -0.1749,0.0213 -0.25,0.0312 -0.11322,0.015 -0.2154,0.0425 -0.3125,0.0625 -0.29105,0.0623 -0.51832,0.15485 -0.6875,0.28125 -0.14686,0.10895 -0.26225,0.24728 -0.34375,0.40625 -0.005,0.011 0.005,0.0202 0,0.0312 -0.0418,0.0875 -0.0649,0.17225 -0.0937,0.28125 -0.0302,0.1137 -0.0873,0.2215 -0.125,0.3125 -0.0375,0.0911 -0.0762,0.18 -0.125,0.25 -0.0244,0.035 -0.0344,0.0638 -0.0625,0.0937 -0.1957,0.2115 -0.50478,0.29325 -0.96875,0.28125 -0.13143,-0.003 -0.27615,-0.0133 -0.4375,-0.0312 -0.16115,-0.019 -0.3365,-0.0315 -0.53125,-0.0625 -0.14745,-0.025 -0.29584,-0.0505 -0.4375,-0.0625 -0.12547,-0.011 -0.22562,-0.0312 -0.34375,-0.0312 -0.0159,-3e-4 -0.0469,2e-4 -0.0625,0 -0.26341,-0.001 -0.50389,0.0245 -0.71875,0.0625 l 0,-0.0312 c -0.14463,0.0251 -0.26368,0.083 -0.375,0.125 -0.0119,10e-4 -0.0195,-0.01 -0.0312,0 -0.0964,0.0386 -0.1863,0.10325 -0.25,0.15625 -0.0206,0.019 -0.0427,0.0133 -0.0625,0.0312 -0.0167,0.02 -0.0187,0.0425 -0.0312,0.0625 -0.11042,0.18 -0.48198,0.35095 -0.96875,0.46875 -0.24317,0.06 -0.51955,0.12225 -0.8125,0.15625 -0.14317,0.016 -0.31905,0.0213 -0.46875,0.0312 -0.15343,0.009 -0.31203,0.0312 -0.46875,0.0312 -0.25313,0 -0.45022,-0.011 -0.65625,0 -1.16495,0.0669 -1.6757,0.35635 -1.9375,1.03125 0.0147,0.013 0.0483,0.0202 0.0625,0.0312 -0.12805,0.3984 -0.38482,0.7265 -0.71875,0.9375 -0.30809,0.2167 -0.70188,0.3125 -1.15625,0.3125 -0.89478,0 -1.53349,0.66345 -1.9375,2.21875 -0.1552,3.534 -0.85611,7.2556 -0.15625,10.625 0.37316,2.6865 0.12905,5.455 0.0937,8.1875 0.0106,0.1726 0.0203,0.3248 0.0312,0.5 0.0877,1.4119 0.14725,2.69355 0.21875,3.96875 0.11993,0.742 0.29313,1.4641 0.53125,2.1875 0.40993,1.7987 0.18947,3.4833 -0.1875,5.125 0.29235,8.088 0.0998,12.98295 -0.625,17.71875 -0.94818,6.1916 -1.2349,6.8444 -2.46875,5.4375 -0.63011,-0.7176 -1.04741,-2.73345 -1.25,-6.34375 -0.19046,-3.3656 -0.76106,-6.5687 -1.59375,-8.8125 -0.80231,-2.1629 -1.46838,-5.78795 -1.75,-9.40625 -0.52676,-6.8 -1.892073,-10.03535 -6.03125,-14.59375 -1.21967,-1.3442 -1.86124,-2.0457 -2.40625,-2.3125 l -0.5,-0.5625 c -0.22133,-0.1801 -0.44168,-0.3296 -0.65625,-0.5 0.18117,0.4839 0.24382,0.9805 0.0625,1.0625 -0.37279,0.1699 -1.19947,0.593 -1.84375,0.625 -0.6463,0.0343 -1.08731,-0.7708 -1.375,-1.3125 -0.56502,-1.0595 -0.4654,-2.3834 -0.4375,-2.6875 0,0 -0.09277,-0.0681 -0.5,-0.65625 -0.3809,-1.5727 -1.69793,-3.73805 -4.71875,-7.90625 -7.68068,-10.5982 -12.09192,-19.12879 -14.53125,-28.09375 -0.70304,-2.58339 -2.15307,-6.17172 -3.21875,-7.96875 -2.06655,-3.47682 -3.27622,-6.51253 -4.71875,-11.75 -0.42196,-1.53456 -0.92615,-2.85119 -1.6875,-4.09375 -0.11044,-0.17988 -0.25328,-0.35505 -0.375,-0.53125 -0.11573,-0.16782 -0.24819,-0.33493 -0.375,-0.5 -0.0084,-0.0109 0.008,-0.0204 0,-0.0312 -0.28592,-0.36958 -0.61943,-0.76482 -0.96875,-1.125 -0.14842,-0.15241 -0.30758,-0.28604 -0.46875,-0.4375 -0.32865,-0.30984 -0.67581,-0.6287 -1.0625,-0.9375 -0.03701,-0.0294 -0.0874,-0.0643 -0.125,-0.0937 -0.38472,-0.30246 -0.80263,-0.60084 -1.25,-0.90625 -0.05382,-0.0366 -0.10155,-0.0571 -0.15625,-0.0937 -0.13987,-0.094 -0.29126,-0.218 -0.4375,-0.3125 -0.11633,-0.0749 -0.25454,-0.14345 -0.375,-0.21875 -0.25475,-0.15962 -0.50741,-0.30698 -0.78125,-0.46875 -0.0227,-0.0134 -0.0397,-0.0491 -0.0625,-0.0625 -0.38228,-0.22471 -0.79762,-0.45745 -1.21875,-0.6875 -0.23352,-0.12731 -0.50405,-0.24571 -0.75,-0.375 -0.22042,-0.11593 -0.45678,-0.25732 -0.6875,-0.375 -0.4982,-0.25374 -1.01446,-0.48683 -1.5625,-0.75 -0.55456,-0.26627 -1.12428,-0.53484 -1.6875,-0.78125 -3.39463,-1.48431 -6.89604,-2.63281 -9.875,-3.46875 -4.47179,-1.25433 -7.77825,-1.82026 -7.78125,-1.96875 -8e-5,-0.003 -3.7e-4,-0.0283 0,-0.0312 -3e-4,-0.0113 0.02525,0.0101 0.03125,0 0.01838,-0.0281 0.055,-0.0773 0.125,-0.0937 0.05143,-0.0106 0.112,0.005 0.1875,0 0.07558,-0.005 0.18285,-0.032 0.28125,-0.0312 z m 60.78125,75.84375 -0.21875,0.0625 c 0.02229,0.4406 -0.0095,0.8643 -0.34375,1.125 0.389,0.0222 0.56245,0.3481 0.78125,0.625 -0.09521,-0.1698 0.07834,-0.3303 0.34375,-0.5 l -0.65625,-0.71875 c 0,0 0.12562,-0.2439 0.375,-0.375 -0.08492,-0.0639 -0.19915,-0.15775 -0.28125,-0.21875 z"
       transform="translate(5.0870321e-7,706.23915)"
       id="path2985"
       inkscape:export-filename="../flavored_white.png"
       inkscape:export-xdpi="90"
       inkscape:export-ydpi="90"
       inkscape:connector-curvature="0" />
    <path
       style="color:#000000;fill:#a6a6a6;fill-opacity:1;fill-rule:nonzero;stroke:#5b5b5b;stroke-width:4;stroke-miterlimit:4;stroke-opacity:1;stroke-dasharray:none;marker:none;visibility:visible;display:inline;overflow:visible;enable-background:accumulate"
       d="m 300,202 c -54.1239,0 -98,43.8761 -98,98 0,54.1239 43.8761,98 98,98 54.1239,0 98,-43.8761 98,-98 0,-54.1239 -43.8761,-98 -98,-98 z m -70.96875,46.375 c 0.51635,0.004 1.32794,0.096 2.375,0.25 0.69807,0.10238 1.50433,0.24259 2.375,0.40625 0.43534,0.082 0.87475,0.1533 1.34375,0.25 0.93799,0.19276 1.93404,0.43956 2.96875,0.6875 1.03143,0.24726 2.11035,0.5145 3.1875,0.8125 2.69877,0.74698 5.47234,1.63531 7.90625,2.65625 0.49081,0.20581 0.97664,0.44092 1.4375,0.65625 l 7.65625,3.5625 0.40625,-0.0312 0.0312,0.0312 4.84375,-0.15625 c 6.50922,-0.19425 9.19888,0.14174 11.9375,1.71875 -0.13897,-0.39168 -0.34611,-0.83588 -0.625,-1.375 0.25441,0.48244 0.58714,1.00928 0.9375,1.5625 0.18996,0.1154 0.3694,0.24736 0.5625,0.375 2.7939,1.84595 2.83983,1.87564 10.65625,13.90625 l 5.03125,7.78125 3.9375,0 c 0.27428,0 0.57061,-0.0181 0.84375,-0.0312 0.19144,-0.009 0.37091,-0.015 0.5625,-0.0312 0.0613,-0.005 0.1262,0.006 0.1875,0 0.31842,-0.0306 0.64731,-0.10565 0.96875,-0.15625 0.0111,-0.002 0.0202,0.002 0.0312,0 0.65796,-0.10501 1.31222,-0.23974 2,-0.4375 0.008,-0.002 0.0233,0.002 0.0312,0 0.29568,-0.0855 0.60205,-0.17715 0.90625,-0.28125 0.0519,-0.0177 0.10405,-0.0442 0.15625,-0.0625 0.34141,-0.11999 0.67648,-0.26166 1.03125,-0.40625 0.019,-0.008 0.0436,0.008 0.0625,0 0.32334,-0.13275 0.66355,-0.28335 1,-0.4375 0.0516,-0.0238 0.10435,-0.0695 0.15625,-0.0937 0.35586,-0.16565 0.72099,-0.34077 1.09375,-0.53125 0.037,-0.019 0.0877,-0.0433 0.125,-0.0625 0.38741,-0.19972 0.77942,-0.3974 1.1875,-0.625 0.0264,-0.0148 0.0673,-0.0477 0.0937,-0.0625 0.3327,-0.18646 0.68336,-0.38813 1.03125,-0.59375 0.10286,-0.0609 0.20824,-0.1249 0.3125,-0.1875 0.37466,-0.22484 0.76254,-0.47132 1.15625,-0.71875 0.088,-0.0553 0.19225,-0.0997 0.28125,-0.15625 0.41567,-0.26384 0.84275,-0.55427 1.28125,-0.84375 0.0773,-0.0511 0.1719,-0.10435 0.25,-0.15625 0.46395,-0.30831 0.94619,-0.63116 1.4375,-0.96875 0.0612,-0.0422 0.1258,-0.0824 0.1875,-0.125 0.51613,-0.3561 1.04538,-0.7358 1.59375,-1.125 0.0448,-0.0318 0.11125,-0.0929 0.15625,-0.125 0.5763,-0.40992 1.16698,-0.83377 1.78125,-1.28125 0.0232,-0.017 0.0393,-0.0143 0.0625,-0.0312 0.22635,-0.16504 0.45576,-0.36103 0.6875,-0.53125 0.42553,-0.31268 0.83695,-0.60699 1.28125,-0.9375 0.58474,-0.43492 1.15589,-0.83872 1.71875,-1.25 0.43636,-0.31897 0.89065,-0.63356 1.3125,-0.9375 0.85111,-0.61298 1.65234,-1.20257 2.4375,-1.75 0.11421,-0.0797 0.1998,-0.14045 0.3125,-0.21875 0.451,-0.31299 0.85549,-0.586 1.28125,-0.875 0.34118,-0.23179 0.6761,-0.47179 1,-0.6875 0.23946,-0.1594 0.45792,-0.28716 0.6875,-0.4375 0.95891,-0.62824 1.85658,-1.19734 2.625,-1.65625 0.12132,-0.0724 0.22756,-0.15075 0.34375,-0.21875 0.18711,-0.10962 0.3578,-0.2146 0.53125,-0.3125 0.0241,-0.0135 0.0387,-0.0179 0.0625,-0.0312 0.24347,-0.13665 0.47271,-0.26276 0.6875,-0.375 0.063,-0.033 0.127,-0.063 0.1875,-0.0937 0.33608,-0.17165 0.61981,-0.30225 0.875,-0.40625 0.0686,-0.0281 0.1249,-0.0394 0.1875,-0.0625 0.14329,-0.0527 0.26459,-0.0993 0.375,-0.125 0.11748,-0.0283 0.2327,-0.0333 0.3125,-0.0312 0.0408,0.002 0.0949,-0.0106 0.125,0 0.0308,0.008 0.0422,0.0432 0.0625,0.0625 0.008,0.008 0.0292,0.0133 0.0312,0.0312 0.006,0.0543 -0.0462,0.14886 -0.0937,0.28125 -0.0314,0.0864 -0.074,0.19873 -0.125,0.3125 -0.0518,0.11531 -0.1177,0.23603 -0.1875,0.375 -0.002,0.003 0.002,0.0283 0,0.0312 -0.28618,0.56863 -0.71656,1.30396 -1.21875,2.09375 -0.50448,0.7934 -1.06019,1.75167 -1.53125,2.65625 -0.4663,0.90198 -0.8586,1.76468 -1.0625,2.34375 -0.30846,0.87022 -1.01322,2.42687 -1.78125,3.90625 -0.002,0.004 -0.0292,-0.005 -0.0312,0 -0.25363,0.4882 -0.5012,0.96632 -0.75,1.40625 -0.002,0.004 0.002,0.0263 0,0.0312 -0.90563,1.60094 -1.45192,3.37882 -1.59375,3.84375 0.32569,0.088 0.96472,0.0482 1.71875,-0.0937 1.07582,-0.20013 5.62027,-0.4905 10.09375,-0.65625 4.47144,-0.16576 8.30637,-0.39178 8.53125,-0.53125 0.22692,-0.13948 1.18088,-0.39473 2.125,-0.5625 0.94414,-0.16779 5.16693,-1.25 9.375,-2.40625 9.33393,-2.56516 15.03125,-3.79376 15.03125,-3.25 0,0.22438 -2.24866,2.97067 -5,6.09375 -0.36417,0.4128 -0.69064,0.79202 -1.03125,1.1875 -0.008,0.002 -0.0238,0.0299 -0.0312,0.0312 -0.67297,0.76422 -1.25676,1.44884 -1.75,2.03125 -1.03433,1.25429 -1.83125,2.30948 -2.09375,2.75 -0.0528,0.0996 -0.125,0.17435 -0.125,0.21875 0,0.19203 -0.40474,0.57835 -1.03125,1.03125 -0.2489,0.18028 -0.54082,0.37707 -0.84375,0.5625 -0.15288,0.0933 -0.30692,0.19055 -0.46875,0.28125 -0.21486,0.12045 -0.41431,0.23439 -0.59375,0.34375 -0.0134,0.009 -0.0181,0.0233 -0.0312,0.0312 -0.51387,0.31638 -0.89484,0.60696 -1.15625,0.90625 -0.23159,0.25976 -0.38235,0.54292 -0.46875,0.84375 -0.0647,0.24673 -0.0937,0.50707 -0.0937,0.8125 0,0.12811 0.005,0.26028 0,0.375 -0.005,0.11486 -0.0206,0.21019 -0.0312,0.3125 -0.0106,0.0978 -0.0447,0.19405 -0.0625,0.28125 -7.4e-4,0.003 7.2e-4,0.0312 0,0.0312 -0.0181,0.0866 -0.0357,0.1733 -0.0625,0.25 -0.0566,0.16298 -0.14431,0.2815 -0.25,0.40625 -0.0515,0.0615 -0.0906,0.1339 -0.15625,0.1875 -0.59212,0.48397 -1.78363,0.66029 -4.1875,0.875 -0.77586,0.0744 -1.39637,0.14375 -1.875,0.21875 -0.47925,0.0815 -0.8478,0.1942 -1.09375,0.3125 -0.14975,0.0736 -0.26135,0.1559 -0.34375,0.25 -0.0214,0.0258 -0.0452,0.0661 -0.0625,0.0937 -0.007,0.0122 0.007,0.019 0,0.0312 -0.0108,0.0199 -0.0535,0.0106 -0.0625,0.0312 -0.0553,0.12283 -0.0625,0.27138 -0.0625,0.4375 0,0.0813 -0.0158,0.1699 -0.0312,0.25 -0.0308,0.16022 -0.0713,0.31718 -0.15625,0.46875 -0.17031,0.30267 -0.45439,0.58079 -0.78125,0.8125 -0.16315,0.11639 -0.34409,0.2225 -0.53125,0.3125 -0.0937,0.0441 -0.18335,0.088 -0.28125,0.125 -0.58618,0.223 -1.23636,0.30825 -1.8125,0.15625 -0.13097,-0.034 -0.2401,-0.0515 -0.34375,-0.0625 -0.055,-0.001 -0.10815,-0.0321 -0.15625,-0.0312 -0.22092,0.008 -0.37475,0.0974 -0.46875,0.28125 -0.0228,0.0451 -0.0461,0.0983 -0.0625,0.15625 -0.0529,0.182 -0.0625,0.4211 -0.0625,0.75 0,0.1053 -0.0192,0.2135 -0.0312,0.3125 -0.0122,0.0954 -0.0395,0.19125 -0.0625,0.28125 -0.0234,0.0896 -0.0595,0.19725 -0.0937,0.28125 -0.46103,1.1386 -1.91641,1.75 -4.21875,1.75 -1.11842,0 -1.65902,0.1027 -1.90625,0.4375 l -0.0312,-0.0312 c -0.0637,0.0822 -0.098,0.2012 -0.125,0.3125 -0.0235,0.0998 -0.0312,0.1892 -0.0312,0.3125 0,0.1095 0.009,0.2125 0,0.3125 -0.009,0.0961 -0.0454,0.19325 -0.0625,0.28125 -7.4e-4,0.001 7.4e-4,0.0312 0,0.0312 -0.0175,0.0875 -0.0365,0.17 -0.0625,0.25 -0.0537,0.1614 -0.12775,0.3088 -0.21875,0.4375 -0.0451,0.0632 -0.10175,0.1315 -0.15625,0.1875 -0.1143,0.1163 -0.24838,0.19925 -0.40625,0.28125 -0.62102,0.3288 -1.58545,0.4056 -2.96875,0.25 -1.10076,-0.123 -1.72291,-0.1625 -2.09375,-0.0625 l 0,-0.0312 c -0.17794,0.0488 -0.3012,0.14685 -0.375,0.28125 0.004,0.001 0.0263,0 0.0312,0 -0.0927,0.1586 -0.14385,0.39665 -0.15625,0.71875 -0.003,0.1101 0,0.21165 0,0.34375 -3e-4,0.1526 -0.0211,0.28125 -0.0312,0.40625 -2.6e-4,0.001 2.6e-4,0.0312 0,0.0312 -0.01,0.1233 -0.01,0.2135 -0.0312,0.3125 -7.3e-4,10e-4 7.3e-4,0.0312 0,0.0312 -0.022,0.0971 -0.0577,0.175 -0.0937,0.25 -0.0175,0.0351 -0.0414,0.094 -0.0625,0.125 -0.0216,0.032 -0.0369,0.0355 -0.0625,0.0625 -0.002,10e-4 0.002,0.0312 0,0.0312 -0.0259,0.027 -0.0636,0.0405 -0.0937,0.0625 -0.22747,0.1732 -0.58705,0.21875 -1.125,0.21875 -0.0988,0 -0.19005,0.0213 -0.28125,0.0312 -0.0891,0.007 -0.1683,0.0152 -0.25,0.0312 -0.0868,0.017 -0.1705,0.0375 -0.25,0.0625 -0.3689,0.1206 -0.63443,0.353 -0.875,0.6875 l -0.0312,-0.0312 c -0.0411,0.0584 -0.0873,0.15375 -0.125,0.21875 -0.0413,0.0735 -0.0852,0.13575 -0.125,0.21875 -0.0384,0.0822 -0.0589,0.158 -0.0937,0.25 -0.0576,0.1503 -0.127,0.28435 -0.1875,0.40625 -0.002,0.001 0.002,0.0312 0,0.0312 -0.0605,0.121 -0.1182,0.2165 -0.1875,0.3125 -0.0337,0.046 -0.0881,0.11625 -0.125,0.15625 -0.19565,0.2177 -0.43937,0.3475 -0.78125,0.4375 -0.40626,0.1066 -0.95215,0.125 -1.71875,0.125 -0.34285,0 -0.61175,0.0133 -0.875,0.0312 -0.0449,10e-4 -0.0823,0 -0.125,0 -0.0828,0.007 -0.1749,0.0213 -0.25,0.0312 -0.11322,0.015 -0.2154,0.0425 -0.3125,0.0625 -0.29105,0.0623 -0.51832,0.15485 -0.6875,0.28125 -0.14686,0.10895 -0.26225,0.24728 -0.34375,0.40625 -0.005,0.011 0.005,0.0202 0,0.0312 -0.0419,0.0875 -0.065,0.17225 -0.0937,0.28125 -0.0302,0.1137 -0.0873,0.2215 -0.125,0.3125 -0.0375,0.0911 -0.0762,0.18 -0.125,0.25 -0.0244,0.035 -0.0344,0.0638 -0.0625,0.0937 -0.1957,0.2115 -0.50478,0.29325 -0.96875,0.28125 -0.13143,-0.003 -0.27615,-0.0133 -0.4375,-0.0312 -0.16115,-0.019 -0.3365,-0.0315 -0.53125,-0.0625 -0.14745,-0.025 -0.29584,-0.0505 -0.4375,-0.0625 -0.12547,-0.011 -0.22562,-0.0312 -0.34375,-0.0312 -0.0159,-3e-4 -0.0469,2e-4 -0.0625,0 -0.26341,-0.001 -0.50389,0.0245 -0.71875,0.0625 l 0,-0.0312 c -0.14463,0.0251 -0.26368,0.083 -0.375,0.125 -0.0119,10e-4 -0.0195,-0.01 -0.0312,0 -0.0964,0.0386 -0.1863,0.10325 -0.25,0.15625 -0.0206,0.019 -0.0427,0.0133 -0.0625,0.0312 -0.0167,0.02 -0.0188,0.0425 -0.0312,0.0625 -0.11042,0.18 -0.48198,0.35095 -0.96875,0.46875 -0.24317,0.06 -0.51955,0.12225 -0.8125,0.15625 -0.14317,0.016 -0.31905,0.0213 -0.46875,0.0312 -0.15343,0.009 -0.31203,0.0312 -0.46875,0.0312 -0.25313,0 -0.45022,-0.011 -0.65625,0 -1.16495,0.0669 -1.6757,0.35635 -1.9375,1.03125 0.0147,0.013 0.0483,0.0202 0.0625,0.0312 -0.12805,0.3984 -0.38482,0.7265 -0.71875,0.9375 -0.30809,0.2167 -0.70188,0.3125 -1.15625,0.3125 -0.89478,0 -1.53349,0.66345 -1.9375,2.21875 -0.1552,3.534 -0.85611,7.2556 -0.15625,10.625 0.37316,2.6865 0.12905,5.455 0.0937,8.1875 0.0106,0.1726 0.0204,0.3248 0.0312,0.5 0.0877,1.4119 0.14725,2.69355 0.21875,3.96875 0.11993,0.742 0.29313,1.4641 0.53125,2.1875 0.40993,1.7987 0.18947,3.4833 -0.1875,5.125 0.29235,8.088 0.0998,12.98295 -0.625,17.71875 -0.94818,6.1916 -1.2349,6.8444 -2.46875,5.4375 -0.63011,-0.7176 -1.04741,-2.73345 -1.25,-6.34375 -0.19046,-3.3656 -0.76106,-6.5687 -1.59375,-8.8125 -0.80231,-2.1629 -1.46838,-5.78795 -1.75,-9.40625 -0.52676,-6.8 -1.89207,-10.03535 -6.03125,-14.59375 -1.21967,-1.3442 -1.86124,-2.0457 -2.40625,-2.3125 l -0.5,-0.5625 c -0.22133,-0.1801 -0.44168,-0.3296 -0.65625,-0.5 0.18117,0.4839 0.24382,0.9805 0.0625,1.0625 -0.37279,0.1699 -1.19947,0.593 -1.84375,0.625 -0.6463,0.0343 -1.08731,-0.7708 -1.375,-1.3125 -0.56502,-1.0595 -0.4654,-2.3834 -0.4375,-2.6875 0,0 -0.0928,-0.0681 -0.5,-0.65625 -0.3809,-1.5727 -1.69793,-3.73805 -4.71875,-7.90625 -7.68068,-10.5982 -12.09192,-19.1288 -14.53125,-28.09375 -0.70304,-2.58339 -2.15307,-6.17172 -3.21875,-7.96875 -2.06655,-3.47682 -3.27622,-6.51253 -4.71875,-11.75 -0.42196,-1.53456 -0.92615,-2.85119 -1.6875,-4.09375 -0.11044,-0.17988 -0.25328,-0.35505 -0.375,-0.53125 -0.11573,-0.16782 -0.24819,-0.33493 -0.375,-0.5 -0.008,-0.0109 0.008,-0.0204 0,-0.0312 -0.28592,-0.36958 -0.61943,-0.76482 -0.96875,-1.125 -0.14842,-0.15241 -0.30758,-0.28604 -0.46875,-0.4375 -0.32865,-0.30984 -0.67581,-0.6287 -1.0625,-0.9375 -0.037,-0.0294 -0.0874,-0.0643 -0.125,-0.0937 -0.38472,-0.30246 -0.80263,-0.60084 -1.25,-0.90625 -0.0538,-0.0366 -0.10155,-0.0571 -0.15625,-0.0937 -0.13987,-0.094 -0.29126,-0.218 -0.4375,-0.3125 -0.11633,-0.0749 -0.25454,-0.14345 -0.375,-0.21875 -0.25475,-0.15962 -0.50741,-0.30698 -0.78125,-0.46875 -0.0227,-0.0134 -0.0397,-0.0491 -0.0625,-0.0625 -0.38228,-0.22471 -0.79762,-0.45745 -1.21875,-0.6875 -0.23352,-0.12731 -0.50405,-0.24571 -0.75,-0.375 -0.22042,-0.11593 -0.45678,-0.25732 -0.6875,-0.375 -0.4982,-0.25374 -1.01446,-0.48683 -1.5625,-0.75 -0.55456,-0.26627 -1.12428,-0.53484 -1.6875,-0.78125 -3.39463,-1.48431 -6.89604,-2.63281 -9.875,-3.46875 -4.47179,-1.25433 -7.77825,-1.82026 -7.78125,-1.96875 -8e-5,-0.003 -3.7e-4,-0.0283 0,-0.0312 -3e-4,-0.0113 0.0252,0.0101 0.0312,0 0.0184,-0.0281 0.055,-0.0773 0.125,-0.0937 0.0514,-0.0106 0.112,0.005 0.1875,0 0.0756,-0.005 0.18285,-0.032 0.28125,-0.0312 z m 60.78125,75.84375 -0.21875,0.0625 c 0.0223,0.4406 -0.009,0.8643 -0.34375,1.125 0.389,0.0222 0.56245,0.3481 0.78125,0.625 -0.0952,-0.1698 0.0783,-0.3303 0.34375,-0.5 l -0.65625,-0.71875 c 0,0 0.12562,-0.2439 0.375,-0.375 -0.0849,-0.0639 -0.19915,-0.15775 -0.28125,-0.21875 z"
       transform="translate(5.0870321e-7,706.23915)"
       id="path2985-3"
       inkscape:export-filename="../white.png"
       inkscape:export-xdpi="90"
       inkscape:export-ydpi="90"
       inkscape:connector-curvature="0" />
    <path
       style="color:#000000;fill:#4e4e4e;fill-opacity:1;fill-rule:nonzero;stroke:#000000;stroke-width:4;stroke-miterlimit:4;stroke-opacity:1;stroke-dasharray:none;marker:none;visibility:visible;display:inline;overflow:visible;enable-background:accumulate"
       d="M 100,2 C 45.876095,2 2,45.876095 2,100 c 0,54.1239 43.876095,98 98,98 54.1239,0 98,-43.8761 98,-98 C 198,45.876095 154.1239,2 100,2 z m 32.625,28.3125 c 1.51377,0.01185 2.98281,0.521252 4.40625,1 3.70444,1.53405 10.84827,4.4814 8.3125,9.65625 C 133.27071,46.90204 121.89434,56.308 108.5,60.15625 104.93094,62.1651 99.413998,59.26027 96.84375,62.125 c -5.997128,3.42002 -13.802254,2.21311 -20.53125,3.5 -4.959279,-0.3802 -8.70166,0.24106 -7.03125,5.90625 9.434837,-1.37284 18.832071,-4.05206 28.34375,-4.3125 3.30302,0.19832 9.6279,3.69129 5.96875,7.3125 -6.88909,1.48135 -14.382021,1.7488 -21.46875,3.34375 -4.302991,1.34829 -14.617737,0.15237 -7.65625,6 -2.195273,3.40642 -5.766845,5.75122 -8.40625,8.9375 4.951859,-1.69242 9.868717,-3.57948 14.9375,-5.03125 4.402948,-0.2151 -1.307968,-3.42223 -0.0625,-5.96875 2.578082,-4.68321 8.767685,0.17165 12.3125,1.0625 5.969779,1.47051 12.29009,9.64119 7.3125,15.1875 -3.950203,3.5456 -8.930934,0.26925 -11.3125,-3.40625 -5.326288,1.00882 -11.087787,3.63301 -16.59375,5.1875 3.418744,0.77516 8.231676,3.91284 5.71875,7.875 -0.772041,2.51712 -0.917273,4.9666 2.5625,2.96875 5.082404,-2.84155 12.614145,-0.32152 13.84375,5.53125 -0.688045,5.36894 -7.92538,2.74051 -11.5,4.4375 -2.901075,0.56981 -7.610239,-0.0351 -5.875,4.5625 1.343264,2.89369 6.754538,2.26977 9.53125,4.4375 4.574616,-5.16798 8.168406,-11.22191 11.71875,-17.1875 2.92694,-2.58459 1.204749,-7.39555 4.1875,-9.53125 4.85173,-0.53345 12.27898,3.52289 11.15625,9.21875 -6.78792,7.65367 -14.302325,15.16654 -22.78125,20.8125 -1.623581,1.54082 0.02111,5.85506 -2.125,8.0625 -3.885834,4.15299 -8.175706,-2.2551 -10.84375,-4.75 -2.097082,-1.41327 -0.219712,8.47336 -0.75,11.34375 -0.521896,6.96067 2.808532,17.34464 -4.625,21.78125 -5.978245,1.3602 -7.852138,-6.80733 -8.71875,-11.09375 3.39544,-6.32088 1.429897,-13.93125 1.8125,-20.875 -7.894152,7.30972 -16.823393,14.08818 -27.15625,17.53125 -2.718207,1.26362 -9.592123,1.87839 -7.6875,-2.84375 11.616431,-6.53521 21.123369,-16.46944 29.40625,-26.78125 -8.5596,1.33419 -17.157278,8.76314 -25.84375,3.96875 -3.72294,-0.93364 -7.712538,-6.46552 -3.09375,-9.03125 7.159107,-2.38966 15.173544,-2.44693 22.59375,-4.34375 4.825001,-1.69594 14.291512,0.36805 11.59375,-7.5625 -0.07502,-1.45727 -0.389612,-5.6003 -1.6875,-5.625 -4.907559,0.76736 -8.453745,5.02304 -13.09375,6.0625 -4.361274,-1.86122 -7.944975,-7.736 -6.59375,-12.34375 C 50.467294,93.19751 55.389354,88.17005 59,82.25 51.312151,84.0772 42.91123,87.77285 35.15625,84.125 31.822794,83.57605 28.189346,78.76705 32.5,76.75 41.51875,74.50678 51.227734,75.08138 60.375,73 60.058497,66.65741 59.260993,60.38226 58.4375,54.125 57.273998,52.07798 58.063544,47.79337 56.625,44.65625 c -1.202232,-3.40148 -4.540777,-8.07844 -0.40625,-10.9375 3.969183,-1.83857 9.252432,-0.04543 12.625,2.3125 7.522663,-0.37817 15.651223,-3.97062 23.4375,-5.28125 4.161715,-0.52021 11.33171,3.36172 8.1875,8.0625 -7.4732,3.42576 -16.424095,3.43215 -24.53125,4.78125 -3.875616,0.2594 -8.345927,-0.24583 -6.75,5.0625 5.719261,-0.7208 12.482393,-1.81707 18.34375,-3.84375 3.614601,-2.89035 12.233318,0.71881 9.40625,5.75 -5.186525,3.60127 -12.567413,2.62823 -18.59375,4.21875 C 74.870489,55.9836 67.862013,53.84138 69.125,59.25 74.683659,58.72755 80.226996,57.8848 85.71875,56.6875 89.666454,55.17693 96.666869,54.29315 97.8125,59.75 107.52509,54.36174 120.22026,47.24556 128.5,37.9375 c 0.63274,-2.54427 -0.78137,-7.32999 3.46875,-7.59375 0.21784,-0.01994 0.44,-0.03294 0.65625,-0.03125 z m 2.46875,18.40625 c 4.06709,-0.27082 8.12484,1.99289 11.40625,4.15625 3.7021,1.76903 3.85416,8.01125 -1.03125,8.1875 -14.54879,7.30995 -28.27546,20.24669 -45.8125,18.25 11.26494,-7.22293 24.03239,-13.22734 32.59375,-23.71875 -0.49277,-2.49499 -0.56317,-6.50426 2.84375,-6.875 z m 4,19.15625 c 1.53491,1.73e-4 2.94046,0.518558 4.40625,1 3.76646,1.48133 10.86054,4.51637 8.34375,9.65625 -13.75817,7.20575 -27.11993,17.13161 -42.46875,21.8125 -2.58467,0.90546 -9.00352,3.16976 -7.96875,-1.71875 11.1407,-7.98614 23.75775,-14.35419 33.875,-23.9375 -0.38167,-2.44177 -0.3938,-6.59046 3.15625,-6.78125 0.22561,-0.02285 0.43698,-0.03127 0.65625,-0.03125 z m -16.25,31.84375 c 0.21411,0.0034 0.41424,0.01806 0.625,0.0625 1.96171,-0.14185 3.8551,0.35653 5.59375,1.21875 9.08989,9.08573 19.3943,17.66005 31.6875,21.9375 3.09107,1.84619 10.99996,1.5645 9.5,6.875 -4.00491,4.30932 -10.9475,5.12411 -16.59375,6 -6.32935,-1.05131 -10.383,-7.38863 -14.71875,-11.59375 -6.14483,-6.03399 -10.35525,-15.28302 -18.5625,-18.75 -4.09304,-1.48438 -0.74285,-5.801024 2.46875,-5.75 z m -8.4375,16.46875 c 0.24191,-0.0101 0.47549,0.10895 0.71875,0.125 4.40705,2.20465 8.49057,6.57264 9.5,11.53125 -4.38957,7.66502 -11.555,13.63144 -17.34375,20.3125 -1.1035,2.18807 7.84565,-1.56386 10.34375,-1.75 4.38542,-1.10557 11.23072,-1.47197 5.875,-6.25 -2.57439,-1.79491 -3.17978,-7.36715 1.15625,-6.65625 9.88299,3.85777 20.28238,10.05648 24.65625,20.25 1.50059,4.61265 1.00781,13.14011 -5.15625,13.625 -7.37668,-1.96869 -9.67973,-10.90108 -13.84375,-16.4375 -6.63904,2.29013 -13.13491,4.96271 -19.71875,7.40625 -5.32968,1.28908 -10.04815,6.2419 -15.375,6.1875 -3.324548,-3.08297 -8.040041,-6.42064 -8.875,-11.15625 8.065083,-6.94832 16.41889,-15.13569 22.28125,-24.53125 3.87654,-3.34922 -0.0538,-11.00112 5.53125,-12.59375 0.0808,-0.0402 0.16936,-0.0592 0.25,-0.0625 z"
       transform="translate(5.0870321e-7,706.23915)"
       id="path2985-95"
       inkscape:export-filename="../flavored_black.png"
       inkscape:export-xdpi="90"
       inkscape:export-ydpi="90"
       inkscape:connector-curvature="0" />
    <path
       style="color:#000000;fill:#000000;fill-opacity:1;fill-rule:nonzero;stroke:#000000;stroke-width:4;stroke-miterlimit:4;stroke-opacity:1;stroke-dasharray:none;marker:none;visibility:visible;display:inline;overflow:visible;enable-background:accumulate"
       d="m 300,2 c -54.1239,0 -98,43.876095 -98,98 0,54.1239 43.8761,98 98,98 54.1239,0 98,-43.8761 98,-98 C 398,45.876095 354.1239,2 300,2 z m 32.625,28.3125 c 1.51377,0.01185 2.98281,0.521252 4.40625,1 3.70444,1.53405 10.84827,4.4814 8.3125,9.65625 -12.07304,5.93329 -23.44941,15.33925 -36.84375,19.1875 -3.56906,2.00885 -9.086,-0.89598 -11.65625,1.96875 -5.99713,3.42002 -13.80226,2.21311 -20.53125,3.5 -4.95928,-0.3802 -8.70166,0.24106 -7.03125,5.90625 9.43484,-1.37284 18.83207,-4.05206 28.34375,-4.3125 3.30302,0.19832 9.6279,3.69129 5.96875,7.3125 -6.88909,1.48135 -14.38202,1.7488 -21.46875,3.34375 -4.30299,1.34829 -14.61774,0.15237 -7.65625,6 -2.19527,3.40642 -5.76685,5.75122 -8.40625,8.9375 4.95186,-1.69242 9.86872,-3.57948 14.9375,-5.03125 4.40295,-0.2151 -1.30797,-3.42223 -0.0625,-5.96875 2.57808,-4.68321 8.76769,0.17165 12.3125,1.0625 5.96978,1.47051 12.29009,9.64119 7.3125,15.1875 -3.9502,3.5456 -8.93093,0.26925 -11.3125,-3.40625 -5.32629,1.00882 -11.08779,3.63301 -16.59375,5.1875 3.41874,0.77516 8.23168,3.91284 5.71875,7.875 -0.77204,2.51712 -0.91727,4.9666 2.5625,2.96875 5.0824,-2.84155 12.61414,-0.32152 13.84375,5.53125 -0.68805,5.36894 -7.92538,2.74051 -11.5,4.4375 -2.90107,0.56981 -7.61024,-0.0351 -5.875,4.5625 1.34326,2.89369 6.75454,2.26977 9.53125,4.4375 4.57462,-5.16798 8.16841,-11.22191 11.71875,-17.1875 2.92694,-2.58459 1.20475,-7.39555 4.1875,-9.53125 4.85173,-0.53345 12.27898,3.52289 11.15625,9.21875 -6.78792,7.65367 -14.30232,15.16654 -22.78125,20.8125 -1.62358,1.54082 0.0211,5.85506 -2.125,8.0625 -3.88583,4.15299 -8.17571,-2.2551 -10.84375,-4.75 -2.09708,-1.41327 -0.21971,8.47336 -0.75,11.34375 -0.5219,6.96067 2.80853,17.34464 -4.625,21.78125 -5.97825,1.3602 -7.85214,-6.80733 -8.71875,-11.09375 3.39544,-6.32088 1.4299,-13.93125 1.8125,-20.875 -7.89415,7.30972 -16.82339,14.08818 -27.15625,17.53125 -2.71821,1.26362 -9.59212,1.87839 -7.6875,-2.84375 11.61643,-6.53521 21.12337,-16.46944 29.40625,-26.78125 -8.5596,1.33419 -17.15728,8.76314 -25.84375,3.96875 -3.72294,-0.93364 -7.71254,-6.46552 -3.09375,-9.03125 7.15911,-2.38966 15.17355,-2.44693 22.59375,-4.34375 4.825,-1.69594 14.29151,0.36805 11.59375,-7.5625 -0.075,-1.45727 -0.38961,-5.6003 -1.6875,-5.625 -4.90756,0.76736 -8.45374,5.02304 -13.09375,6.0625 -4.36127,-1.86122 -7.94498,-7.736 -6.59375,-12.34375 6.06104,-3.27124 10.9831,-8.2987 14.59375,-14.21875 -7.68785,1.8272 -16.08877,5.52285 -23.84375,1.875 -3.33346,-0.54895 -6.9669,-5.35795 -2.65625,-7.375 9.01875,-2.24322 18.72773,-1.66862 27.875,-3.75 -0.3165,-6.34259 -1.11401,-12.61774 -1.9375,-18.875 -1.1635,-2.04702 -0.37396,-6.33163 -1.8125,-9.46875 -1.20223,-3.40148 -4.54078,-8.07844 -0.40625,-10.9375 3.96918,-1.83857 9.25243,-0.04543 12.625,2.3125 7.52266,-0.37817 15.65122,-3.97062 23.4375,-5.28125 4.16171,-0.52021 11.33171,3.36172 8.1875,8.0625 -7.4732,3.42576 -16.4241,3.43215 -24.53125,4.78125 -3.87562,0.2594 -8.34593,-0.24583 -6.75,5.0625 5.71926,-0.7208 12.48239,-1.81707 18.34375,-3.84375 3.6146,-2.89035 12.23332,0.71881 9.40625,5.75 -5.18652,3.60127 -12.56741,2.62823 -18.59375,4.21875 -3.47326,1.20235 -10.48174,-0.93987 -9.21875,4.46875 5.55866,-0.52245 11.10199,-1.3652 16.59375,-2.5625 3.9477,-1.51057 10.94812,-2.39435 12.09375,3.0625 9.71259,-5.38826 22.40776,-12.50444 30.6875,-21.8125 0.63274,-2.54427 -0.78137,-7.32999 3.46875,-7.59375 0.21784,-0.01994 0.44,-0.03294 0.65625,-0.03125 z m 2.46875,18.40625 c 4.06709,-0.27082 8.12484,1.99289 11.40625,4.15625 3.7021,1.76903 3.85416,8.01125 -1.03125,8.1875 -14.54879,7.30995 -28.27546,20.24669 -45.8125,18.25 11.26494,-7.22293 24.03239,-13.22734 32.59375,-23.71875 -0.49277,-2.49499 -0.56317,-6.50426 2.84375,-6.875 z m 4,19.15625 c 1.53491,1.73e-4 2.94046,0.518558 4.40625,1 3.76646,1.48133 10.86054,4.51637 8.34375,9.65625 -13.75817,7.20575 -27.11993,17.13161 -42.46875,21.8125 -2.58467,0.90546 -9.00352,3.16976 -7.96875,-1.71875 11.1407,-7.98614 23.75775,-14.35419 33.875,-23.9375 -0.38167,-2.44177 -0.3938,-6.59046 3.15625,-6.78125 0.22561,-0.02285 0.43698,-0.03127 0.65625,-0.03125 z m -16.25,31.84375 c 0.21411,0.0034 0.41424,0.01806 0.625,0.0625 1.96171,-0.14185 3.8551,0.35653 5.59375,1.21875 9.08989,9.08573 19.3943,17.66005 31.6875,21.9375 3.09107,1.84619 10.99996,1.5645 9.5,6.875 -4.00491,4.30932 -10.9475,5.12411 -16.59375,6 -6.32935,-1.05131 -10.383,-7.38863 -14.71875,-11.59375 -6.14483,-6.03399 -10.35525,-15.28302 -18.5625,-18.75 -4.09304,-1.48438 -0.74285,-5.801024 2.46875,-5.75 z m -8.4375,16.46875 c 0.2419,-0.0101 0.4755,0.10895 0.71875,0.125 4.40705,2.20465 8.49057,6.57264 9.5,11.53125 -4.38957,7.66502 -11.555,13.63144 -17.34375,20.3125 -1.1035,2.18807 7.84565,-1.56386 10.34375,-1.75 4.38542,-1.10557 11.23072,-1.47197 5.875,-6.25 -2.57439,-1.79491 -3.17978,-7.36715 1.15625,-6.65625 9.88299,3.85777 20.28238,10.05648 24.65625,20.25 1.50059,4.61265 1.00781,13.14011 -5.15625,13.625 -7.37668,-1.96869 -9.67973,-10.90108 -13.84375,-16.4375 -6.63904,2.29013 -13.13491,4.96271 -19.71875,7.40625 -5.32968,1.28908 -10.04815,6.2419 -15.375,6.1875 -3.32455,-3.08297 -8.04004,-6.42064 -8.875,-11.15625 8.06508,-6.94832 16.41889,-15.13569 22.28125,-24.53125 3.87654,-3.34922 -0.0539,-11.00112 5.53125,-12.59375 0.0808,-0.0402 0.16937,-0.0592 0.25,-0.0625 z"
       transform="translate(5.0870321e-7,706.23915)"
       id="path2985-3-2"
       inkscape:export-filename="../black.png"
       inkscape:export-xdpi="90"
       inkscape:export-ydpi="90"
       inkscape:connector-curvature="0" />
    <path
       style="color:#000000;fill:#ffbb7a;fill-opacity:1;fill-rule:nonzero;stroke:#a96628;stroke-width:4;stroke-miterlimit:4;stroke-opacity:1;stroke-dasharray:none;marker:none;visibility:visible;display:inline;overflow:visible;enable-background:accumulate"
       d="m 500,2 c -54.1239,0 -98,43.876095 -98,98 0,54.1239 43.8761,98 98,98 54.1239,0 98,-43.8761 98,-98 C 598,45.876095 554.1239,2 500,2 z m 27.84375,28.5 c 17.10008,-0.29779 31.61343,7.48024 31.46875,18.9375 -0.14468,11.45726 -9.19325,23.37029 -9.40625,24.375 2.06568,3.63301 4.33371,9.47646 5.25,12.6875 1.02477,3.6089 0.82137,9.48837 1.0625,11.4375 0.91629,7.43884 9.68326,8.06065 6.90625,12.03125 -2.82121,4.03088 -7.12716,-5.84291 -9.28125,-5.59375 -2.15007,0.24515 2.66128,15.0625 -1.5625,15.0625 -4.22378,0 -0.43724,-11.86759 -3.375,-12.96875 -2.94177,-1.10115 -4.23437,11.21292 -8,9.46875 -3.76564,-1.74416 4.66103,-8.71717 3.375,-11.5625 -1.28602,-2.84934 -6.2031,5.40789 -8.15625,2.28125 -1.95315,-3.12665 4.91332,-3.83476 5.21875,-5.96875 0.30543,-2.13802 -2.92031,-0.93682 -2,-3.75 0.93236,-2.8413 2.47625,0.18279 4.71875,-0.625 2.21839,-0.79974 2.44014,-3.06965 2.625,-4.90625 0.11256,-1.12125 0.29337,-5.50667 0,-9.3125 -5.18027,10.77447 -15.12435,26.01383 -21.5625,31.65625 -9.59293,8.41942 -39.61502,18.38104 -40.25,19.28125 -1.56332,2.20634 3.6128,11.10666 2.375,14.96875 -0.73544,2.29475 -14.5005,9.45789 -16.15625,11.9375 -1.65174,2.47962 1.11624,8.27611 -3.3125,7.34375 -4.12331,-0.87209 0.7924,-6.785 -1,-7.90625 -2.93776,-1.83661 -5.53854,11.61557 -8.625,10 -5.18026,-2.70467 5.86308,-11.75978 5.3125,-13.78125 -0.55058,-2.02147 -7.80315,1.2145 -7.71875,-3.375 0.0603,-3.58077 9.32255,1.26009 10.21875,-1.75 0.6832,-2.28671 -3.64494,-4.14732 -0.5625,-6 3.02617,-1.8165 2.65148,4.34375 3.9375,4.34375 1.28602,0 9.55115,-2.5842 10.375,-5.15625 0.59479,-1.84464 -1.61274,-8.51816 -2.46875,-9.125 -0.91628,-0.65507 -3.14143,0.0651 -3.53125,0.53125 -3.92237,4.71408 -5.20899,3.96494 -6.8125,4.9375 -1.55529,0.94844 -14.56368,16.85894 -28.0625,9.34375 -5.50177,-3.06637 -0.25,-15.84375 -0.25,-15.84375 0,0 -0.53125,-1.29887 -0.53125,-4.15625 0,-2.85738 3.11137,-2.72238 5.96875,-6.21875 3.32879,-4.07509 2.04434,-5.5387 11.6875,-9.875 3.37983,-1.5151 8.77007,-3.41202 14.46875,-5.4375 0.94041,-4.2479 3.04631,-10.94125 7.25,-12.0625 4.99137,-1.33023 8.13762,3.03064 9.5,5.5625 4.1193,-1.86072 7.73782,-3.80309 10.125,-5.8125 7.59156,-6.38993 13.00743,-15.14872 15.53125,-18.625 2.31886,-3.19094 5.11186,-5.82762 7.8125,-7.9375 3.70938,-3.35089 3.8014,-5.4059 1.6875,-5.375 -2.1139,0.03134 -3.63715,7.42786 -6.96875,4.84375 -3.25123,-2.5198 3.57711,-4.06929 2.21875,-5.375 -1.31014,-1.26312 -8.76511,6.38436 -10.875,3.09375 -1.71201,-2.67011 7.18583,-4.04229 6.6875,-5.65625 -0.49432,-1.61396 -8.17752,3.58591 -8.8125,-0.75 -0.5988,-4.0566 9.4393,-1.04945 9.375,-3.71875 -0.0322,-1.36519 -3.72165,0.52621 -2.78125,-3.03125 1.18556,-4.4842 5.8236,2.39153 7.9375,0.28125 0,0 1.87399,-3.40707 6.09375,-3.53125 4.23584,-0.12458 6.89462,8.28204 8.84375,9.0625 7.76436,-3.4811 10.86718,-4.98966 11.84375,-9.375 1.05695,-4.74101 0.17083,-11.16165 -17.78125,-11.21875 -18.19722,-0.05747 -47.04284,9.97646 -50.8125,8.90625 -2.42736,-0.68802 6.20759,-4.26551 17.34375,-8.0625 9.41609,-3.21224 16.33339,-8.23349 33.4375,-8.53125 z"
       transform="translate(5.0870321e-7,706.23915)"
       id="path3773-1"
       inkscape:export-filename="../flavored_rooibos.png"
       inkscape:export-xdpi="90"
       inkscape:export-ydpi="90"
       inkscape:connector-curvature="0" />
    <path
       style="color:#000000;fill:#dc696d;fill-opacity:1;fill-rule:nonzero;stroke:#572f30;stroke-width:4;stroke-miterlimit:4;stroke-opacity:1;stroke-dasharray:none;marker:none;visibility:visible;display:inline;overflow:visible;enable-background:accumulate"
       d="m 900,2 c -54.1239,0 -98,43.876095 -98,98 0,54.1239 43.8761,98 98,98 54.1239,0 98,-43.8761 98,-98 C 998,45.876095 954.1239,2 900,2 z m 17.375,46.59375 c 0.60705,-0.01186 1.11628,0.01472 1.53125,0.0625 2.2905,0.26481 7.72227,2.29187 10.1875,3.8125 0.79171,0.48868 1.74772,0.84043 2.53125,0.96875 0.21294,0.0355 1.5464,0.15718 2.96875,0.25 2.94571,0.19383 3.41576,0.27503 5.46875,1.03125 4.15239,1.52883 6.18684,2.83159 8.96875,5.75 1.81275,1.90557 4.08862,5.08525 5.78125,8.09375 0.71254,1.26401 2.34375,4.44237 2.34375,4.5625 0,0.0273 0.23246,0.49465 0.5,1.0625 0.91456,1.94106 1.91565,4.4923 3.40625,8.5 0.52963,1.42781 1.08225,2.8869 1.21875,3.25 0.13923,0.36582 0.48519,1.2738 0.75,2 0.57331,1.57523 0.76713,1.88237 1.46875,2.34375 0.87907,0.57604 2.24451,0.88992 5.1875,1.1875 2.3451,0.24024 3.15625,0.38899 3.15625,0.59375 0,0.34944 -0.57533,1.10745 -1.03125,1.375 -0.68251,0.39858 -1.3492,0.59259 -2.8125,0.84375 -2.13762,0.36855 -2.59421,0.45818 -3.375,0.6875 -0.40951,0.12012 -0.71875,0.27428 -0.71875,0.3125 0,0.0409 0.32957,1.80929 0.75,3.96875 1.05379,5.40002 1.65188,8.87222 2.59375,14.75 1.32407,8.28021 2.25128,18.81979 2.5625,29.5625 0.071,2.44338 0.23641,4.03415 0.53125,4.875 0.0928,0.26481 0.1875,0.48635 0.1875,0.5 0,0.0136 -0.2094,0.0257 -0.46875,0.0312 -0.25663,0.005 -1.03078,0.22032 -1.71875,0.46875 -1.19302,0.42862 -1.79983,0.52242 -2.1875,0.375 -0.22659,-0.0874 -0.22959,-0.64857 0,-1.71875 0.30577,-1.43873 0.12849,-4.103 -0.625,-9.4375 -0.57604,-4.07322 -1.95777,-10.52965 -3.15625,-14.6875 -0.21295,-0.73711 -0.41961,-1.47333 -0.46875,-1.65625 -0.3085,-1.13569 -2.60716,-9.67227 -2.9375,-10.90625 -2.55531,-9.48962 -4.53361,-14.39971 -7.25,-18.15625 -1.42235,-1.97109 -2.34919,-2.57782 -5.28125,-3.375 -1.46603,-0.39858 -2.23708,-0.69772 -4.4375,-1.71875 -2.427,-1.13024 -3.46346,-1.49971 -4.3125,-1.5625 -0.73711,-0.0546 -0.75215,-0.06671 -0.875,0.25 -0.0956,0.24297 -0.074,0.6164 0.0625,1.59375 0.21294,1.5261 0.21964,2.43907 0.0312,2.6875 -0.2184,0.28939 -3.80192,0.95754 -5.5,1.03125 -1.15754,0.0491 -1.61675,0.03093 -2.8125,-0.1875 -1.9629,-0.35763 -5.3151,-0.39833 -6.21875,-0.0625 -0.80536,0.30031 -1.3068,0.73436 -1.65625,1.46875 -0.40951,0.86815 -0.57406,1.92772 -0.71875,4.625 -0.17199,3.21872 -0.0248,3.91934 1.53125,8.71875 0.51325,1.58343 1.12657,3.68558 1.375,4.6875 0.98009,4.00224 1.47435,5.23205 5.25,12.625 1.76634,3.46169 2.46828,4.99313 3.15625,7.0625 0.75349,2.27686 0.96573,3.56899 1.03125,5.6875 0.0328,1.04287 0.12865,1.97154 0.21875,2.25 0.2184,0.68797 0.69958,1.24018 1.90625,2.1875 1.39232,1.09748 2.48912,2.15786 4.25,4.15625 l 1.4375,1.65625 -0.53125,0.53125 c -0.70981,0.73165 -2.18157,1.96944 -2.875,2.40625 -2.21134,1.39505 -4.06659,1.68803 -7.875,1.28125 -0.89272,-0.0956 -2.35727,-0.20632 -3.25,-0.25 -0.89545,-0.0437 -1.65474,-0.12349 -1.6875,-0.15625 -0.0328,-0.0328 -0.0935,-0.87035 -0.15625,-1.875 -0.24844,-4.1442 -0.87284,-7.07531 -2.21875,-10.46875 -0.7453,-1.88373 -1.18284,-2.73878 -2.1875,-4.28125 -0.94732,-1.45511 -1.71316,-2.78251 -2.625,-4.5625 -0.83539,-1.62983 -1.96654,-3.47844 -3.03125,-4.90625 -0.72346,-0.97463 -1.59741,-1.9393 -1.6875,-1.84375 -0.0246,0.0273 -0.38266,0.93802 -0.78125,2 -0.70981,1.90284 -1.00335,2.75553 -2.625,7.71875 -0.67432,2.06391 -1.00353,2.92 -2,4.9375 -1.78817,3.61457 -2.30396,5.01474 -2.09375,5.9375 0.0983,0.43407 0.59503,1.20817 0.90625,1.4375 0.18565,0.1365 2.33504,2.7486 2.75,3.34375 0.21841,0.31122 0.90625,2.09805 0.90625,2.34375 0,0.0983 -0.58967,0.19272 -2.9375,0.53125 -1.07018,0.15561 -6.01358,0.28305 -7.1875,0.1875 -1.39232,-0.11193 -4.0733,-0.47456 -4.96875,-0.6875 -1.08929,-0.25935 -1.94116,-0.60897 -2.03125,-0.84375 -0.0655,-0.16926 0.36465,-0.89148 1.71875,-2.90625 0.72892,-1.08656 0.97427,-1.54629 1.25,-2.40625 0.8545,-2.66452 1.44371,-5.50827 2.15625,-10.46875 0.49414,-3.43986 0.85565,-5.69179 1.21875,-7.40625 0.25389,-1.1903 0.29914,-1.51486 0.25,-3 -0.0355,-1.07563 -0.1839,-2.23959 -0.375,-3.3125 -0.72619,-4.09779 -0.8082,-5.41994 -0.5625,-8.625 0.0983,-1.27493 0.21997,-2.44087 0.25,-2.59375 0.03,-0.15015 0.16235,-1.22019 0.3125,-2.375 0.14742,-1.1548 0.3028,-2.29374 0.34375,-2.53125 l 0.0937,-0.4375 -0.5,0.0937 c -0.26209,0.0409 -1.05779,0.014 -1.78125,-0.0625 -1.0538,-0.10647 -1.47647,-0.11447 -2.15625,0 -1.91922,0.31941 -4.56734,1.13231 -9.09375,2.78125 -3.43712,1.25309 -6.51491,2.25464 -8.28125,2.71875 -2.05299,0.53782 -3.78726,0.60218 -6.59375,0.25 -2.24409,-0.28119 -3.3054,-0.23264 -4.25,0.125 -0.76168,0.28665 -1.17641,0.67954 -1.8125,1.8125 -1.29404,2.30416 -1.30255,2.32836 -3.15625,2.71875 -1.73904,0.36583 -1.95643,0.52392 -2.5625,1.8125 -0.50506,1.07564 -0.59532,1.30483 -0.84375,2.375 -0.3904,1.70355 -0.46904,3.05922 -0.40625,6.40625 0.10374,5.68667 0.86115,9.52412 2.96875,14.875 1.09474,2.77645 1.02833,2.68121 3.125,4.625 0.87635,0.81082 1.92083,2.33021 2,2.90625 0.1092,0.81355 -0.79361,1.98675 -1.9375,2.5 -1.35137,0.60607 -2.7294,0.60763 -7.46875,-0.0312 -1.34045,-0.18019 -3.25081,-0.40445 -4.25,-0.5 -0.99919,-0.0983 -1.98275,-0.21997 -2.1875,-0.25 l -0.375,-0.0312 0.0625,-0.59375 c 0.19384,-1.70082 0.31006,-4.38951 0.25,-5.65625 -0.0819,-1.76906 -0.35786,-3.09907 -1.125,-5.46875 -0.86815,-2.68909 -1.23519,-3.98663 -1.5,-5.40625 -0.12831,-0.69889 -0.35531,-1.6703 -0.5,-2.15625 -0.70435,-2.40244 -1.00092,-3.3125 -1.09375,-3.3125 -0.17472,0 -1.01922,1.71206 -1.5625,3.15625 -0.77533,2.06118 -1.31134,3.41182 -1.5625,3.96875 -1.90284,4.23975 -3.01005,7.5802 -3.1875,9.625 -0.0628,0.718 -0.0297,0.96102 0.21875,1.75 0.3904,1.23671 0.37708,1.57958 -0.0625,2 -0.55419,0.52963 -1.32887,0.7069 -2.78125,0.625 -3.10132,-0.18018 -4.27811,-0.29949 -5.25,-0.46875 -1.32407,-0.23206 -4.68964,-1.03886 -4.8125,-1.15625 -0.0956,-0.0928 0.38609,-1.09374 1.21875,-2.5625 0.53782,-0.95005 3.41002,-6.67686 4.0625,-8.09375 1.39778,-3.03853 2.89125,-6.75114 3.78125,-9.4375 1.03468,-3.12862 2.26614,-7.8284 2.59375,-9.96875 0.071,-0.45592 0.16688,-1.00703 0.21875,-1.25 0.0846,-0.38221 0.39086,-2.90332 0.78125,-6.46875 0.0655,-0.57604 0.1951,-1.66095 0.3125,-2.40625 0.37128,-2.33419 0.25227,-3.55738 -0.53125,-5.25 -0.18837,-0.40132 -0.40323,-1.05106 -0.46875,-1.46875 -0.25116,-1.56159 -0.57801,-2.8125 -0.75,-2.8125 -0.0382,0 -0.19359,-0.19453 -0.34375,-0.4375 -0.24843,-0.40405 -0.4375,-0.57429 -0.4375,-0.375 0,0.0409 -0.13109,0.96503 -0.28125,2.0625 -0.26208,1.90284 -0.65393,5.28185 -1.15625,9.84375 -0.34672,3.13682 -0.97909,8.34084 -1.09375,8.96875 -0.0546,0.30577 -0.17902,0.95156 -0.25,1.4375 -0.48049,3.27059 -0.9368,5.10157 -1.96875,7.8125 -0.87907,2.30415 -1.16206,3.1549 -1.375,4.03125 l -0.15625,0.625 0,-1.25 c -0.0191,-3.26786 0.46502,-6.42336 1.5625,-10.0625 1.06471,-3.52721 1.6254,-7.35159 2.125,-14.75 0.33579,-4.98778 0.44906,-7.83267 0.59375,-13.15625 0.15288,-5.59931 0.41251,-7.68921 1.40625,-11.71875 0.53782,-2.17857 0.74953,-2.95671 1.4375,-4.96875 3.46988,-10.12572 9.2464,-16.86226 17.0625,-19.90625 3.66645,-1.42781 7.45814,-1.99785 12.09375,-1.875 3.77292,0.10101 6.08458,0.40044 11.875,1.65625 4.14693,0.90092 5.45623,1.01847 9.625,0.84375 7.73147,-0.32761 12.95268,-1.44979 17.59375,-3.78125 2.14854,-1.08109 2.66059,-1.27771 4.65625,-1.75 1.73016,-0.409508 4.2101,-0.683176 6.03125,-0.71875 z"
       transform="translate(5.0870321e-7,706.23915)"
       id="path2985-9-4"
       inkscape:export-filename="../mate.png"
       inkscape:export-xdpi="90"
       inkscape:export-ydpi="90"
       inkscape:connector-curvature="0" />
    <path
       style="color:#000000;fill:#a45391;fill-opacity:1;fill-rule:nonzero;stroke:#4f1e44;stroke-width:4;stroke-miterlimit:4;stroke-opacity:1;stroke-dasharray:none;marker:none;visibility:visible;display:inline;overflow:visible;enable-background:accumulate"
       d="m 1100,2 c -54.1239,0 -98,43.876095 -98,98 0,54.1239 43.8761,98 98,98 54.1239,0 98,-43.8761 98,-98 0,-54.123905 -43.8761,-98 -98,-98 z m -1.0938,32.65625 c 0,0 6.2165,4.9197 14.375,13.6875 8.1467,-6.3823 12.3438,-11.3125 12.3438,-11.3125 0,0 1.1109,3.72875 2.9688,10.03125 7.3991,-4.0538 12.0624,-7.0625 12.0624,-7.0625 0,0 -1.2188,4.81545 -1.4374,13.40625 10.3181,-3.8854 17.2812,-7.9375 17.2812,-7.9375 0,0 -8.5703,16.03005 -12.3125,35.34375 -4.1841,7.9718 -9.4992,14.40825 -17.5937,15.90625 -0.4093,0.0757 -0.8371,0.15575 -1.25,0.21875 5.8577,8.5201 10.8437,12.625 10.8437,12.625 0,0 -6.7612,1.629 -18.2187,3.875 -2.5321,0.1881 -4.8875,0.33645 -7,0.15625 -2.7424,2.6584 -5.0833,4.86305 -6.9376,6.59375 0.045,0.0688 0.08,0.14975 0.125,0.21875 0,0 -0.6596,10.1076 -0.9062,18.4375 1.3046,-2.73 4.0557,-4.66495 7.25,-5.65625 3.2771,-1.0169 6.5285,0.3115 10.2812,1.9375 7.4769,4.3749 11.7813,7.15625 11.7813,7.15625 0,0 -4.5718,4.08715 -12.375,8.40625 -3.472,1.5487 -7.4401,2.0846 -10.6563,0.875 -2.8509,-1.0725 -5.2075,-3.32755 -6.3437,-5.78125 2.8177,42.8201 -9.5275,34.87265 -9.125,0.21875 l 0,-1.625 c -1.1748,3.9565 -4.4823,6.74335 -8.3437,8.09375 -3.5693,1.2481 -7.0998,-0.3795 -11.1876,-2.375 -8.1436,-5.3692 -12.8437,-8.78125 -12.8437,-8.78125 0,0 5.0005,-5.0117 13.5,-10.3125 3.7818,-1.9008 8.1222,-2.5471 11.625,-1.0625 3.4503,1.4624 6.2089,4.664 7.25,8.0625 l 0,-17.1875 c -1.7649,-1.3818 -3.8593,-3.1267 -6.125,-5.1875 -1.2564,-0.0408 -2.5779,-0.1487 -3.9375,-0.25 -12.1441,-2.3834 -19.3125,-4.09375 -19.3125,-4.09375 0,0 4.6003,-3.5695 11.0313,-13.125 0.7617,-0.9135 1.5087,-1.74285 2.2812,-2.46875 -1.0005,-0.106 -1.9869,-0.2558 -2.9688,-0.4375 -8.0946,-1.498 -13.4096,-7.93445 -17.5937,-15.90625 C 1051.0083,61.00915 1043.5,49.625 1043.5,49.625 c 0,0 5.877,0.89855 14.8438,2.59375 -1.4505,-6.6242 -2.9688,-10.1875 -2.9688,-10.1875 0,0 6.1558,2.9153 15.5625,6.375 2.1058,-6.4529 3.3125,-9.53125 3.3125,-9.53125 0,0 4.2612,3.92805 12.5312,9.65625 7.602,-8.934 12.125,-13.875 12.125,-13.875 z"
       transform="translate(5.0870321e-7,706.23915)"
       id="path2985-0-6"
       inkscape:export-filename="../herbal.png"
       inkscape:export-xdpi="90"
       inkscape:export-ydpi="90"
       inkscape:connector-curvature="0" />
    <text
       xml:space="preserve"
       style="font-size:20.00004387px;font-style:normal;font-weight:normal;text-align:center;line-height:125%;letter-spacing:0px;word-spacing:0px;text-anchor:middle;fill:#000000;fill-opacity:1;stroke:none;font-family:Sans"
       x="99.926537"
       y="1157.0814"
       id="text3833"
       sodipodi:linespacing="125%"
       transform="scale(1.0000022,0.99999781)"><tspan
         sodipodi:role="line"
         id="tspan3835"
         x="99.926537"
         y="1157.0814">Flavored</tspan><tspan
         sodipodi:role="line"
         x="99.926537"
         y="1182.0814"
         id="tspan3837">White</tspan></text>
    <text
       xml:space="preserve"
       style="font-size:20px;font-style:normal;font-weight:normal;text-align:center;line-height:125%;letter-spacing:0px;word-spacing:0px;text-anchor:middle;fill:#000000;fill-opacity:1;stroke:none;font-family:Sans"
       x="300.2002"
       y="1157.079"
       id="text3833-0"
       sodipodi:linespacing="125%"><tspan
         sodipodi:role="line"
         x="300.2002"
         y="1157.079"
         id="tspan3837-7">White</tspan></text>
    <text
       xml:space="preserve"
       style="font-size:20px;font-style:normal;font-weight:normal;text-align:center;line-height:125%;letter-spacing:0px;word-spacing:0px;text-anchor:middle;fill:#000000;fill-opacity:1;stroke:none;font-family:Sans"
       x="499.92676"
       y="1157.079"
       id="text3833-7"
       sodipodi:linespacing="125%"><tspan
         sodipodi:role="line"
         id="tspan3835-1"
         x="499.92676"
         y="1157.079">Flavored</tspan><tspan
         sodipodi:role="line"
         x="499.92676"
         y="1182.079"
         id="tspan3837-8">Green</tspan></text>
    <text
       xml:space="preserve"
       style="font-size:20px;font-style:normal;font-weight:normal;text-align:center;line-height:125%;letter-spacing:0px;word-spacing:0px;text-anchor:middle;fill:#000000;fill-opacity:1;stroke:none;font-family:Sans"
       x="700.29785"
       y="1156.7274"
       id="text3833-1"
       sodipodi:linespacing="125%"><tspan
         sodipodi:role="line"
         x="700.29785"
         y="1156.7274"
         id="tspan3837-3">Green</tspan></text>
    <text
       xml:space="preserve"
       style="font-size:20.00004387px;font-style:normal;font-weight:normal;text-align:center;line-height:125%;letter-spacing:0px;word-spacing:0px;text-anchor:middle;fill:#000000;fill-opacity:1;stroke:none;font-family:Sans"
       x="99.926537"
       y="645.95734"
       id="text3833-6"
       sodipodi:linespacing="125%"
       transform="scale(1.0000022,0.99999781)"><tspan
         sodipodi:role="line"
         id="tspan3835-15"
         x="99.926537"
         y="645.95734">Flavored</tspan><tspan
         sodipodi:role="line"
         x="99.926537"
         y="670.9574"
         id="tspan3837-4">Black</tspan></text>
    <text
       xml:space="preserve"
       style="font-size:20px;font-style:normal;font-weight:normal;text-align:center;line-height:125%;letter-spacing:0px;word-spacing:0px;text-anchor:middle;fill:#000000;fill-opacity:1;stroke:none;font-family:Sans"
       x="299.05762"
       y="670.95593"
       id="text3833-0-4"
       sodipodi:linespacing="125%"><tspan
         sodipodi:role="line"
         x="299.05762"
         y="670.95593"
         id="tspan3837-7-6">Black</tspan></text>
    <text
       xml:space="preserve"
       style="font-size:20px;font-style:normal;font-weight:normal;text-align:center;line-height:125%;letter-spacing:0px;word-spacing:0px;text-anchor:middle;fill:#000000;fill-opacity:1;stroke:none;font-family:Sans"
       x="899.55078"
       y="670.95593"
       id="text3833-1-0"
       sodipodi:linespacing="125%"><tspan
         sodipodi:role="line"
         x="899.55078"
         y="670.95593"
         id="tspan3837-3-7">Mat</tspan></text>
    <text
       xml:space="preserve"
       style="font-size:20px;font-style:normal;font-weight:normal;text-align:center;line-height:125%;letter-spacing:0px;word-spacing:0px;text-anchor:middle;fill:#000000;fill-opacity:1;stroke:none;font-family:Sans"
       x="1099.951"
       y="670.95593"
       id="text3833-79-5"
       sodipodi:linespacing="125%"><tspan
         sodipodi:role="line"
         x="1099.951"
         y="670.95593"
         id="tspan3837-9-0">Herbal</tspan></text>
    <path
       style="color:#000000;fill:#6c73b2;fill-opacity:1;fill-rule:nonzero;stroke:#212331;stroke-width:4;stroke-miterlimit:4;stroke-opacity:1;stroke-dasharray:none;marker:none;visibility:visible;display:inline;overflow:visible;enable-background:accumulate"
       d="m 1100,202 c -54.1239,0 -98,43.8761 -98,98 0,54.1239 43.8761,98 98,98 54.1239,0 98,-43.8761 98,-98 0,-54.1239 -43.8761,-98 -98,-98 z m 53.9375,55.5 c 1.3798,-0.066 2.7709,0.0485 4.125,0.28125 10.2413,1.53953 17.6285,12.23661 15.5937,22.375 -1.6477,4.05983 2.0308,7.71209 1.9063,11.75 -0.4206,4.06421 -3.4576,9.17545 -8.1563,8.78125 -4.2724,-1.4787 -5.4313,-6.82664 -5.0624,-10.90625 -0.1793,-3.98081 4.1266,-5.42427 6.3437,-7.90625 3.0715,-6.14715 -0.7595,-13.9479 -6.4063,-17.03125 -7.2905,-4.36822 -17.6855,-0.0428 -19.875,8.09375 -2.1483,7.56233 3.1979,14.17978 7.5938,19.71875 5.1407,6.04171 8.7855,13.5985 8.6875,21.6875 0.196,12.3034 -8.5802,23.80895 -20.375,27.03125 -11.9269,3.6983 -25.597,-1.8381 -31.9687,-12.4375 -6.7742,-10.2696 -5.5859,-24.6906 2.1562,-34.125 4.4728,-4.02321 4.1238,-11.36674 -0.062,-15.46875 -5.3115,-5.72368 -15.727,-3.39874 -18.7187,3.625 -2.821,5.74196 0.5316,12.0183 3.3124,17.125 3.8553,6.5948 5.4098,15.8982 0.1563,22.1875 -4.0217,5.3729 -12.6419,5.6068 -17.3125,0.9375 -5.2755,-5.0209 -4.9744,-12.6866 -5.25,-19.4375 -0.1506,-10.30631 -9.2253,-19.1099 -19.3438,-19.59375 -11.7977,-1.08907 -22.8018,9.51708 -22.6562,21.21875 -0.4902,4.9542 2.7848,9.23525 2.4688,14.15625 -2.8546,-1.2791 -4.6585,-3.96355 -5.3438,-6.90625 -3.8736,-11.0117 1.0765,-23.97747 10.6875,-30.1875 10.7857,-7.41154 26.7425,-4.99213 35.1875,4.84375 5.0276,5.43264 6.9445,12.95615 7.2812,20.21875 0.2164,3.5103 0.4511,8.741 4.5,10 3.3906,0.2155 4.0573,-4.3882 3.2188,-6.875 -2.484,-7.2456 -8.2327,-13.33244 -8.9062,-21.21875 -1.383,-12.05374 8.0095,-23.79926 19.9062,-25.46875 12.0652,-2.16802 24.5845,6.5075 27.25,18.34375 2.0263,7.43084 -0.4741,15.2955 -4.9688,21.3125 -4.2398,4.4631 -5.7292,11.3509 -3.3437,17.125 3.1392,8.5396 13.8608,12.47265 22.0313,8.84375 9.1139,-3.7487 12.8792,-15.2758 9.3124,-24.125 -3.9515,-8.6718 -11.9,-15.66645 -13,-25.53125 -1.6796,-11.13735 7.7413,-22.3622 19.0313,-22.4375 z"
       transform="translate(5.0870321e-7,706.23915)"
       id="path2985-0-9"
       inkscape:export-filename="../oolang.png"
       inkscape:export-xdpi="90"
       inkscape:export-ydpi="90"
       inkscape:connector-curvature="0" />
    <text
       xml:space="preserve"
       style="font-size:20px;font-style:normal;font-weight:normal;text-align:center;line-height:125%;letter-spacing:0px;word-spacing:0px;text-anchor:middle;fill:#000000;fill-opacity:1;stroke:none;font-family:Sans"
       x="1100.3466"
       y="1157.079"
       id="text3833-79-0"
       sodipodi:linespacing="125%"><tspan
         sodipodi:role="line"
         x="1100.3466"
         y="1157.079"
         id="tspan3837-9-1">Oolang</tspan></text>
    <path
       style="color:#000000;fill:#ff9f44;fill-opacity:1;fill-rule:nonzero;stroke:#a96628;stroke-width:4;stroke-miterlimit:4;stroke-opacity:1;stroke-dasharray:none;marker:none;visibility:visible;display:inline;overflow:visible;enable-background:accumulate"
       d="m 700,2 c -54.1239,0 -98,43.876095 -98,98 0,54.1239 43.8761,98 98,98 54.1239,0 98,-43.8761 98,-98 C 798,45.876095 754.1239,2 700,2 z m 27.84375,28.5 c 17.10009,-0.29779 31.61343,7.48024 31.46875,18.9375 -0.14468,11.45726 -9.19325,23.37029 -9.40625,24.375 2.06568,3.63301 4.33371,9.47646 5.25,12.6875 1.02477,3.6089 0.82137,9.48837 1.0625,11.4375 0.91629,7.43884 9.68326,8.06065 6.90625,12.03125 -2.82121,4.03088 -7.12716,-5.84291 -9.28125,-5.59375 -2.15007,0.24515 2.66128,15.0625 -1.5625,15.0625 -4.22378,0 -0.43724,-11.86759 -3.375,-12.96875 -2.94177,-1.10115 -4.23437,11.21292 -8,9.46875 -3.76564,-1.74416 4.66103,-8.71717 3.375,-11.5625 -1.28602,-2.84934 -6.20309,5.40789 -8.15625,2.28125 -1.95315,-3.12665 4.91332,-3.83476 5.21875,-5.96875 0.30543,-2.13802 -2.92031,-0.93682 -2,-3.75 0.93236,-2.8413 2.47625,0.18279 4.71875,-0.625 2.21839,-0.79974 2.44014,-3.06965 2.625,-4.90625 0.11256,-1.12125 0.29337,-5.50667 0,-9.3125 -5.18027,10.77447 -15.12435,26.01383 -21.5625,31.65625 -9.59293,8.41942 -39.61502,18.38104 -40.25,19.28125 -1.56332,2.20634 3.6128,11.10666 2.375,14.96875 -0.73544,2.29475 -14.5005,9.45789 -16.15625,11.9375 -1.65174,2.47962 1.11624,8.27611 -3.3125,7.34375 -4.12331,-0.87209 0.7924,-6.785 -1,-7.90625 -2.93776,-1.83661 -5.53854,11.61557 -8.625,10 -5.18026,-2.70467 5.86308,-11.75978 5.3125,-13.78125 -0.55058,-2.02147 -7.80315,1.2145 -7.71875,-3.375 0.0603,-3.58077 9.32255,1.26009 10.21875,-1.75 0.6832,-2.28671 -3.64494,-4.14732 -0.5625,-6 3.02617,-1.8165 2.65148,4.34375 3.9375,4.34375 1.28602,0 9.55115,-2.5842 10.375,-5.15625 0.59479,-1.84464 -1.61274,-8.51816 -2.46875,-9.125 -0.91628,-0.65507 -3.14143,0.0651 -3.53125,0.53125 -3.92237,4.71408 -5.20899,3.96494 -6.8125,4.9375 -1.55529,0.94844 -14.56368,16.85894 -28.0625,9.34375 -5.50177,-3.06637 -0.25,-15.84375 -0.25,-15.84375 0,0 -0.53125,-1.29887 -0.53125,-4.15625 0,-2.85738 3.11137,-2.72238 5.96875,-6.21875 3.32879,-4.07509 2.04434,-5.5387 11.6875,-9.875 3.37983,-1.5151 8.77007,-3.41202 14.46875,-5.4375 0.94041,-4.2479 3.04631,-10.94125 7.25,-12.0625 4.99137,-1.33023 8.13762,3.03064 9.5,5.5625 4.1193,-1.86072 7.73782,-3.80309 10.125,-5.8125 7.59156,-6.38993 13.00743,-15.14872 15.53125,-18.625 2.31886,-3.19094 5.11186,-5.82762 7.8125,-7.9375 3.70938,-3.35089 3.8014,-5.4059 1.6875,-5.375 -2.1139,0.03134 -3.63715,7.42786 -6.96875,4.84375 -3.25123,-2.5198 3.57711,-4.06929 2.21875,-5.375 -1.31014,-1.26312 -8.76511,6.38436 -10.875,3.09375 -1.71201,-2.67011 7.18583,-4.04229 6.6875,-5.65625 -0.49432,-1.61396 -8.17752,3.58591 -8.8125,-0.75 -0.5988,-4.0566 9.4393,-1.04945 9.375,-3.71875 -0.0322,-1.36519 -3.72165,0.52621 -2.78125,-3.03125 1.18556,-4.4842 5.8236,2.39153 7.9375,0.28125 0,0 1.87399,-3.40707 6.09375,-3.53125 4.23584,-0.12458 6.89462,8.28204 8.84375,9.0625 7.76437,-3.4811 10.86718,-4.98966 11.84375,-9.375 1.05695,-4.74101 0.17084,-11.16165 -17.78125,-11.21875 -18.19722,-0.05747 -47.04284,9.97646 -50.8125,8.90625 -2.42736,-0.68802 6.20759,-4.26551 17.34375,-8.0625 9.41609,-3.21224 16.33339,-8.23349 33.4375,-8.53125 z"
       transform="translate(5.0870321e-7,706.23915)"
       id="path3773-1-1"
       inkscape:export-filename="../rooibos.png"
       inkscape:export-xdpi="90"
       inkscape:export-ydpi="90"
       inkscape:connector-curvature="0" />
    <text
       xml:space="preserve"
       style="font-size:20px;font-style:normal;font-weight:normal;text-align:center;line-height:125%;letter-spacing:0px;word-spacing:0px;text-anchor:middle;fill:#000000;fill-opacity:1;stroke:none;font-family:Sans"
       x="699.51172"
       y="670.95593"
       id="text3833-7-7-9"
       sodipodi:linespacing="125%"><tspan
         sodipodi:role="line"
         x="699.51172"
         y="670.95593"
         id="tspan3837-8-6-0">Rooibos</tspan></text>
    <text
       xml:space="preserve"
       style="font-size:20.00004387px;font-style:normal;font-weight:normal;text-align:center;line-height:125%;letter-spacing:0px;word-spacing:0px;text-anchor:middle;fill:#000000;fill-opacity:1;stroke:none;font-family:Sans"
       x="499.92566"
       y="645.95734"
       id="text3833-6-3"
       sodipodi:linespacing="125%"
       transform="scale(1.0000022,0.99999781)"><tspan
         sodipodi:role="line"
         id="tspan3835-15-9"
         x="499.92566"
         y="645.95734">Flavored</tspan><tspan
         sodipodi:role="line"
         x="499.92566"
         y="670.9574"
         id="tspan3837-4-2">Rooibos</tspan></text>
    <text
       xml:space="preserve"
       style="font-size:20px;font-style:normal;font-weight:normal;text-align:center;line-height:125%;letter-spacing:0px;word-spacing:0px;text-anchor:middle;fill:#000000;fill-opacity:1;stroke:none;font-family:Sans"
       x="899.92676"
       y="1157.079"
       id="text3833-7-6"
       sodipodi:linespacing="125%"><tspan
         sodipodi:role="line"
         id="tspan3835-1-2"
         x="899.92676"
         y="1157.079">Flavored</tspan><tspan
         sodipodi:role="line"
         x="899.92676"
         y="1182.079"
         id="tspan3837-8-9">Oolang</tspan></text>
    <path
       inkscape:connector-curvature="0"
       style="color:#000000;fill:#a7acc9;fill-opacity:1;fill-rule:nonzero;stroke:#212331;stroke-width:4;stroke-miterlimit:4;stroke-opacity:1;stroke-dasharray:none;marker:none;visibility:visible;display:inline;overflow:visible;enable-background:accumulate"
       d="m 900.00004,908.23914 c -54.12394,0 -98.00004,43.8761 -98.00004,97.99996 0,54.124 43.8761,98 98.00004,98 54.1239,0 98,-43.876 98,-98 0,-54.12386 -43.8761,-97.99996 -98,-97.99996 z m 53.9375,55.5 c 1.3798,-0.066 2.7709,0.0485 4.125,0.28125 10.2413,1.53953 17.6285,12.23661 15.5937,22.375 -1.6477,4.05983 2.0308,7.71206 1.9063,11.74996 -0.4206,4.06425 -3.4576,9.17555 -8.1563,8.78125 -4.2724,-1.4787 -5.4313,-6.8266 -5.0624,-10.90625 -0.1793,-3.9808 4.1266,-5.4242 6.3437,-7.90621 3.0715,-6.14715 -0.7595,-13.9479 -6.4063,-17.03125 -7.2905,-4.36822 -17.6855,-0.0428 -19.875,8.09375 -2.1483,7.56233 3.1979,14.17981 7.5938,19.71871 5.1407,6.04165 8.7855,13.59845 8.6875,21.68745 0.196,12.3035 -8.5802,23.8091 -20.375,27.0314 -11.9269,3.6983 -25.597,-1.8381 -31.9687,-12.4375 -6.7742,-10.2696 -5.5859,-24.6906 2.1562,-34.125 4.4728,-4.02325 4.1238,-11.3668 -0.062,-15.46881 -5.3115,-5.72368 -15.727,-3.39874 -18.7187,3.625 -2.821,5.74196 0.5316,12.01831 3.3124,17.12501 3.8553,6.5948 5.4098,15.8982 0.1563,22.1875 -4.0217,5.3729 -12.6419,5.6068 -17.3125,0.9375 -5.27554,-5.0209 -4.97444,-12.6866 -5.25004,-19.4375 -0.1506,-10.30635 -9.2253,-19.10995 -19.3438,-19.59376 -11.7977,-1.08907 -22.8018,9.51711 -22.6562,21.21876 -0.4902,4.9542 2.7848,9.2353 2.4688,14.1563 -2.8546,-1.2791 -4.6585,-3.9636 -5.3438,-6.9063 -3.8736,-11.0117 1.0765,-23.97745 10.6875,-30.18751 10.7857,-7.41154 26.7425,-4.99213 35.1875,4.84376 5.02764,5.4326 6.94454,12.95615 7.28124,20.21875 0.2164,3.5103 0.4511,8.741 4.5,10 3.3906,0.2155 4.0573,-4.3882 3.2188,-6.875 -2.484,-7.2456 -8.2327,-13.3324 -8.9062,-21.21875 -1.383,-12.05375 8.0095,-23.79927 19.9062,-25.46876 12.0652,-2.16802 24.5845,6.5075 27.25,18.34375 2.0263,7.43081 -0.4741,15.29556 -4.9688,21.31256 -4.2398,4.4631 -5.7292,11.3509 -3.3437,17.125 3.1392,8.5396 13.8608,12.4726 22.0313,8.8437 9.1139,-3.7487 12.8792,-15.2758 9.3124,-24.125 -3.9515,-8.6718 -11.9,-15.66645 -13,-25.53126 -1.6796,-11.13735 7.7413,-22.3622 19.0313,-22.4375 z"
       id="path2985-0-9-1"
       inkscape:export-filename="../flavored_oolang.png"
       inkscape:export-xdpi="90"
       inkscape:export-ydpi="90" />
    <path
       style="color:#000000;fill:#7dd178;fill-opacity:1;fill-rule:nonzero;stroke:#214a1f;stroke-width:3.92156816;stroke-linecap:butt;stroke-linejoin:miter;stroke-miterlimit:4;stroke-opacity:1;stroke-dasharray:none;stroke-dashoffset:0;marker:none;visibility:visible;display:inline;overflow:visible;enable-background:accumulate"
       d="m 500,201.96875 c -54.14556,0 -98.03125,43.88569 -98.03125,98.03125 0,54.14556 43.88569,98.03125 98.03125,98.03125 54.14556,0 98.03125,-43.88569 98.03125,-98.03125 0,-54.14556 -43.88569,-98.03125 -98.03125,-98.03125 z m -73.875,49.625 c 1.6009,0.5906 19.92293,1.27985 43.65625,5.28125 L 467,273.40625 l 5.375,-16.0625 c 9.12143,1.6098 18.97331,3.70815 28.90625,6.46875 l -6,22.125 9.4375,-21.15625 c 2.82294,0.8245 5.62831,1.71595 8.4375,2.65625 6.41856,2.1406 12.53401,4.4431 18.21875,6.875 L 518.46875,298.15625 535.25,276 c 8.4024,3.8159 15.75931,7.9698 21.75,12.375 l -19.3125,24.34375 23.0625,-21.4375 c 5.61703,4.7322 9.63423,9.7432 11.65625,15 l -21.09375,17.59375 22.25,-13.5 c 0.77396,4.2965 0.19173,8.72185 -1.9375,13.28125 -5.09179,10.9047 -16.72897,19.3147 -32.09375,22.875 L 540.6875,329 l -4.09375,18.15625 c -2.27796,0.4251 -4.61412,0.75925 -7.03125,0.96875 -5.23777,0.4545 -10.77143,0.37965 -16.53125,-0.28125 l 7.40625,-26.90625 -11.875,26.28125 c -8.76058,-1.4415 -17.95502,-4.2382 -27.3125,-8.625 L 496.46875,310.5 l -19.625,25.84375 c -9.02638,-4.9979 -16.49648,-11.9675 -22.65625,-19.8125 l 16.71875,-20.34375 -19.09375,17.15625 c -4.36965,-6.0408 -8.03879,-12.4561 -11.09375,-18.8125 l 11.875,-9.75 -12.84375,7.65625 c -9.45586,-20.46982 -12.74211,-39.49945 -13.625,-40.84375 z m 22.53125,23.53125 c 47.86227,25.3884 55.23159,30.10365 95.3125,49.03125 -35.56568,-22.2954 -50.50836,-31.93693 -95.3125,-49.03125 z"
       transform="translate(5.0870321e-7,706.23915)"
       id="path4111"
       inkscape:export-filename="../flavored_green.png"
       inkscape:export-xdpi="90"
       inkscape:export-ydpi="90"
       inkscape:connector-curvature="0" />
    <path
       style="color:#000000;fill:#43923f;fill-opacity:1;fill-rule:nonzero;stroke:#214a1f;stroke-width:3.92156816;stroke-linecap:butt;stroke-linejoin:miter;stroke-miterlimit:4;stroke-opacity:1;stroke-dasharray:none;stroke-dashoffset:0;marker:none;visibility:visible;display:inline;overflow:visible;enable-background:accumulate"
       d="m 700,201.96875 c -54.14556,0 -98.03125,43.88569 -98.03125,98.03125 0,54.14556 43.88569,98.03125 98.03125,98.03125 54.14556,0 98.03125,-43.88569 98.03125,-98.03125 0,-54.14556 -43.88569,-98.03125 -98.03125,-98.03125 z m -73.875,49.625 c 1.6009,0.59058 19.92293,1.27989 43.65625,5.28125 L 667,273.40625 l 5.375,-16.0625 c 9.12143,1.60977 18.97331,3.7081 28.90625,6.46875 l -6,22.125 9.4375,-21.15625 c 2.82294,0.82453 5.62831,1.71595 8.4375,2.65625 6.41856,2.1406 12.53401,4.44304 18.21875,6.875 L 718.46875,298.15625 735.25,276 c 8.4024,3.8159 15.75931,7.96988 21.75,12.375 l -19.3125,24.34375 23.0625,-21.4375 c 5.61703,4.73224 9.63423,9.7432 11.65625,15 l -21.09375,17.59375 22.25,-13.5 c 0.77396,4.2965 0.19173,8.72185 -1.9375,13.28125 -5.09179,10.9047 -16.72897,19.3147 -32.09375,22.875 L 740.6875,329 l -4.09375,18.15625 c -2.27796,0.4251 -4.61412,0.75925 -7.03125,0.96875 -5.23777,0.4545 -10.77143,0.37965 -16.53125,-0.28125 l 7.40625,-26.90625 -11.875,26.28125 c -8.76058,-1.4415 -17.95502,-4.2382 -27.3125,-8.625 L 696.46875,310.5 l -19.625,25.84375 c -9.02638,-4.9979 -16.49648,-11.9675 -22.65625,-19.8125 l 16.71875,-20.34375 -19.09375,17.15625 c -4.36965,-6.0408 -8.03879,-12.4561 -11.09375,-18.8125 l 11.875,-9.75 -12.84375,7.65625 c -9.45586,-20.46988 -12.74211,-39.4994 -13.625,-40.84375 z m 22.53125,23.53125 c 47.86227,25.38839 55.23159,30.10365 95.3125,49.03125 -35.56568,-22.2954 -50.50836,-31.93694 -95.3125,-49.03125 z"
       transform="translate(5.0870321e-7,706.23915)"
       id="path4111-1"
       inkscape:export-filename="../green.png"
       inkscape:export-xdpi="90"
       inkscape:export-ydpi="90"
       inkscape:connector-curvature="0" />
    <path
       style="color:#000000;fill:#f5ff30;fill-opacity:1;fill-rule:nonzero;stroke:#9ba02d;stroke-width:4;stroke-linecap:butt;stroke-linejoin:miter;stroke-miterlimit:4;stroke-opacity:1;stroke-dasharray:none;stroke-dashoffset:0;marker:none;visibility:visible;display:inline;overflow:visible;enable-background:accumulate"
       d="m 1300,708.23915 c -54.1239,0 -98,43.87609 -98,98 0,54.1239 43.8761,98 98,98 54.1239,0 98,-43.8761 98,-98 0,-54.12391 -43.8761,-98 -98,-98 z m 11.402,51.48141 c 1.4368,0.21904 3.5445,4.66412 1.9473,6.56474 -1.5773,5.34482 -8.3908,7.83567 -7.4128,13.72628 4.0662,-3.13699 9.8426,-7.69873 15.4538,-9.83141 15.3318,-6.34822 33.4415,-12.2227 49.7539,-5.90513 6.9875,1.1999 12.6307,10.32063 7.0045,16.11347 -7.6267,4.73735 -12.9214,12.0894 -18.1866,19.28589 -2.787,5.99237 -10.5029,6.4326 -14.1031,11.30769 0.2621,6.12968 -0.3677,12.67909 -3.1411,18.40641 -1.0718,5.15658 -5.6686,7.58564 -6.8159,12.56411 -0.4094,4.23405 -6.298,5.06106 -5.7795,9.32884 0.9918,5.45527 7.0892,12.64594 1.6019,17.49552 -5.4517,1.33863 -8.1443,-5.72792 -7.8526,-10.11411 -2.2976,-3.38033 -8.483,-0.75791 -10.5539,-5.11987 -7.5196,-1.82821 -7.368,-10.81415 -11.025,-16.17628 -2.3587,-5.64849 -0.1401,-12.88565 -0.062,-19.06603 1.2788,-3.52583 -0.5907,-1.64172 -2.4187,-1.88461 -2.1773,0.48656 0.3391,7.06886 -0.2198,9.70577 1.7393,5.49626 -0.6791,10.80383 -2.5443,15.89359 1.8615,6.65255 -4.698,10.83382 -9.4859,13.85192 -1.6391,2.55193 -3.3452,1.36858 -5.591,0.50256 -5.1578,2.14712 -1.6407,10.39876 -6.2506,13.41218 -6.1343,1.54108 -7.4136,-7.55992 -4.3974,-11.3391 1.8024,-4.10999 3.7008,-11.16104 -2.5128,-12.43846 0.6619,-5.35864 -5.1877,-7.51965 -7.3187,-11.77885 -2.0934,-6.65272 -6.357,-13.10983 -4.9314,-20.5423 2.1644,-3.5904 -1.85,-5.96199 -4.9314,-6.56475 -8.5558,-1.41289 -11.7114,-10.05032 -16.7103,-15.89359 -5.1234,-6.61372 -16.2606,-10.3464 -15.7364,-20.13397 3.3307,-7.32887 12.4261,-10.1757 20.0082,-11.08782 20.3462,-1.16139 41.2383,5.92702 56.4442,19.38013 0.3459,-4.14113 -4.5622,-6.34755 -6.7846,-9.1718 -2.5379,-1.68385 -5.4351,-8.38454 -0.4711,-8.22949 4.5946,3.22318 6.023,10.33647 11.7161,12.46988 5.7009,-0.33593 7.0842,-8.11919 9.6743,-12.21859 0.3609,-0.77474 0.7068,-1.54963 1.0679,-2.32436 0.1657,-0.16073 0.3601,-0.21975 0.5655,-0.18846 z"
       id="path3935"
       inkscape:connector-curvature="0"
       inkscape:export-filename="../yellow.png"
       inkscape:export-xdpi="90"
       inkscape:export-ydpi="90" />
    <text
       xml:space="preserve"
       style="font-size:20px;font-style:normal;font-weight:normal;text-align:center;line-height:125%;letter-spacing:0px;word-spacing:0px;text-anchor:middle;fill:#000000;fill-opacity:1;stroke:none;font-family:Sans"
       x="1299.9512"
       y="670.95593"
       id="text3833-79-5-2"
       sodipodi:linespacing="125%"><tspan
         sodipodi:role="line"
         x="1299.9512"
         y="670.95593"
         id="tspan5725">Yellow</tspan></text>
    <path
       style="color:#000000;fill:#c5663c;fill-opacity:1;fill-rule:nonzero;stroke:#472819;stroke-width:4;stroke-linecap:butt;stroke-linejoin:miter;stroke-miterlimit:4;stroke-opacity:1;stroke-dasharray:none;stroke-dashoffset:0;marker:none;visibility:visible;display:inline;overflow:visible;enable-background:accumulate"
       d="m 1300,202 c -54.1239,0 -98,43.87609 -98,98 0,54.12391 43.8761,98 98,98 54.1239,0 98,-43.87609 98,-98 0,-54.12391 -43.8761,-98 -98,-98 z m 2.125,45.5 c 1.2726,0.0139 2.4896,0.2578 3.4688,0.8125 0.3499,0.19809 0.7879,0.7288 1.25,1.21875 0.3933,0.41674 0.9147,0.85379 1.2187,1.25 0.2466,0.32043 0.3006,0.70013 0.5313,1 0.2228,0.29057 0.607,0.42005 0.8437,0.6875 0.082,0.0941 0,0.2302 0.094,0.3125 0.9665,0.81262 1.7749,2.28542 2.625,3.3125 0.271,0.32749 0.7126,0.53135 1,0.84375 0.2648,0.28767 0.3804,0.69189 0.625,0.9375 0.2437,0.24466 0.5571,0.36032 0.8126,0.59375 0.5189,0.47452 0.8732,1.09278 1.4687,1.46875 2.7483,3.59885 5.7264,6.96021 8.25,10.78125 7.9686,0.23406 14.1365,1.01443 20.6563,2.875 0.8943,-0.0382 1.4123,0.4177 2.1562,0.375 0.2826,0.23085 0.6219,0.3956 1.1562,0.375 6.4123,2.19867 12.2614,4.81042 17.7188,7.875 5.2632,2.95576 9.7198,6.84185 14.1875,10.5625 1.5347,1.64985 3.0835,3.29365 4.7813,4.78125 0.017,0.5976 0.4752,0.42555 0.5312,0.90625 0.081,0.697 -0.8549,1.42765 -1,2.09375 0.9687,0.2441 2.0871,0.296 2.7812,0.625 -0.7558,2.3122 -2.2421,4.3395 -3.7812,6 -0.1911,0.2061 -0.2964,0.5238 -0.4688,0.6875 -0.5782,0.5487 -1.3961,0.77975 -1.8437,1.46875 -3.3035,1.9473 -6.7223,3.51645 -9.7187,5.84375 -0.4147,0.3219 -0.7624,0.74925 -1.2188,1.09375 -1.8174,1.3697 -3.6291,3.0992 -6.1562,3.625 -0.1812,0.0384 -0.7449,-0.17175 -1.1563,-0.0937 -0.5025,0.096 -0.7372,0.587 -1.3125,0.3125 -0.612,0.7381 -1.3122,1.0021 -2.4688,1.25 -1.7887,1.0415 -4.3601,1.9331 -6.625,2.6875 -4.0588,1.353 -8.4035,2.54675 -13.0312,3.46875 -1.3781,1.6273 -2.7759,3.21925 -4.2188,4.78125 -0.9931,0.6764 -2.0146,1.34655 -2.875,2.15625 -0.2741,0.0122 -0.4663,0.0944 -0.6874,0.21875 -2.1827,1.2282 -4.618,2.07505 -7.625,2.84375 -3.96,1.0119 -8.3932,1.1562 -12.1876,2.625 -1.3548,0.5247 -2.7347,1.05495 -4.625,0.78125 -0.8871,-0.1285 -3.3161,-0.8925 -3.0624,-2.3125 0.778,-0.4806 1.8279,-0.69495 2.625,-1.15625 0.8192,-0.8227 1.5053,-2.06715 1.375,-3.40625 -0.3174,-0.2223 -0.8564,-0.2293 -1.25,-0.375 -0.1148,-0.1935 -0.1821,-0.41595 -0.375,-0.53125 0,-0.9782 -0.025,-2.0336 0.375,-2.625 0.8049,-1.1905 2.9246,-0.8885 3.5,-2.25 -1.8267,-0.641 -4.5744,-0.9249 -6.7813,-1.375 -2.3901,-0.4877 -4.6454,-1.14585 -6.7187,-1.84375 -2.4844,1.9161 -8.0148,0.76075 -11.1876,-0.21875 -0.1339,-1.8038 1.7248,-1.6369 2.0938,-2.9375 -0.6709,-0.0961 -1.0033,0.76135 -1.6875,0.90625 -1.1879,0.9807 -2.4414,2.00725 -3.9375,2.78125 -0.5614,0.2903 -1.2542,0.31615 -1.8438,0.53125 -3.1404,1.1458 -6.4622,2.5426 -9.25,3.9375 -0.4212,0.0924 -0.8863,0.16255 -1.0937,0.46875 -0.8499,0.1779 -1.8713,0.47355 -2.9063,0.21875 -0.338,-0.6902 -0.4616,-1.61835 0,-2.28125 0.4053,-0.5822 1.3829,-0.6682 1.625,-1.25 -0.5422,-0.6135 -1.3602,-0.95215 -1.9374,-1.53125 -0.5479,-2.5386 2.7467,-2.6943 1.75,-4.875 -0.2986,-0.6527 -1.1696,-1.4631 -1,-2.4375 0.1149,-0.6602 0.8495,-1.33385 1.3124,-1.78125 0.5212,-0.5034 1.4215,-1.06345 0.7813,-2.03125 -0.3448,-0.5216 -1.7596,-1.66 -2.25,-1.75 -0.461,-0.0847 -1.9457,0.32835 -2.75,0.53125 -1.8872,0.4751 -4.0202,1.07555 -6,1.78125 -1.5408,0.549 -3.0742,0.9926 -4.7187,1.625 -1.2112,0.4657 -2.3696,1.1754 -3.625,1.6875 -2.4372,0.9944 -4.8573,2.1319 -7.25,3.375 -2.993,1.5552 -5.9504,3.2673 -8.9376,4.9375 -2.094,1.1706 -4.6251,2.2757 -6.9374,3.3125 -1.9524,0.3194 -3.4475,0.98195 -5.1563,0.46875 -0.049,-0.3368 -0.3713,-0.3996 -0.5313,-0.625 -0.977,-3.9263 3.2536,-5.63505 4.4063,-8.09375 0.5834,-1.2439 -1.3222,-3.1794 -0.4687,-5.0625 1.1676,-1.3238 2.8903,-2.0869 3.9062,-3.5625 0.2746,-1.8205 -0.9225,-2.7891 -0.375,-4.625 1.1144,-1.4284 3.5744,-1.50785 4.7812,-2.84375 -0.1894,-1.4999 -1.1717,-2.3852 -0.7812,-3.9375 0.2546,-1.0123 1.5597,-1.94805 1.4688,-2.84375 -0.094,-0.9417 -2.4004,-1.791 -3,-2.375 -0.2203,-0.2143 -0.2335,-0.54125 -0.5313,-0.71875 0.4638,-2.80225 -0.8606,-3.92699 -2.3125,-5 -2.0728,-2.83578 -0.1773,-6.65683 -1.3125,-10.3125 -0.9096,-2.92943 -4.4279,-2.976 -6.25,-5.09375 -1.1504,-2.13446 -1.4577,-4.47556 -1.3125,-7.3125 1.7629,-1.22551 3.7549,0.60498 5.4688,1.0625 3.9315,2.30017 8.8266,5.54438 13.8124,8.03125 3.7653,1.42362 7.3654,2.97749 10.8438,4.6875 1.9537,0.47904 3.7121,1.84245 5.4688,2.6875 0.8757,0.42156 1.7146,0.83509 2.5624,1.3125 2.7016,1.52156 5.964,3.31347 9.5313,3.78125 0.3754,0.0492 0.7438,0.1808 1.0937,0.25 1.2827,0.25415 2.6233,0.63415 2.1563,-1.3125 0.5595,-1.08395 1.5511,-1.77406 2.0937,-2.875 0.2494,-0.95872 0.2948,-1.9665 0.5313,-2.90625 0.052,-0.20742 0.2435,-0.41053 0.3125,-0.625 0.1658,-0.50825 0.093,-1.10777 0.2188,-1.625 0.078,-0.31946 0.3019,-0.63538 0.375,-0.9375 0.1135,-0.46586 0.055,-0.9146 0.1562,-1.375 0.4784,-2.18712 1.5292,-3.48639 3.1562,-4.6875 2.5126,-1.22808 5.0673,-2.90045 7.9376,-3.84375 1.547,-0.50825 3.1502,-0.86845 4.4062,-1.875 0.1689,-0.54036 0.6128,-0.83432 0.7812,-1.46875 0.3826,-1.43968 -0.1642,-3.45887 0.1563,-5 0.087,-0.41867 0.4177,-0.7946 0.3125,-1.21875 1.0257,-1.69715 3.1721,-2.26152 3.75,-4.40625 0.3194,-2.12483 -0.051,-5.4988 1.3125,-6.9375 1.5414,-0.77256 3.8165,-1.36695 5.9375,-1.34375 z"
       transform="translate(5.0870321e-7,706.23915)"
       id="path5729"
       inkscape:connector-curvature="0"
       inkscape:export-filename="../pu_erh.png"
       inkscape:export-xdpi="90"
       inkscape:export-ydpi="90" />
    <text
       xml:space="preserve"
       style="font-size:20px;font-style:normal;font-weight:normal;text-align:center;line-height:125%;letter-spacing:0px;word-spacing:0px;text-anchor:middle;fill:#000000;fill-opacity:1;stroke:none;font-family:Sans"
       x="1300.3467"
       y="1157.079"
       id="text3833-79-0-9"
       sodipodi:linespacing="125%"><tspan
         sodipodi:role="line"
         x="1300.3467"
         y="1157.079"
         id="tspan3837-9-1-5">Pu Erh</tspan></text>
  </g>
</svg>
