<?xml version="1.0" encoding="UTF-8" standalone="no"?>
<!-- Created with Inkscape (http://www.inkscape.org/) -->

<svg
   xmlns:dc="http://purl.org/dc/elements/1.1/"
   xmlns:cc="http://creativecommons.org/ns#"
   xmlns:rdf="http://www.w3.org/1999/02/22-rdf-syntax-ns#"
   xmlns:svg="http://www.w3.org/2000/svg"
   xmlns="http://www.w3.org/2000/svg"
   xmlns:xlink="http://www.w3.org/1999/xlink"
   xmlns:sodipodi="http://sodipodi.sourceforge.net/DTD/sodipodi-0.dtd"
   xmlns:inkscape="http://www.inkscape.org/namespaces/inkscape"
   width="1200"
   height="400"
   id="svg2"
   version="1.1"
   inkscape:version="0.48.4 r9939"
   sodipodi:docname="teas.svg">
  <defs
     id="defs4">
    <linearGradient
       inkscape:collect="always"
       xlink:href="#linearGradient4477"
       id="linearGradient3028"
       gradientUnits="userSpaceOnUse"
       gradientTransform="matrix(0.64933,0,0,0.64933,-66.1434,-19.1308)"
       x1="101.36"
       y1="295.88"
       x2="590.29999"
       y2="295.88" />
    <linearGradient
       id="linearGradient4477"
       x1="101.36"
       gradientUnits="userSpaceOnUse"
       y1="295.88"
       gradientTransform="matrix(0.64933,0,0,0.64933,6.4406,-9.7506)"
       x2="590.29999"
       y2="295.88">
      <stop
         id="stop2525"
         stop-color="#c4202a"
         offset="0" />
      <stop
         id="stop2527"
         stop-color="#d02531"
         offset="1" />
    </linearGradient>
    <linearGradient
       y2="295.88"
       x2="590.29999"
       y1="295.88"
       x1="101.36"
       gradientTransform="matrix(0.26095415,0,0,0.26095415,409.75316,729.02806)"
       gradientUnits="userSpaceOnUse"
       id="linearGradient3060"
       xlink:href="#linearGradient4477"
       inkscape:collect="always" />
    <linearGradient
       y2="295.88"
       x2="590.29999"
       y1="295.88"
       x1="101.36"
       gradientTransform="matrix(0.26095415,0,0,0.26095415,409.75316,729.02806)"
       gradientUnits="userSpaceOnUse"
       id="linearGradient3060-3"
       xlink:href="#linearGradient4477-0"
       inkscape:collect="always" />
    <linearGradient
       id="linearGradient4477-0"
       x1="101.36"
       gradientUnits="userSpaceOnUse"
       y1="295.88"
       gradientTransform="matrix(0.64933,0,0,0.64933,6.4406,-9.7506)"
       x2="590.29999"
       y2="295.88">
      <stop
         id="stop2525-1"
         stop-color="#c4202a"
         offset="0" />
      <stop
         id="stop2527-3"
         stop-color="#d02531"
         offset="1" />
    </linearGradient>
    <linearGradient
       y2="295.88"
       x2="590.29999"
       y1="295.88"
       x1="101.36"
       gradientTransform="matrix(0.26095415,0,0,0.26095415,609.75316,729.02806)"
       gradientUnits="userSpaceOnUse"
       id="linearGradient3890"
       xlink:href="#linearGradient4477-0"
       inkscape:collect="always" />
    <linearGradient
       inkscape:collect="always"
       xlink:href="#linearGradient3693"
       id="linearGradient3239"
       gradientUnits="userSpaceOnUse"
       gradientTransform="matrix(0.3706206,0,-0.69510463,0.71687273,346.86408,-189.01924)"
       x1="251.96001"
       y1="562.47998"
       x2="277.76001"
       y2="590.94" />
    <linearGradient
       id="linearGradient3693">
      <stop
         id="stop3695"
         stop-color="#969aa4"
         offset="0" />
      <stop
         id="stop3697"
         stop-color="#cdcdcf"
         offset="1" />
    </linearGradient>
    <linearGradient
       y2="590.94"
       x2="277.76001"
       y1="562.47998"
       x1="251.96001"
       gradientTransform="matrix(0.0804804,0,-0.15094225,0.198202,493.00285,899.71294)"
       gradientUnits="userSpaceOnUse"
       id="linearGradient3257"
       xlink:href="#linearGradient3693"
       inkscape:collect="always" />
    <linearGradient
       inkscape:collect="always"
       xlink:href="#linearGradient3693"
       id="linearGradient3941"
       gradientUnits="userSpaceOnUse"
       gradientTransform="matrix(0.08422797,0,-0.15797087,0.24067101,494.33826,885.96738)"
       x1="251.96001"
       y1="562.47998"
       x2="277.76001"
       y2="590.94" />
    <linearGradient
       inkscape:collect="always"
       xlink:href="#linearGradient3693-4"
       id="linearGradient3941-6"
       gradientUnits="userSpaceOnUse"
       gradientTransform="matrix(0.08422797,0,-0.15797087,0.24067101,494.33826,885.96738)"
       x1="251.96001"
       y1="562.47998"
       x2="277.76001"
       y2="590.94" />
    <linearGradient
       id="linearGradient3693-4">
      <stop
         id="stop3695-2"
         stop-color="#969aa4"
         offset="0" />
      <stop
         id="stop3697-1"
         stop-color="#cdcdcf"
         offset="1" />
    </linearGradient>
    <linearGradient
       y2="590.94"
       x2="277.76001"
       y1="562.47998"
       x1="251.96001"
       gradientTransform="matrix(0.08422797,0,-0.15797087,0.24067101,694.33826,885.9674)"
       gradientUnits="userSpaceOnUse"
       id="linearGradient3958"
       xlink:href="#linearGradient3693-4"
       inkscape:collect="always" />
    <radialGradient
       inkscape:collect="always"
       xlink:href="#radialGradient4497"
       id="radialGradient3212"
       gradientUnits="userSpaceOnUse"
       gradientTransform="matrix(1.8188e-8,-1.1614,0.7424,0,-158.89,656.74)"
       cx="376"
       cy="536.45001"
       r="37.778" />
    <radialGradient
       id="radialGradient4497"
       gradientUnits="userSpaceOnUse"
       cy="536.45001"
       cx="376"
       gradientTransform="matrix(1.8188e-8,-1.1614,0.7424,0,-158.89,1339.1)"
       r="37.778">
      <stop
         id="stop4493"
         stop-color="#b88100"
         offset="0" />
      <stop
         id="stop4495"
         stop-color="#b88100"
         offset="1" />
    </radialGradient>
    <radialGradient
       r="37.778"
       cy="536.45001"
       cx="376"
       gradientTransform="matrix(0,-0.44384366,0.28371752,0,-57.368047,976.28617)"
       gradientUnits="userSpaceOnUse"
       id="radialGradient3249"
       xlink:href="#radialGradient4497"
       inkscape:collect="always" />
  </defs>
  <sodipodi:namedview
     id="base"
     pagecolor="#ffffff"
     bordercolor="#666666"
     borderopacity="1.0"
     inkscape:pageopacity="0.0"
     inkscape:pageshadow="2"
     inkscape:zoom="0.70710678"
     inkscape:cx="600"
     inkscape:cy="199.92041"
     inkscape:document-units="px"
     inkscape:current-layer="layer1"
     showgrid="false"
     inkscape:showpageshadow="false"
     fit-margin-top="0"
     fit-margin-left="0"
     fit-margin-right="0"
     fit-margin-bottom="0"
     showguides="true"
     inkscape:guide-bbox="true"
     inkscape:window-width="1364"
     inkscape:window-height="747"
     inkscape:window-x="0"
     inkscape:window-y="19"
     inkscape:window-maximized="0" />
  <metadata
     id="metadata7">
    <rdf:RDF>
      <cc:Work
         rdf:about="">
        <dc:format>image/svg+xml</dc:format>
        <dc:type
           rdf:resource="http://purl.org/dc/dcmitype/StillImage" />
        <dc:title></dc:title>
      </cc:Work>
    </rdf:RDF>
  </metadata>
  <g
     inkscape:label="Layer 1"
     inkscape:groupmode="layer"
     id="layer1"
     transform="translate(-5.0870321e-7,-706.23915)">
    <path
       style="color:#000000;fill:#d5d5d5;fill-opacity:1;fill-rule:nonzero;stroke:#5b5b5b;stroke-width:4;stroke-miterlimit:4;stroke-opacity:1;stroke-dasharray:none;marker:none;visibility:visible;display:inline;overflow:visible;enable-background:accumulate"
       d="M 100 202 C 45.876095 202 2 245.8761 2 300 C 2 354.1239 45.876095 398 100 398 C 154.1239 398 198 354.1239 198 300 C 198 245.8761 154.1239 202 100 202 z M 29.03125 248.375 C 29.5476 248.37917 30.35919 248.47099 31.40625 248.625 C 32.10432 248.72738 32.91058 248.86759 33.78125 249.03125 C 34.21659 249.11329 34.656 249.18455 35.125 249.28125 C 36.06299 249.47401 37.05904 249.72081 38.09375 249.96875 C 39.12518 250.21601 40.2041 250.48325 41.28125 250.78125 C 43.98002 251.52823 46.75359 252.41656 49.1875 253.4375 C 49.67831 253.64331 50.16414 253.87842 50.625 254.09375 L 58.28125 257.65625 L 58.6875 257.625 L 58.71875 257.65625 L 63.5625 257.5 C 70.07172 257.30575 72.76138 257.64174 75.5 259.21875 C 75.36103 258.82707 75.15389 258.38287 74.875 257.84375 C 75.12941 258.32619 75.46214 258.85303 75.8125 259.40625 C 76.00246 259.52165 76.1819 259.65361 76.375 259.78125 C 79.1689 261.6272 79.21483 261.65689 87.03125 273.6875 L 92.0625 281.46875 L 96 281.46875 C 96.27428 281.46875 96.570613 281.4507 96.84375 281.4375 C 97.03519 281.4282 97.21466 281.42245 97.40625 281.40625 C 97.46754 281.40085 97.53245 281.41225 97.59375 281.40625 C 97.91217 281.37568 98.24106 281.3006 98.5625 281.25 C 98.5736 281.248 98.58265 281.252 98.59375 281.25 C 99.25171 281.14499 99.905969 281.01026 100.59375 280.8125 C 100.60175 280.8101 100.617 280.8145 100.625 280.8125 C 100.92068 280.72704 101.22705 280.63535 101.53125 280.53125 C 101.58314 280.51355 101.6353 280.48705 101.6875 280.46875 C 102.02891 280.34876 102.36398 280.20709 102.71875 280.0625 C 102.73775 280.0549 102.76235 280.0705 102.78125 280.0625 C 103.10459 279.92975 103.4448 279.77915 103.78125 279.625 C 103.83288 279.6012 103.8856 279.55545 103.9375 279.53125 C 104.29336 279.3656 104.65849 279.19048 105.03125 279 C 105.06826 278.981 105.11895 278.9567 105.15625 278.9375 C 105.54366 278.73778 105.93567 278.5401 106.34375 278.3125 C 106.37015 278.2977 106.411 278.2648 106.4375 278.25 C 106.7702 278.06354 107.12086 277.86187 107.46875 277.65625 C 107.57161 277.59534 107.67699 277.53135 107.78125 277.46875 C 108.15591 277.24391 108.54379 276.99743 108.9375 276.75 C 109.02547 276.69467 109.12975 276.65025 109.21875 276.59375 C 109.63442 276.32991 110.0615 276.03948 110.5 275.75 C 110.57734 275.6989 110.6719 275.64565 110.75 275.59375 C 111.21395 275.28544 111.69619 274.96259 112.1875 274.625 C 112.24872 274.58283 112.3133 274.5426 112.375 274.5 C 112.89113 274.1439 113.42038 273.7642 113.96875 273.375 C 114.01358 273.34316 114.08 273.2821 114.125 273.25 C 114.7013 272.84008 115.29198 272.41623 115.90625 271.96875 C 115.92945 271.95175 115.94555 271.9545 115.96875 271.9375 C 116.1951 271.77246 116.42451 271.57647 116.65625 271.40625 C 117.08178 271.09357 117.4932 270.79926 117.9375 270.46875 C 118.52224 270.03383 119.09339 269.63003 119.65625 269.21875 C 120.09261 268.89978 120.5469 268.58519 120.96875 268.28125 C 121.81986 267.66827 122.62109 267.07868 123.40625 266.53125 C 123.52046 266.45154 123.60605 266.3908 123.71875 266.3125 C 124.16975 265.99951 124.57424 265.7265 125 265.4375 C 125.34118 265.20571 125.6761 264.96571 126 264.75 C 126.23946 264.5906 126.45792 264.46284 126.6875 264.3125 C 127.64641 263.68426 128.54408 263.11516 129.3125 262.65625 C 129.43382 262.58381 129.54006 262.5055 129.65625 262.4375 C 129.84336 262.32788 130.01405 262.2229 130.1875 262.125 C 130.2116 262.1115 130.2262 262.10705 130.25 262.09375 C 130.49347 261.9571 130.72271 261.83099 130.9375 261.71875 C 131.0005 261.68575 131.0645 261.6558 131.125 261.625 C 131.46108 261.45335 131.74481 261.32275 132 261.21875 C 132.06861 261.19065 132.1249 261.17935 132.1875 261.15625 C 132.33079 261.10358 132.45209 261.05695 132.5625 261.03125 C 132.67998 261.00295 132.7952 260.998 132.875 261 C 132.91575 261.0021 132.9699 260.9894 133 261 C 133.0308 261.0083 133.0422 261.0432 133.0625 261.0625 C 133.0709 261.0708 133.09175 261.07575 133.09375 261.09375 C 133.09945 261.14807 133.0475 261.24261 133 261.375 C 132.96864 261.46142 132.926 261.57373 132.875 261.6875 C 132.82317 261.80281 132.7573 261.92353 132.6875 262.0625 C 132.6855 262.0659 132.6895 262.09075 132.6875 262.09375 C 132.40132 262.66238 131.97094 263.39771 131.46875 264.1875 C 130.96427 264.9809 130.40856 265.93917 129.9375 266.84375 C 129.4712 267.74573 129.0789 268.60843 128.875 269.1875 C 128.56654 270.05772 127.86178 271.61437 127.09375 273.09375 C 127.09135 273.09815 127.0645 273.08875 127.0625 273.09375 C 126.80887 273.58195 126.5613 274.06007 126.3125 274.5 C 126.3101 274.5044 126.3145 274.52625 126.3125 274.53125 C 125.40687 276.13219 124.86058 277.91007 124.71875 278.375 C 125.04444 278.46298 125.68347 278.42318 126.4375 278.28125 C 127.51332 278.08112 132.05777 277.79075 136.53125 277.625 C 141.00269 277.45924 144.83762 277.23322 145.0625 277.09375 C 145.28942 276.95427 146.24338 276.69902 147.1875 276.53125 C 148.13164 276.36346 152.35443 275.28125 156.5625 274.125 C 165.89643 271.55984 171.59375 270.33124 171.59375 270.875 C 171.59375 271.09938 169.34509 273.84567 166.59375 276.96875 C 166.22958 277.38155 165.90311 277.76077 165.5625 278.15625 C 165.5545 278.15825 165.53875 278.1862 165.53125 278.1875 C 164.85828 278.95172 164.27449 279.63634 163.78125 280.21875 C 162.74692 281.47304 161.95 282.52823 161.6875 282.96875 C 161.63465 283.06836 161.5625 283.1431 161.5625 283.1875 C 161.5625 283.37953 161.15776 283.76585 160.53125 284.21875 C 160.28235 284.39903 159.99043 284.59582 159.6875 284.78125 C 159.53462 284.8745 159.38058 284.9718 159.21875 285.0625 C 159.00389 285.18295 158.80444 285.29689 158.625 285.40625 C 158.6116 285.41475 158.60695 285.4295 158.59375 285.4375 C 158.07988 285.75388 157.69891 286.04446 157.4375 286.34375 C 157.20591 286.60351 157.05515 286.88667 156.96875 287.1875 C 156.90401 287.43423 156.875 287.69457 156.875 288 C 156.875 288.12811 156.88 288.26028 156.875 288.375 C 156.8705 288.48986 156.85435 288.58519 156.84375 288.6875 C 156.83315 288.78535 156.79905 288.88155 156.78125 288.96875 C 156.78051 288.97225 156.78197 289 156.78125 289 C 156.76315 289.08659 156.74555 289.1733 156.71875 289.25 C 156.6621 289.41298 156.57444 289.5315 156.46875 289.65625 C 156.41725 289.71778 156.3782 289.79015 156.3125 289.84375 C 155.72038 290.32772 154.52887 290.50404 152.125 290.71875 C 151.34914 290.79315 150.72863 290.8625 150.25 290.9375 C 149.77075 291.01903 149.4022 291.1317 149.15625 291.25 C 149.0065 291.32364 148.8949 291.4059 148.8125 291.5 C 148.7911 291.5258 148.7673 291.56615 148.75 291.59375 C 148.7425 291.60595 148.757 291.6128 148.75 291.625 C 148.7392 291.6449 148.6965 291.63555 148.6875 291.65625 C 148.6322 291.77908 148.625 291.92763 148.625 292.09375 C 148.625 292.17505 148.60925 292.26365 148.59375 292.34375 C 148.56292 292.50397 148.5225 292.66093 148.4375 292.8125 C 148.26719 293.11517 147.98311 293.39329 147.65625 293.625 C 147.4931 293.74139 147.31216 293.8475 147.125 293.9375 C 147.03127 293.9816 146.94165 294.0255 146.84375 294.0625 C 146.25757 294.2855 145.60739 294.37075 145.03125 294.21875 C 144.90028 294.18475 144.79115 294.16725 144.6875 294.15625 C 144.63245 294.15525 144.57935 294.1242 144.53125 294.125 C 144.31033 294.1331 144.1565 294.22235 144.0625 294.40625 C 144.0397 294.45135 144.0164 294.5045 144 294.5625 C 143.9471 294.7445 143.9375 294.9836 143.9375 295.3125 C 143.9375 295.4178 143.91825 295.526 143.90625 295.625 C 143.89405 295.7204 143.86675 295.81625 143.84375 295.90625 C 143.82035 295.99585 143.7843 296.1035 143.75 296.1875 C 143.28897 297.3261 141.83359 297.9375 139.53125 297.9375 C 138.41283 297.9375 137.87223 298.0402 137.625 298.375 L 137.59375 298.34375 C 137.53009 298.42595 137.49575 298.54495 137.46875 298.65625 C 137.44525 298.75605 137.4375 298.84545 137.4375 298.96875 C 137.4375 299.07825 137.4465 299.18125 137.4375 299.28125 C 137.4289 299.37735 137.3921 299.4745 137.375 299.5625 C 137.37426 299.5635 137.37574 299.59375 137.375 299.59375 C 137.3575 299.68125 137.3385 299.76375 137.3125 299.84375 C 137.25878 300.00515 137.18475 300.15255 137.09375 300.28125 C 137.04861 300.34445 136.992 300.41275 136.9375 300.46875 C 136.8232 300.58505 136.68912 300.668 136.53125 300.75 C 135.91023 301.0788 134.9458 301.1556 133.5625 301 C 132.46174 300.877 131.83959 300.8375 131.46875 300.9375 L 131.46875 300.90625 C 131.29081 300.95505 131.16755 301.0531 131.09375 301.1875 C 131.09815 301.1885 131.12 301.1875 131.125 301.1875 C 131.03227 301.3461 130.98115 301.58415 130.96875 301.90625 C 130.96575 302.01635 130.96875 302.1179 130.96875 302.25 C 130.96845 302.4026 130.9476 302.53125 130.9375 302.65625 C 130.93724 302.65725 130.93776 302.6875 130.9375 302.6875 C 130.9275 302.8108 130.92795 302.901 130.90625 303 C 130.90552 303.001 130.90698 303.03125 130.90625 303.03125 C 130.88425 303.12835 130.8485 303.20625 130.8125 303.28125 C 130.795 303.31635 130.7711 303.37525 130.75 303.40625 C 130.7284 303.43825 130.7131 303.44175 130.6875 303.46875 C 130.6855 303.46975 130.6895 303.5 130.6875 303.5 C 130.6616 303.527 130.62385 303.5405 130.59375 303.5625 C 130.36628 303.7357 130.0067 303.78125 129.46875 303.78125 C 129.36992 303.78125 129.2787 303.8025 129.1875 303.8125 C 129.09838 303.8195 129.0192 303.82775 128.9375 303.84375 C 128.8507 303.86075 128.767 303.88125 128.6875 303.90625 C 128.3186 304.02685 128.05307 304.25925 127.8125 304.59375 L 127.78125 304.5625 C 127.74016 304.6209 127.69395 304.71625 127.65625 304.78125 C 127.61497 304.85475 127.57105 304.917 127.53125 305 C 127.49286 305.0822 127.4724 305.158 127.4375 305.25 C 127.37986 305.4003 127.3105 305.53435 127.25 305.65625 C 127.248 305.65725 127.252 305.6875 127.25 305.6875 C 127.18949 305.8085 127.1318 305.904 127.0625 306 C 127.02875 306.046 126.9744 306.11625 126.9375 306.15625 C 126.74185 306.37395 126.49813 306.50375 126.15625 306.59375 C 125.74999 306.70035 125.2041 306.71875 124.4375 306.71875 C 124.09465 306.71875 123.82575 306.732 123.5625 306.75 C 123.51763 306.751 123.4802 306.75 123.4375 306.75 C 123.35466 306.757 123.2626 306.77125 123.1875 306.78125 C 123.07428 306.79625 122.9721 306.82375 122.875 306.84375 C 122.58395 306.90605 122.35668 306.9986 122.1875 307.125 C 122.04064 307.23395 121.92525 307.37228 121.84375 307.53125 C 121.83835 307.54225 121.84875 307.5515 121.84375 307.5625 C 121.8019 307.65 121.7788 307.73475 121.75 307.84375 C 121.71976 307.95745 121.6627 308.06525 121.625 308.15625 C 121.58754 308.24735 121.5488 308.33625 121.5 308.40625 C 121.4756 308.44125 121.4656 308.47 121.4375 308.5 C 121.2418 308.7115 120.93272 308.79325 120.46875 308.78125 C 120.33732 308.77825 120.1926 308.768 120.03125 308.75 C 119.8701 308.731 119.69475 308.7185 119.5 308.6875 C 119.35255 308.6625 119.20416 308.637 119.0625 308.625 C 118.93703 308.614 118.83688 308.59375 118.71875 308.59375 C 118.70285 308.59345 118.67185 308.59395 118.65625 308.59375 C 118.39284 308.59275 118.15236 308.61825 117.9375 308.65625 L 117.9375 308.625 C 117.79287 308.6501 117.67382 308.708 117.5625 308.75 C 117.5506 308.751 117.54295 308.74 117.53125 308.75 C 117.43485 308.7886 117.34495 308.85325 117.28125 308.90625 C 117.26065 308.92525 117.23855 308.9195 117.21875 308.9375 C 117.20205 308.9575 117.2 308.98 117.1875 309 C 117.07708 309.18 116.70552 309.35095 116.21875 309.46875 C 115.97558 309.52875 115.6992 309.591 115.40625 309.625 C 115.26308 309.641 115.0872 309.64625 114.9375 309.65625 C 114.78407 309.66525 114.62547 309.6875 114.46875 309.6875 C 114.21562 309.6875 114.01853 309.6765 113.8125 309.6875 C 112.64755 309.7544 112.1368 310.04385 111.875 310.71875 C 111.8897 310.73175 111.9233 310.739 111.9375 310.75 C 111.80945 311.1484 111.55268 311.4765 111.21875 311.6875 C 110.91066 311.9042 110.51687 312 110.0625 312 C 109.16772 312 108.52901 312.66345 108.125 314.21875 C 107.9698 317.75275 107.26889 321.47435 107.96875 324.84375 C 108.34191 327.53025 108.0978 330.29875 108.0625 333.03125 C 108.0731 333.20385 108.08285 333.35605 108.09375 333.53125 C 108.18149 334.94315 108.241 336.2248 108.3125 337.5 C 108.43243 338.242 108.60563 338.9641 108.84375 339.6875 C 109.25368 341.4862 109.03322 343.1708 108.65625 344.8125 C 108.9486 352.9005 108.75602 357.79545 108.03125 362.53125 C 107.08307 368.72285 106.79635 369.37565 105.5625 367.96875 C 104.93239 367.25115 104.51509 365.2353 104.3125 361.625 C 104.12204 358.2594 103.55144 355.0563 102.71875 352.8125 C 101.91644 350.6496 101.25037 347.02455 100.96875 343.40625 C 100.44199 336.60625 99.076677 333.3709 94.9375 328.8125 C 93.71783 327.4683 93.07626 326.7668 92.53125 326.5 L 92.03125 325.9375 C 91.80992 325.7574 91.58957 325.6079 91.375 325.4375 C 91.55617 325.9214 91.61882 326.418 91.4375 326.5 C 91.06471 326.6699 90.23803 327.093 89.59375 327.125 C 88.94745 327.1593 88.50644 326.3542 88.21875 325.8125 C 87.65373 324.753 87.75335 323.4291 87.78125 323.125 C 87.78125 323.125 87.68848 323.05695 87.28125 322.46875 C 86.90035 320.89605 85.58332 318.7307 82.5625 314.5625 C 74.88182 303.9643 70.47058 295.43371 68.03125 286.46875 C 67.32821 283.88536 65.87818 280.29703 64.8125 278.5 C 62.74595 275.02318 61.53628 271.98747 60.09375 266.75 C 59.67179 265.21544 59.1676 263.89881 58.40625 262.65625 C 58.29581 262.47637 58.15297 262.3012 58.03125 262.125 C 57.91552 261.95718 57.78306 261.79007 57.65625 261.625 C 57.64785 261.6141 57.66425 261.60465 57.65625 261.59375 C 57.37033 261.22417 57.03682 260.82893 56.6875 260.46875 C 56.53908 260.31634 56.37992 260.18271 56.21875 260.03125 C 55.8901 259.72141 55.54294 259.40255 55.15625 259.09375 C 55.11924 259.06435 55.06885 259.0294 55.03125 259 C 54.64653 258.69754 54.22862 258.39916 53.78125 258.09375 C 53.72743 258.05714 53.6797 258.0367 53.625 258 C 53.48513 257.90604 53.33374 257.782 53.1875 257.6875 C 53.07117 257.61261 52.93296 257.54405 52.8125 257.46875 C 52.55775 257.30913 52.30509 257.16177 52.03125 257 C 52.00855 256.9866 51.99155 256.9509 51.96875 256.9375 C 51.58647 256.71279 51.17113 256.48005 50.75 256.25 C 50.51648 256.12269 50.24595 256.00429 50 255.875 C 49.77958 255.75907 49.54322 255.61768 49.3125 255.5 C 48.8143 255.24626 48.29804 255.01317 47.75 254.75 C 47.19544 254.48373 46.62572 254.21516 46.0625 253.96875 C 42.66787 252.48444 39.16646 251.33594 36.1875 250.5 C 31.71571 249.24567 28.40925 248.67974 28.40625 248.53125 C 28.40617 248.52785 28.40588 248.503 28.40625 248.5 C 28.40595 248.4887 28.4315 248.5101 28.4375 248.5 C 28.45588 248.4719 28.4925 248.42265 28.5625 248.40625 C 28.61393 248.39565 28.6745 248.41125 28.75 248.40625 C 28.82558 248.40085 28.93285 248.37427 29.03125 248.375 z M 89.8125 324.21875 L 89.59375 324.28125 C 89.61604 324.72185 89.5843 325.14555 89.25 325.40625 C 89.639 325.42845 89.81245 325.75435 90.03125 326.03125 C 89.93604 325.86145 90.10959 325.70095 90.375 325.53125 L 89.71875 324.8125 C 89.71875 324.8125 89.84437 324.5686 90.09375 324.4375 C 90.00883 324.3736 89.8946 324.27975 89.8125 324.21875 z "
       transform="translate(5.0870321e-7,706.23915)"
       id="path2985"
       inkscape:export-filename="../flavored_white.png"
       inkscape:export-xdpi="90"
       inkscape:export-ydpi="90" />
    <path
       style="color:#000000;fill:#a6a6a6;fill-opacity:1;fill-rule:nonzero;stroke:#5b5b5b;stroke-width:4;stroke-miterlimit:4;stroke-opacity:1;stroke-dasharray:none;marker:none;visibility:visible;display:inline;overflow:visible;enable-background:accumulate"
       d="M 300 202 C 245.8761 202 202 245.8761 202 300 C 202 354.1239 245.8761 398 300 398 C 354.1239 398 398 354.1239 398 300 C 398 245.8761 354.1239 202 300 202 z M 229.03125 248.375 C 229.5476 248.37917 230.35919 248.47099 231.40625 248.625 C 232.10432 248.72738 232.91058 248.86759 233.78125 249.03125 C 234.21659 249.11329 234.656 249.18455 235.125 249.28125 C 236.06299 249.47401 237.05904 249.72081 238.09375 249.96875 C 239.12518 250.21601 240.2041 250.48325 241.28125 250.78125 C 243.98002 251.52823 246.75359 252.41656 249.1875 253.4375 C 249.67831 253.64331 250.16414 253.87842 250.625 254.09375 L 258.28125 257.65625 L 258.6875 257.625 L 258.71875 257.65625 L 263.5625 257.5 C 270.07172 257.30575 272.76138 257.64174 275.5 259.21875 C 275.36103 258.82707 275.15389 258.38287 274.875 257.84375 C 275.12941 258.32619 275.46214 258.85303 275.8125 259.40625 C 276.00246 259.52165 276.1819 259.65361 276.375 259.78125 C 279.1689 261.6272 279.21483 261.65689 287.03125 273.6875 L 292.0625 281.46875 L 296 281.46875 C 296.27428 281.46875 296.57061 281.4507 296.84375 281.4375 C 297.03519 281.4282 297.21466 281.42245 297.40625 281.40625 C 297.46754 281.40085 297.53245 281.41225 297.59375 281.40625 C 297.91217 281.37568 298.24106 281.3006 298.5625 281.25 C 298.5736 281.248 298.58265 281.252 298.59375 281.25 C 299.25171 281.14499 299.90597 281.01026 300.59375 280.8125 C 300.60175 280.8101 300.617 280.8145 300.625 280.8125 C 300.92068 280.72704 301.22705 280.63535 301.53125 280.53125 C 301.58314 280.51355 301.6353 280.48705 301.6875 280.46875 C 302.02891 280.34876 302.36398 280.20709 302.71875 280.0625 C 302.73775 280.0549 302.76235 280.0705 302.78125 280.0625 C 303.10459 279.92975 303.4448 279.77915 303.78125 279.625 C 303.83288 279.6012 303.8856 279.55545 303.9375 279.53125 C 304.29336 279.3656 304.65849 279.19048 305.03125 279 C 305.06826 278.981 305.11895 278.9567 305.15625 278.9375 C 305.54366 278.73778 305.93567 278.5401 306.34375 278.3125 C 306.37015 278.2977 306.411 278.2648 306.4375 278.25 C 306.7702 278.06354 307.12086 277.86187 307.46875 277.65625 C 307.57161 277.59534 307.67699 277.53135 307.78125 277.46875 C 308.15591 277.24391 308.54379 276.99743 308.9375 276.75 C 309.02547 276.69467 309.12975 276.65025 309.21875 276.59375 C 309.63442 276.32991 310.0615 276.03948 310.5 275.75 C 310.57734 275.6989 310.6719 275.64565 310.75 275.59375 C 311.21395 275.28544 311.69619 274.96259 312.1875 274.625 C 312.24872 274.58283 312.3133 274.5426 312.375 274.5 C 312.89113 274.1439 313.42038 273.7642 313.96875 273.375 C 314.01358 273.34316 314.08 273.2821 314.125 273.25 C 314.7013 272.84008 315.29198 272.41623 315.90625 271.96875 C 315.92945 271.95175 315.94555 271.9545 315.96875 271.9375 C 316.1951 271.77246 316.42451 271.57647 316.65625 271.40625 C 317.08178 271.09357 317.4932 270.79926 317.9375 270.46875 C 318.52224 270.03383 319.09339 269.63003 319.65625 269.21875 C 320.09261 268.89978 320.5469 268.58519 320.96875 268.28125 C 321.81986 267.66827 322.62109 267.07868 323.40625 266.53125 C 323.52046 266.45154 323.60605 266.3908 323.71875 266.3125 C 324.16975 265.99951 324.57424 265.7265 325 265.4375 C 325.34118 265.20571 325.6761 264.96571 326 264.75 C 326.23946 264.5906 326.45792 264.46284 326.6875 264.3125 C 327.64641 263.68426 328.54408 263.11516 329.3125 262.65625 C 329.43382 262.58381 329.54006 262.5055 329.65625 262.4375 C 329.84336 262.32788 330.01405 262.2229 330.1875 262.125 C 330.2116 262.1115 330.2262 262.10705 330.25 262.09375 C 330.49347 261.9571 330.72271 261.83099 330.9375 261.71875 C 331.0005 261.68575 331.0645 261.6558 331.125 261.625 C 331.46108 261.45335 331.74481 261.32275 332 261.21875 C 332.06861 261.19065 332.1249 261.17935 332.1875 261.15625 C 332.33079 261.10358 332.45209 261.05695 332.5625 261.03125 C 332.67998 261.00295 332.7952 260.998 332.875 261 C 332.91575 261.0021 332.9699 260.9894 333 261 C 333.0308 261.0083 333.0422 261.0432 333.0625 261.0625 C 333.0709 261.0708 333.09175 261.07575 333.09375 261.09375 C 333.09945 261.14807 333.0475 261.24261 333 261.375 C 332.96864 261.46142 332.926 261.57373 332.875 261.6875 C 332.82317 261.80281 332.7573 261.92353 332.6875 262.0625 C 332.6855 262.0659 332.6895 262.09075 332.6875 262.09375 C 332.40132 262.66238 331.97094 263.39771 331.46875 264.1875 C 330.96427 264.9809 330.40856 265.93917 329.9375 266.84375 C 329.4712 267.74573 329.0789 268.60843 328.875 269.1875 C 328.56654 270.05772 327.86178 271.61437 327.09375 273.09375 C 327.09135 273.09815 327.0645 273.08875 327.0625 273.09375 C 326.80887 273.58195 326.5613 274.06007 326.3125 274.5 C 326.3101 274.5044 326.3145 274.52625 326.3125 274.53125 C 325.40687 276.13219 324.86058 277.91007 324.71875 278.375 C 325.04444 278.46298 325.68347 278.42318 326.4375 278.28125 C 327.51332 278.08112 332.05777 277.79075 336.53125 277.625 C 341.00269 277.45924 344.83762 277.23322 345.0625 277.09375 C 345.28942 276.95427 346.24338 276.69902 347.1875 276.53125 C 348.13164 276.36346 352.35443 275.28125 356.5625 274.125 C 365.89643 271.55984 371.59375 270.33124 371.59375 270.875 C 371.59375 271.09938 369.34509 273.84567 366.59375 276.96875 C 366.22958 277.38155 365.90311 277.76077 365.5625 278.15625 C 365.5545 278.15825 365.53875 278.1862 365.53125 278.1875 C 364.85828 278.95172 364.27449 279.63634 363.78125 280.21875 C 362.74692 281.47304 361.95 282.52823 361.6875 282.96875 C 361.63465 283.06836 361.5625 283.1431 361.5625 283.1875 C 361.5625 283.37953 361.15776 283.76585 360.53125 284.21875 C 360.28235 284.39903 359.99043 284.59582 359.6875 284.78125 C 359.53462 284.8745 359.38058 284.9718 359.21875 285.0625 C 359.00389 285.18295 358.80444 285.29689 358.625 285.40625 C 358.6116 285.41475 358.60695 285.4295 358.59375 285.4375 C 358.07988 285.75388 357.69891 286.04446 357.4375 286.34375 C 357.20591 286.60351 357.05515 286.88667 356.96875 287.1875 C 356.90401 287.43423 356.875 287.69457 356.875 288 C 356.875 288.12811 356.88 288.26028 356.875 288.375 C 356.8705 288.48986 356.85435 288.58519 356.84375 288.6875 C 356.83315 288.78535 356.79905 288.88155 356.78125 288.96875 C 356.78051 288.97225 356.78197 289 356.78125 289 C 356.76315 289.08659 356.74555 289.1733 356.71875 289.25 C 356.6621 289.41298 356.57444 289.5315 356.46875 289.65625 C 356.41725 289.71778 356.3782 289.79015 356.3125 289.84375 C 355.72038 290.32772 354.52887 290.50404 352.125 290.71875 C 351.34914 290.79315 350.72863 290.8625 350.25 290.9375 C 349.77075 291.01903 349.4022 291.1317 349.15625 291.25 C 349.0065 291.32364 348.8949 291.4059 348.8125 291.5 C 348.7911 291.5258 348.7673 291.56615 348.75 291.59375 C 348.7425 291.60595 348.757 291.6128 348.75 291.625 C 348.7392 291.6449 348.6965 291.63555 348.6875 291.65625 C 348.6322 291.77908 348.625 291.92763 348.625 292.09375 C 348.625 292.17505 348.60925 292.26365 348.59375 292.34375 C 348.56292 292.50397 348.5225 292.66093 348.4375 292.8125 C 348.26719 293.11517 347.98311 293.39329 347.65625 293.625 C 347.4931 293.74139 347.31216 293.8475 347.125 293.9375 C 347.03127 293.9816 346.94165 294.0255 346.84375 294.0625 C 346.25757 294.2855 345.60739 294.37075 345.03125 294.21875 C 344.90028 294.18475 344.79115 294.16725 344.6875 294.15625 C 344.63245 294.15525 344.57935 294.1242 344.53125 294.125 C 344.31033 294.1331 344.1565 294.22235 344.0625 294.40625 C 344.0397 294.45135 344.0164 294.5045 344 294.5625 C 343.9471 294.7445 343.9375 294.9836 343.9375 295.3125 C 343.9375 295.4178 343.91825 295.526 343.90625 295.625 C 343.89405 295.7204 343.86675 295.81625 343.84375 295.90625 C 343.82035 295.99585 343.7843 296.1035 343.75 296.1875 C 343.28897 297.3261 341.83359 297.9375 339.53125 297.9375 C 338.41283 297.9375 337.87223 298.0402 337.625 298.375 L 337.59375 298.34375 C 337.53009 298.42595 337.49575 298.54495 337.46875 298.65625 C 337.44525 298.75605 337.4375 298.84545 337.4375 298.96875 C 337.4375 299.07825 337.4465 299.18125 337.4375 299.28125 C 337.4289 299.37735 337.3921 299.4745 337.375 299.5625 C 337.37426 299.5635 337.37574 299.59375 337.375 299.59375 C 337.3575 299.68125 337.3385 299.76375 337.3125 299.84375 C 337.25878 300.00515 337.18475 300.15255 337.09375 300.28125 C 337.04861 300.34445 336.992 300.41275 336.9375 300.46875 C 336.8232 300.58505 336.68912 300.668 336.53125 300.75 C 335.91023 301.0788 334.9458 301.1556 333.5625 301 C 332.46174 300.877 331.83959 300.8375 331.46875 300.9375 L 331.46875 300.90625 C 331.29081 300.95505 331.16755 301.0531 331.09375 301.1875 C 331.09815 301.1885 331.12 301.1875 331.125 301.1875 C 331.03227 301.3461 330.98115 301.58415 330.96875 301.90625 C 330.96575 302.01635 330.96875 302.1179 330.96875 302.25 C 330.96845 302.4026 330.9476 302.53125 330.9375 302.65625 C 330.93724 302.65725 330.93776 302.6875 330.9375 302.6875 C 330.9275 302.8108 330.92795 302.901 330.90625 303 C 330.90552 303.001 330.90698 303.03125 330.90625 303.03125 C 330.88425 303.12835 330.8485 303.20625 330.8125 303.28125 C 330.795 303.31635 330.7711 303.37525 330.75 303.40625 C 330.7284 303.43825 330.7131 303.44175 330.6875 303.46875 C 330.6855 303.46975 330.6895 303.5 330.6875 303.5 C 330.6616 303.527 330.62385 303.5405 330.59375 303.5625 C 330.36628 303.7357 330.0067 303.78125 329.46875 303.78125 C 329.36992 303.78125 329.2787 303.8025 329.1875 303.8125 C 329.09838 303.8195 329.0192 303.82775 328.9375 303.84375 C 328.8507 303.86075 328.767 303.88125 328.6875 303.90625 C 328.3186 304.02685 328.05307 304.25925 327.8125 304.59375 L 327.78125 304.5625 C 327.74016 304.6209 327.69395 304.71625 327.65625 304.78125 C 327.61497 304.85475 327.57105 304.917 327.53125 305 C 327.49286 305.0822 327.4724 305.158 327.4375 305.25 C 327.37986 305.4003 327.3105 305.53435 327.25 305.65625 C 327.248 305.65725 327.252 305.6875 327.25 305.6875 C 327.18949 305.8085 327.1318 305.904 327.0625 306 C 327.02875 306.046 326.9744 306.11625 326.9375 306.15625 C 326.74185 306.37395 326.49813 306.50375 326.15625 306.59375 C 325.74999 306.70035 325.2041 306.71875 324.4375 306.71875 C 324.09465 306.71875 323.82575 306.732 323.5625 306.75 C 323.51763 306.751 323.4802 306.75 323.4375 306.75 C 323.35466 306.757 323.2626 306.77125 323.1875 306.78125 C 323.07428 306.79625 322.9721 306.82375 322.875 306.84375 C 322.58395 306.90605 322.35668 306.9986 322.1875 307.125 C 322.04064 307.23395 321.92525 307.37228 321.84375 307.53125 C 321.83835 307.54225 321.84875 307.5515 321.84375 307.5625 C 321.8019 307.65 321.7788 307.73475 321.75 307.84375 C 321.71976 307.95745 321.6627 308.06525 321.625 308.15625 C 321.58754 308.24735 321.5488 308.33625 321.5 308.40625 C 321.4756 308.44125 321.4656 308.47 321.4375 308.5 C 321.2418 308.7115 320.93272 308.79325 320.46875 308.78125 C 320.33732 308.77825 320.1926 308.768 320.03125 308.75 C 319.8701 308.731 319.69475 308.7185 319.5 308.6875 C 319.35255 308.6625 319.20416 308.637 319.0625 308.625 C 318.93703 308.614 318.83688 308.59375 318.71875 308.59375 C 318.70285 308.59345 318.67185 308.59395 318.65625 308.59375 C 318.39284 308.59275 318.15236 308.61825 317.9375 308.65625 L 317.9375 308.625 C 317.79287 308.6501 317.67382 308.708 317.5625 308.75 C 317.5506 308.751 317.54295 308.74 317.53125 308.75 C 317.43485 308.7886 317.34495 308.85325 317.28125 308.90625 C 317.26065 308.92525 317.23855 308.9195 317.21875 308.9375 C 317.20205 308.9575 317.2 308.98 317.1875 309 C 317.07708 309.18 316.70552 309.35095 316.21875 309.46875 C 315.97558 309.52875 315.6992 309.591 315.40625 309.625 C 315.26308 309.641 315.0872 309.64625 314.9375 309.65625 C 314.78407 309.66525 314.62547 309.6875 314.46875 309.6875 C 314.21562 309.6875 314.01853 309.6765 313.8125 309.6875 C 312.64755 309.7544 312.1368 310.04385 311.875 310.71875 C 311.8897 310.73175 311.9233 310.739 311.9375 310.75 C 311.80945 311.1484 311.55268 311.4765 311.21875 311.6875 C 310.91066 311.9042 310.51687 312 310.0625 312 C 309.16772 312 308.52901 312.66345 308.125 314.21875 C 307.9698 317.75275 307.26889 321.47435 307.96875 324.84375 C 308.34191 327.53025 308.0978 330.29875 308.0625 333.03125 C 308.0731 333.20385 308.08285 333.35605 308.09375 333.53125 C 308.18149 334.94315 308.241 336.2248 308.3125 337.5 C 308.43243 338.242 308.60563 338.9641 308.84375 339.6875 C 309.25368 341.4862 309.03322 343.1708 308.65625 344.8125 C 308.9486 352.9005 308.75602 357.79545 308.03125 362.53125 C 307.08307 368.72285 306.79635 369.37565 305.5625 367.96875 C 304.93239 367.25115 304.51509 365.2353 304.3125 361.625 C 304.12204 358.2594 303.55144 355.0563 302.71875 352.8125 C 301.91644 350.6496 301.25037 347.02455 300.96875 343.40625 C 300.44199 336.60625 299.07668 333.3709 294.9375 328.8125 C 293.71783 327.4683 293.07626 326.7668 292.53125 326.5 L 292.03125 325.9375 C 291.80992 325.7574 291.58957 325.6079 291.375 325.4375 C 291.55617 325.9214 291.61882 326.418 291.4375 326.5 C 291.06471 326.6699 290.23803 327.093 289.59375 327.125 C 288.94745 327.1593 288.50644 326.3542 288.21875 325.8125 C 287.65373 324.753 287.75335 323.4291 287.78125 323.125 C 287.78125 323.125 287.68848 323.05695 287.28125 322.46875 C 286.90035 320.89605 285.58332 318.7307 282.5625 314.5625 C 274.88182 303.9643 270.47058 295.4337 268.03125 286.46875 C 267.32821 283.88536 265.87818 280.29703 264.8125 278.5 C 262.74595 275.02318 261.53628 271.98747 260.09375 266.75 C 259.67179 265.21544 259.1676 263.89881 258.40625 262.65625 C 258.29581 262.47637 258.15297 262.3012 258.03125 262.125 C 257.91552 261.95718 257.78306 261.79007 257.65625 261.625 C 257.64785 261.6141 257.66425 261.60465 257.65625 261.59375 C 257.37033 261.22417 257.03682 260.82893 256.6875 260.46875 C 256.53908 260.31634 256.37992 260.18271 256.21875 260.03125 C 255.8901 259.72141 255.54294 259.40255 255.15625 259.09375 C 255.11924 259.06435 255.06885 259.0294 255.03125 259 C 254.64653 258.69754 254.22862 258.39916 253.78125 258.09375 C 253.72743 258.05714 253.6797 258.0367 253.625 258 C 253.48513 257.90604 253.33374 257.782 253.1875 257.6875 C 253.07117 257.61261 252.93296 257.54405 252.8125 257.46875 C 252.55775 257.30913 252.30509 257.16177 252.03125 257 C 252.00855 256.9866 251.99155 256.9509 251.96875 256.9375 C 251.58647 256.71279 251.17113 256.48005 250.75 256.25 C 250.51648 256.12269 250.24595 256.00429 250 255.875 C 249.77958 255.75907 249.54322 255.61768 249.3125 255.5 C 248.8143 255.24626 248.29804 255.01317 247.75 254.75 C 247.19544 254.48373 246.62572 254.21516 246.0625 253.96875 C 242.66787 252.48444 239.16646 251.33594 236.1875 250.5 C 231.71571 249.24567 228.40925 248.67974 228.40625 248.53125 C 228.40617 248.52785 228.40588 248.503 228.40625 248.5 C 228.40595 248.4887 228.4315 248.5101 228.4375 248.5 C 228.45588 248.4719 228.4925 248.42265 228.5625 248.40625 C 228.61393 248.39565 228.6745 248.41125 228.75 248.40625 C 228.82558 248.40085 228.93285 248.37427 229.03125 248.375 z M 289.8125 324.21875 L 289.59375 324.28125 C 289.61604 324.72185 289.5843 325.14555 289.25 325.40625 C 289.639 325.42845 289.81245 325.75435 290.03125 326.03125 C 289.93604 325.86145 290.10959 325.70095 290.375 325.53125 L 289.71875 324.8125 C 289.71875 324.8125 289.84437 324.5686 290.09375 324.4375 C 290.00883 324.3736 289.8946 324.27975 289.8125 324.21875 z "
       transform="translate(5.0870321e-7,706.23915)"
       id="path2985-3"
       inkscape:export-filename="../white.png"
       inkscape:export-xdpi="90"
       inkscape:export-ydpi="90" />
    <path
       style="color:#000000;fill:#4e4e4e;fill-opacity:1;fill-rule:nonzero;stroke:#000000;stroke-width:4;stroke-miterlimit:4;stroke-opacity:1;stroke-dasharray:none;marker:none;visibility:visible;display:inline;overflow:visible;enable-background:accumulate"
       d="M 100 2 C 45.876095 2 2 45.876095 2 100 C 2 154.1239 45.876095 198 100 198 C 154.1239 198 198 154.1239 198 100 C 198 45.876095 154.1239 2 100 2 z M 132.625 30.3125 C 134.13877 30.324346 135.60781 30.833752 137.03125 31.3125 C 140.73569 32.84655 147.87952 35.7939 145.34375 40.96875 C 133.27071 46.90204 121.89434 56.308 108.5 60.15625 C 104.93094 62.1651 99.413998 59.26027 96.84375 62.125 C 90.846622 65.54502 83.041496 64.33811 76.3125 65.625 C 71.353221 65.2448 67.61084 65.86606 69.28125 71.53125 C 78.716087 70.15841 88.113321 67.47919 97.625 67.21875 C 100.92802 67.41707 107.2529 70.91004 103.59375 74.53125 C 96.70466 76.0126 89.211729 76.28005 82.125 77.875 C 77.822009 79.22329 67.507263 78.02737 74.46875 83.875 C 72.273477 87.28142 68.701905 89.62622 66.0625 92.8125 C 71.014359 91.12008 75.931217 89.23302 81 87.78125 C 85.402948 87.56615 79.692032 84.35902 80.9375 81.8125 C 83.515582 77.12929 89.705185 81.98415 93.25 82.875 C 99.219779 84.34551 105.54009 92.51619 100.5625 98.0625 C 96.612297 101.6081 91.631566 98.33175 89.25 94.65625 C 83.923712 95.66507 78.162213 98.28926 72.65625 99.84375 C 76.074994 100.61891 80.887926 103.75659 78.375 107.71875 C 77.602959 110.23587 77.457727 112.68535 80.9375 110.6875 C 86.019904 107.84595 93.551645 110.36598 94.78125 116.21875 C 94.093205 121.58769 86.85587 118.95926 83.28125 120.65625 C 80.380175 121.22606 75.671011 120.62118 77.40625 125.21875 C 78.749514 128.11244 84.160788 127.48852 86.9375 129.65625 C 91.512116 124.48827 95.105906 118.43434 98.65625 112.46875 C 101.58319 109.88416 99.860999 105.0732 102.84375 102.9375 C 107.69548 102.40405 115.12273 106.46039 114 112.15625 C 107.21208 119.80992 99.697675 127.32279 91.21875 132.96875 C 89.595169 134.50957 91.239864 138.82381 89.09375 141.03125 C 85.207916 145.18424 80.918044 138.77615 78.25 136.28125 C 76.152918 134.86798 78.030288 144.75461 77.5 147.625 C 76.978104 154.58567 80.308532 164.96964 72.875 169.40625 C 66.896755 170.76645 65.022862 162.59892 64.15625 158.3125 C 67.55169 151.99162 65.586147 144.38125 65.96875 137.4375 C 58.074598 144.74722 49.145357 151.52568 38.8125 154.96875 C 36.094293 156.23237 29.220377 156.84714 31.125 152.125 C 42.741431 145.58979 52.248369 135.65556 60.53125 125.34375 C 51.97165 126.67794 43.373972 134.10689 34.6875 129.3125 C 30.96456 128.37886 26.974962 122.84698 31.59375 120.28125 C 38.752857 117.89159 46.767294 117.83432 54.1875 115.9375 C 59.012501 114.24156 68.479012 116.30555 65.78125 108.375 C 65.706231 106.91773 65.391638 102.7747 64.09375 102.75 C 59.186191 103.51736 55.640005 107.77304 51 108.8125 C 46.638726 106.95128 43.055025 101.0765 44.40625 96.46875 C 50.467294 93.19751 55.389354 88.17005 59 82.25 C 51.312151 84.0772 42.91123 87.77285 35.15625 84.125 C 31.822794 83.57605 28.189346 78.76705 32.5 76.75 C 41.51875 74.50678 51.227734 75.08138 60.375 73 C 60.058497 66.65741 59.260993 60.38226 58.4375 54.125 C 57.273998 52.07798 58.063544 47.79337 56.625 44.65625 C 55.422768 41.25477 52.084223 36.57781 56.21875 33.71875 C 60.187933 31.88018 65.471182 33.67332 68.84375 36.03125 C 76.366413 35.65308 84.494973 32.06063 92.28125 30.75 C 96.442965 30.22979 103.61296 34.11172 100.46875 38.8125 C 92.99555 42.23826 84.044655 42.24465 75.9375 43.59375 C 72.061884 43.85315 67.591573 43.34792 69.1875 48.65625 C 74.906761 47.93545 81.669893 46.83918 87.53125 44.8125 C 91.145851 41.92215 99.764568 45.53131 96.9375 50.5625 C 91.750975 54.16377 84.370087 53.19073 78.34375 54.78125 C 74.870489 55.9836 67.862013 53.84138 69.125 59.25 C 74.683659 58.72755 80.226996 57.8848 85.71875 56.6875 C 89.666454 55.17693 96.666869 54.29315 97.8125 59.75 C 107.52509 54.36174 120.22026 47.24556 128.5 37.9375 C 129.13274 35.39323 127.71863 30.60751 131.96875 30.34375 C 132.18659 30.32381 132.40875 30.310808 132.625 30.3125 z M 135.09375 48.71875 C 139.16084 48.44793 143.21859 50.71164 146.5 52.875 C 150.2021 54.64403 150.35416 60.88625 145.46875 61.0625 C 130.91996 68.37245 117.19329 81.30919 99.65625 79.3125 C 110.92119 72.08957 123.68864 66.08516 132.25 55.59375 C 131.75723 53.09876 131.68683 49.08949 135.09375 48.71875 z M 139.09375 67.875 C 140.62866 67.875173 142.03421 68.393558 143.5 68.875 C 147.26646 70.35633 154.36054 73.39137 151.84375 78.53125 C 138.08558 85.737 124.72382 95.66286 109.375 100.34375 C 106.79033 101.24921 100.37148 103.51351 101.40625 98.625 C 112.54695 90.63886 125.164 84.27081 135.28125 74.6875 C 134.89958 72.24573 134.88745 68.09704 138.4375 67.90625 C 138.66311 67.883404 138.87448 67.874975 139.09375 67.875 z M 122.84375 99.71875 C 123.05786 99.722152 123.25799 99.736814 123.46875 99.78125 C 125.43046 99.6394 127.32385 100.13778 129.0625 101 C 138.15239 110.08573 148.4568 118.66005 160.75 122.9375 C 163.84107 124.78369 171.74996 124.502 170.25 129.8125 C 166.24509 134.12182 159.3025 134.93661 153.65625 135.8125 C 147.3269 134.76119 143.27325 128.42387 138.9375 124.21875 C 132.79267 118.18476 128.58225 108.93573 120.375 105.46875 C 116.28196 103.98437 119.63215 99.667726 122.84375 99.71875 z M 114.40625 116.1875 C 114.64816 116.17745 114.88174 116.29645 115.125 116.3125 C 119.53205 118.51715 123.61557 122.88514 124.625 127.84375 C 120.23543 135.50877 113.07 141.47519 107.28125 148.15625 C 106.17775 150.34432 115.1269 146.59239 117.625 146.40625 C 122.01042 145.30068 128.85572 144.93428 123.5 140.15625 C 120.92561 138.36134 120.32022 132.7891 124.65625 133.5 C 134.53924 137.35777 144.93863 143.55648 149.3125 153.75 C 150.81309 158.36265 150.32031 166.89011 144.15625 167.375 C 136.77957 165.40631 134.47652 156.47392 130.3125 150.9375 C 123.67346 153.22763 117.17759 155.90021 110.59375 158.34375 C 105.26407 159.63283 100.5456 164.58565 95.21875 164.53125 C 91.894202 161.44828 87.178709 158.11061 86.34375 153.375 C 94.408833 146.42668 102.76264 138.23931 108.625 128.84375 C 112.50154 125.49453 108.57115 117.84263 114.15625 116.25 C 114.23707 116.20981 114.32561 116.19085 114.40625 116.1875 z "
       transform="translate(5.0870321e-7,706.23915)"
       id="path2985-95"
       inkscape:export-filename="../flavored_black.png"
       inkscape:export-xdpi="90"
       inkscape:export-ydpi="90" />
    <path
       style="color:#000000;fill:#000000;fill-opacity:1;fill-rule:nonzero;stroke:#000000;stroke-width:4;stroke-miterlimit:4;stroke-opacity:1;stroke-dasharray:none;marker:none;visibility:visible;display:inline;overflow:visible;enable-background:accumulate"
       d="M 300 2 C 245.8761 2 202 45.876095 202 100 C 202 154.1239 245.8761 198 300 198 C 354.1239 198 398 154.1239 398 100 C 398 45.876095 354.1239 2 300 2 z M 332.625 30.3125 C 334.13877 30.324346 335.60781 30.833752 337.03125 31.3125 C 340.73569 32.84655 347.87952 35.7939 345.34375 40.96875 C 333.27071 46.90204 321.89434 56.308 308.5 60.15625 C 304.93094 62.1651 299.414 59.26027 296.84375 62.125 C 290.84662 65.54502 283.04149 64.33811 276.3125 65.625 C 271.35322 65.2448 267.61084 65.86606 269.28125 71.53125 C 278.71609 70.15841 288.11332 67.47919 297.625 67.21875 C 300.92802 67.41707 307.2529 70.91004 303.59375 74.53125 C 296.70466 76.0126 289.21173 76.28005 282.125 77.875 C 277.82201 79.22329 267.50726 78.02737 274.46875 83.875 C 272.27348 87.28142 268.7019 89.62622 266.0625 92.8125 C 271.01436 91.12008 275.93122 89.23302 281 87.78125 C 285.40295 87.56615 279.69203 84.35902 280.9375 81.8125 C 283.51558 77.12929 289.70519 81.98415 293.25 82.875 C 299.21978 84.34551 305.54009 92.51619 300.5625 98.0625 C 296.6123 101.6081 291.63157 98.33175 289.25 94.65625 C 283.92371 95.66507 278.16221 98.28926 272.65625 99.84375 C 276.07499 100.61891 280.88793 103.75659 278.375 107.71875 C 277.60296 110.23587 277.45773 112.68535 280.9375 110.6875 C 286.0199 107.84595 293.55164 110.36598 294.78125 116.21875 C 294.0932 121.58769 286.85587 118.95926 283.28125 120.65625 C 280.38018 121.22606 275.67101 120.62118 277.40625 125.21875 C 278.74951 128.11244 284.16079 127.48852 286.9375 129.65625 C 291.51212 124.48827 295.10591 118.43434 298.65625 112.46875 C 301.58319 109.88416 299.861 105.0732 302.84375 102.9375 C 307.69548 102.40405 315.12273 106.46039 314 112.15625 C 307.21208 119.80992 299.69768 127.32279 291.21875 132.96875 C 289.59517 134.50957 291.23986 138.82381 289.09375 141.03125 C 285.20792 145.18424 280.91804 138.77615 278.25 136.28125 C 276.15292 134.86798 278.03029 144.75461 277.5 147.625 C 276.9781 154.58567 280.30853 164.96964 272.875 169.40625 C 266.89675 170.76645 265.02286 162.59892 264.15625 158.3125 C 267.55169 151.99162 265.58615 144.38125 265.96875 137.4375 C 258.0746 144.74722 249.14536 151.52568 238.8125 154.96875 C 236.09429 156.23237 229.22038 156.84714 231.125 152.125 C 242.74143 145.58979 252.24837 135.65556 260.53125 125.34375 C 251.97165 126.67794 243.37397 134.10689 234.6875 129.3125 C 230.96456 128.37886 226.97496 122.84698 231.59375 120.28125 C 238.75286 117.89159 246.7673 117.83432 254.1875 115.9375 C 259.0125 114.24156 268.47901 116.30555 265.78125 108.375 C 265.70623 106.91773 265.39164 102.7747 264.09375 102.75 C 259.18619 103.51736 255.64001 107.77304 251 108.8125 C 246.63873 106.95128 243.05502 101.0765 244.40625 96.46875 C 250.46729 93.19751 255.38935 88.17005 259 82.25 C 251.31215 84.0772 242.91123 87.77285 235.15625 84.125 C 231.82279 83.57605 228.18935 78.76705 232.5 76.75 C 241.51875 74.50678 251.22773 75.08138 260.375 73 C 260.0585 66.65741 259.26099 60.38226 258.4375 54.125 C 257.274 52.07798 258.06354 47.79337 256.625 44.65625 C 255.42277 41.25477 252.08422 36.57781 256.21875 33.71875 C 260.18793 31.88018 265.47118 33.67332 268.84375 36.03125 C 276.36641 35.65308 284.49497 32.06063 292.28125 30.75 C 296.44296 30.22979 303.61296 34.11172 300.46875 38.8125 C 292.99555 42.23826 284.04465 42.24465 275.9375 43.59375 C 272.06188 43.85315 267.59157 43.34792 269.1875 48.65625 C 274.90676 47.93545 281.66989 46.83918 287.53125 44.8125 C 291.14585 41.92215 299.76457 45.53131 296.9375 50.5625 C 291.75098 54.16377 284.37009 53.19073 278.34375 54.78125 C 274.87049 55.9836 267.86201 53.84138 269.125 59.25 C 274.68366 58.72755 280.22699 57.8848 285.71875 56.6875 C 289.66645 55.17693 296.66687 54.29315 297.8125 59.75 C 307.52509 54.36174 320.22026 47.24556 328.5 37.9375 C 329.13274 35.39323 327.71863 30.60751 331.96875 30.34375 C 332.18659 30.32381 332.40875 30.310808 332.625 30.3125 z M 335.09375 48.71875 C 339.16084 48.44793 343.21859 50.71164 346.5 52.875 C 350.2021 54.64403 350.35416 60.88625 345.46875 61.0625 C 330.91996 68.37245 317.19329 81.30919 299.65625 79.3125 C 310.92119 72.08957 323.68864 66.08516 332.25 55.59375 C 331.75723 53.09876 331.68683 49.08949 335.09375 48.71875 z M 339.09375 67.875 C 340.62866 67.875173 342.03421 68.393558 343.5 68.875 C 347.26646 70.35633 354.36054 73.39137 351.84375 78.53125 C 338.08558 85.737 324.72382 95.66286 309.375 100.34375 C 306.79033 101.24921 300.37148 103.51351 301.40625 98.625 C 312.54695 90.63886 325.164 84.27081 335.28125 74.6875 C 334.89958 72.24573 334.88745 68.09704 338.4375 67.90625 C 338.66311 67.883404 338.87448 67.874975 339.09375 67.875 z M 322.84375 99.71875 C 323.05786 99.722152 323.25799 99.736814 323.46875 99.78125 C 325.43046 99.6394 327.32385 100.13778 329.0625 101 C 338.15239 110.08573 348.4568 118.66005 360.75 122.9375 C 363.84107 124.78369 371.74996 124.502 370.25 129.8125 C 366.24509 134.12182 359.3025 134.93661 353.65625 135.8125 C 347.3269 134.76119 343.27325 128.42387 338.9375 124.21875 C 332.79267 118.18476 328.58225 108.93573 320.375 105.46875 C 316.28196 103.98437 319.63215 99.667726 322.84375 99.71875 z M 314.40625 116.1875 C 314.64815 116.17745 314.88175 116.29645 315.125 116.3125 C 319.53205 118.51715 323.61557 122.88514 324.625 127.84375 C 320.23543 135.50877 313.07 141.47519 307.28125 148.15625 C 306.17775 150.34432 315.1269 146.59239 317.625 146.40625 C 322.01042 145.30068 328.85572 144.93428 323.5 140.15625 C 320.92561 138.36134 320.32022 132.7891 324.65625 133.5 C 334.53924 137.35777 344.93863 143.55648 349.3125 153.75 C 350.81309 158.36265 350.32031 166.89011 344.15625 167.375 C 336.77957 165.40631 334.47652 156.47392 330.3125 150.9375 C 323.67346 153.22763 317.17759 155.90021 310.59375 158.34375 C 305.26407 159.63283 300.5456 164.58565 295.21875 164.53125 C 291.8942 161.44828 287.17871 158.11061 286.34375 153.375 C 294.40883 146.42668 302.76264 138.23931 308.625 128.84375 C 312.50154 125.49453 308.57115 117.84263 314.15625 116.25 C 314.23707 116.20981 314.32562 116.19085 314.40625 116.1875 z "
       transform="translate(5.0870321e-7,706.23915)"
       id="path2985-3-2"
       inkscape:export-filename="../black.png"
       inkscape:export-xdpi="90"
       inkscape:export-ydpi="90" />
    <path
       style="color:#000000;fill:#efef8a;fill-opacity:1;fill-rule:nonzero;stroke:#686835;stroke-width:4;stroke-miterlimit:4;stroke-opacity:1;stroke-dasharray:none;marker:none;visibility:visible;display:inline;overflow:visible;enable-background:accumulate"
       d="M 500 2 C 445.8761 2 402 45.876095 402 100 C 402 154.1239 445.8761 198 500 198 C 554.1239 198 598 154.1239 598 100 C 598 45.876095 554.1239 2 500 2 z M 527.84375 30.5 C 544.94383 30.20221 559.45718 37.98024 559.3125 49.4375 C 559.16782 60.89476 550.11925 72.80779 549.90625 73.8125 C 551.97193 77.44551 554.23996 83.28896 555.15625 86.5 C 556.18102 90.1089 555.97762 95.98837 556.21875 97.9375 C 557.13504 105.37634 565.90201 105.99815 563.125 109.96875 C 560.30379 113.99963 555.99784 104.12584 553.84375 104.375 C 551.69368 104.62015 556.50503 119.4375 552.28125 119.4375 C 548.05747 119.4375 551.84401 107.56991 548.90625 106.46875 C 545.96448 105.3676 544.67188 117.68167 540.90625 115.9375 C 537.14061 114.19334 545.56728 107.22033 544.28125 104.375 C 542.99523 101.52566 538.07815 109.78289 536.125 106.65625 C 534.17185 103.5296 541.03832 102.82149 541.34375 100.6875 C 541.64918 98.54948 538.42344 99.75068 539.34375 96.9375 C 540.27611 94.0962 541.82 97.12029 544.0625 96.3125 C 546.28089 95.51276 546.50264 93.24285 546.6875 91.40625 C 546.80006 90.285 546.98087 85.89958 546.6875 82.09375 C 541.50723 92.86822 531.56315 108.10758 525.125 113.75 C 515.53207 122.16942 485.50998 132.13104 484.875 133.03125 C 483.31168 135.23759 488.4878 144.13791 487.25 148 C 486.51456 150.29475 472.7495 157.45789 471.09375 159.9375 C 469.44201 162.41712 472.20999 168.21361 467.78125 167.28125 C 463.65794 166.40916 468.57365 160.49625 466.78125 159.375 C 463.84349 157.53839 461.24271 170.99057 458.15625 169.375 C 452.97599 166.67033 464.01933 157.61522 463.46875 155.59375 C 462.91817 153.57228 455.6656 156.80825 455.75 152.21875 C 455.81029 148.63798 465.07255 153.47884 465.96875 150.46875 C 466.65195 148.18204 462.32381 146.32143 465.40625 144.46875 C 468.43242 142.65225 468.05773 148.8125 469.34375 148.8125 C 470.62977 148.8125 478.8949 146.2283 479.71875 143.65625 C 480.31354 141.81161 478.10601 135.13809 477.25 134.53125 C 476.33372 133.87618 474.10857 134.59631 473.71875 135.0625 C 469.79638 139.77658 468.50976 139.02744 466.90625 140 C 465.35096 140.94844 452.34257 156.85894 438.84375 149.34375 C 433.34198 146.27738 438.59375 133.5 438.59375 133.5 C 438.59375 133.5 438.0625 132.20113 438.0625 129.34375 C 438.0625 126.48637 441.17387 126.62137 444.03125 123.125 C 447.36004 119.04991 446.07559 117.5863 455.71875 113.25 C 459.09858 111.7349 464.48882 109.83798 470.1875 107.8125 C 471.12791 103.5646 473.23381 96.87125 477.4375 95.75 C 482.42887 94.41977 485.57512 98.78064 486.9375 101.3125 C 491.0568 99.45178 494.67532 97.50941 497.0625 95.5 C 504.65406 89.11007 510.06993 80.35128 512.59375 76.875 C 514.91261 73.68406 517.70561 71.04738 520.40625 68.9375 C 524.11563 65.58661 524.20765 63.5316 522.09375 63.5625 C 519.97985 63.59384 518.4566 70.99036 515.125 68.40625 C 511.87377 65.88645 518.70211 64.33696 517.34375 63.03125 C 516.03361 61.76813 508.57864 69.41561 506.46875 66.125 C 504.75674 63.45489 513.65458 62.08271 513.15625 60.46875 C 512.66193 58.85479 504.97873 64.05466 504.34375 59.71875 C 503.74495 55.66215 513.78305 58.6693 513.71875 56 C 513.6866 54.63481 509.9971 56.52621 510.9375 52.96875 C 512.12306 48.48455 516.7611 55.36028 518.875 53.25 C 518.875 53.25 520.74899 49.84293 524.96875 49.71875 C 529.20459 49.59417 531.86337 58.00079 533.8125 58.78125 C 541.57686 55.30015 544.67968 53.79159 545.65625 49.40625 C 546.7132 44.66524 545.82708 38.2446 527.875 38.1875 C 509.67778 38.13003 480.83216 48.16396 477.0625 47.09375 C 474.63514 46.40573 483.27009 42.82824 494.40625 39.03125 C 503.82234 35.81901 510.73964 30.79776 527.84375 30.5 z "
       transform="translate(5.0870321e-7,706.23915)"
       id="path3773-1"
       inkscape:export-filename="../flavored_rooibos.png"
       inkscape:export-xdpi="90"
       inkscape:export-ydpi="90" />
    <path
       style="color:#000000;fill:#dc696d;fill-opacity:1;fill-rule:nonzero;stroke:#572f30;stroke-width:4;stroke-miterlimit:4;stroke-opacity:1;stroke-dasharray:none;marker:none;visibility:visible;display:inline;overflow:visible;enable-background:accumulate"
       d="M 900 2 C 845.8761 2 802 45.876095 802 100 C 802 154.1239 845.8761 198 900 198 C 954.1239 198 998 154.1239 998 100 C 998 45.876095 954.1239 2 900 2 z M 917.375 48.59375 C 917.98205 48.581892 918.49128 48.608473 918.90625 48.65625 C 921.19675 48.92106 926.62852 50.94812 929.09375 52.46875 C 929.88546 52.95743 930.84147 53.30918 931.625 53.4375 C 931.83794 53.473 933.1714 53.59468 934.59375 53.6875 C 937.53946 53.88133 938.00951 53.96253 940.0625 54.71875 C 944.21489 56.24758 946.24934 57.55034 949.03125 60.46875 C 950.844 62.37432 953.11987 65.554 954.8125 68.5625 C 955.52504 69.82651 957.15625 73.00487 957.15625 73.125 C 957.15625 73.1523 957.38871 73.61965 957.65625 74.1875 C 958.57081 76.12856 959.5719 78.6798 961.0625 82.6875 C 961.59213 84.11531 962.14475 85.5744 962.28125 85.9375 C 962.42048 86.30332 962.76644 87.2113 963.03125 87.9375 C 963.60456 89.51273 963.79838 89.81987 964.5 90.28125 C 965.37907 90.85729 966.74451 91.17117 969.6875 91.46875 C 972.0326 91.70899 972.84375 91.85774 972.84375 92.0625 C 972.84375 92.41194 972.26842 93.16995 971.8125 93.4375 C 971.12999 93.83608 970.4633 94.03009 969 94.28125 C 966.86238 94.6498 966.40579 94.73943 965.625 94.96875 C 965.21549 95.08887 964.90625 95.24303 964.90625 95.28125 C 964.90625 95.32215 965.23582 97.09054 965.65625 99.25 C 966.71004 104.65002 967.30813 108.12222 968.25 114 C 969.57407 122.28021 970.50128 132.81979 970.8125 143.5625 C 970.8835 146.00588 971.04891 147.59665 971.34375 148.4375 C 971.43655 148.70231 971.53125 148.92385 971.53125 148.9375 C 971.53125 148.9511 971.32185 148.96325 971.0625 148.96875 C 970.80587 148.97375 970.03172 149.18907 969.34375 149.4375 C 968.15073 149.86612 967.54392 149.95992 967.15625 149.8125 C 966.92966 149.7251 966.92666 149.16393 967.15625 148.09375 C 967.46202 146.65502 967.28474 143.99075 966.53125 138.65625 C 965.95521 134.58303 964.57348 128.1266 963.375 123.96875 C 963.16205 123.23164 962.95539 122.49542 962.90625 122.3125 C 962.59775 121.17681 960.29909 112.64023 959.96875 111.40625 C 957.41344 101.91663 955.43514 97.00654 952.71875 93.25 C 951.2964 91.27891 950.36956 90.67218 947.4375 89.875 C 945.97147 89.47642 945.20042 89.17728 943 88.15625 C 940.573 87.02601 939.53654 86.65654 938.6875 86.59375 C 937.95039 86.53915 937.93535 86.52704 937.8125 86.84375 C 937.7169 87.08672 937.7385 87.46015 937.875 88.4375 C 938.08794 89.9636 938.09464 90.87657 937.90625 91.125 C 937.68785 91.41439 934.10433 92.08254 932.40625 92.15625 C 931.24871 92.20535 930.7895 92.18718 929.59375 91.96875 C 927.63085 91.61112 924.27865 91.57042 923.375 91.90625 C 922.56964 92.20656 922.0682 92.64061 921.71875 93.375 C 921.30924 94.24315 921.14469 95.30272 921 98 C 920.82801 101.21872 920.97517 101.91934 922.53125 106.71875 C 923.0445 108.30218 923.65782 110.40433 923.90625 111.40625 C 924.88634 115.40849 925.3806 116.6383 929.15625 124.03125 C 930.92259 127.49294 931.62453 129.02438 932.3125 131.09375 C 933.06599 133.37061 933.27823 134.66274 933.34375 136.78125 C 933.37655 137.82412 933.4724 138.75279 933.5625 139.03125 C 933.7809 139.71922 934.26208 140.27143 935.46875 141.21875 C 936.86107 142.31623 937.95787 143.37661 939.71875 145.375 L 941.15625 147.03125 L 940.625 147.5625 C 939.91519 148.29415 938.44343 149.53194 937.75 149.96875 C 935.53866 151.3638 933.68341 151.65678 929.875 151.25 C 928.98228 151.1544 927.51773 151.04368 926.625 151 C 925.72955 150.9563 924.97026 150.87651 924.9375 150.84375 C 924.9047 150.81095 924.84404 149.9734 924.78125 148.96875 C 924.53281 144.82455 923.90841 141.89344 922.5625 138.5 C 921.8172 136.61627 921.37966 135.76122 920.375 134.21875 C 919.42768 132.76364 918.66184 131.43624 917.75 129.65625 C 916.91461 128.02642 915.78346 126.17781 914.71875 124.75 C 913.99529 123.77537 913.12134 122.8107 913.03125 122.90625 C 913.00665 122.93355 912.64859 123.84427 912.25 124.90625 C 911.54019 126.80909 911.24665 127.66178 909.625 132.625 C 908.95068 134.68891 908.62147 135.545 907.625 137.5625 C 905.83683 141.17707 905.32104 142.57724 905.53125 143.5 C 905.62955 143.93407 906.12628 144.70817 906.4375 144.9375 C 906.62315 145.074 908.77254 147.6861 909.1875 148.28125 C 909.40591 148.59247 910.09375 150.3793 910.09375 150.625 C 910.09375 150.7233 909.50408 150.81772 907.15625 151.15625 C 906.08607 151.31186 901.14267 151.4393 899.96875 151.34375 C 898.57643 151.23182 895.89545 150.86919 895 150.65625 C 893.91071 150.3969 893.05884 150.04728 892.96875 149.8125 C 892.90325 149.64324 893.3334 148.92102 894.6875 146.90625 C 895.41642 145.81969 895.66177 145.35996 895.9375 144.5 C 896.792 141.83548 897.38121 138.99173 898.09375 134.03125 C 898.58789 130.59139 898.9494 128.33946 899.3125 126.625 C 899.56639 125.4347 899.61164 125.11014 899.5625 123.625 C 899.527 122.54937 899.3786 121.38541 899.1875 120.3125 C 898.46131 116.21471 898.3793 114.89256 898.625 111.6875 C 898.7233 110.41257 898.84497 109.24663 898.875 109.09375 C 898.905 108.9436 899.03735 107.87356 899.1875 106.71875 C 899.33492 105.56395 899.4903 104.42501 899.53125 104.1875 L 899.625 103.75 L 899.125 103.84375 C 898.86291 103.88465 898.06721 103.85775 897.34375 103.78125 C 896.28995 103.67478 895.86728 103.66678 895.1875 103.78125 C 893.26828 104.10066 890.62016 104.91356 886.09375 106.5625 C 882.65663 107.81559 879.57884 108.81714 877.8125 109.28125 C 875.75951 109.81907 874.02524 109.88343 871.21875 109.53125 C 868.97466 109.25006 867.91335 109.29861 866.96875 109.65625 C 866.20707 109.9429 865.79234 110.33579 865.15625 111.46875 C 863.86221 113.77291 863.8537 113.79711 862 114.1875 C 860.26096 114.55333 860.04357 114.71142 859.4375 116 C 858.93244 117.07564 858.84218 117.30483 858.59375 118.375 C 858.20335 120.07855 858.12471 121.43422 858.1875 124.78125 C 858.29124 130.46792 859.04865 134.30537 861.15625 139.65625 C 862.25099 142.4327 862.18458 142.33746 864.28125 144.28125 C 865.1576 145.09207 866.20208 146.61146 866.28125 147.1875 C 866.39045 148.00105 865.48764 149.17425 864.34375 149.6875 C 862.99238 150.29357 861.61435 150.29513 856.875 149.65625 C 855.53455 149.47606 853.62419 149.2518 852.625 149.15625 C 851.62581 149.05795 850.64225 148.93628 850.4375 148.90625 L 850.0625 148.875 L 850.125 148.28125 C 850.31884 146.58043 850.43506 143.89174 850.375 142.625 C 850.2931 140.85594 850.01714 139.52593 849.25 137.15625 C 848.38185 134.46716 848.01481 133.16962 847.75 131.75 C 847.62169 131.05111 847.39469 130.0797 847.25 129.59375 C 846.54565 127.19131 846.24908 126.28125 846.15625 126.28125 C 845.98153 126.28125 845.13703 127.99331 844.59375 129.4375 C 843.81842 131.49868 843.28241 132.84932 843.03125 133.40625 C 841.12841 137.646 840.0212 140.98645 839.84375 143.03125 C 839.78095 143.74925 839.81403 143.99227 840.0625 144.78125 C 840.4529 146.01796 840.43958 146.36083 840 146.78125 C 839.44581 147.31088 838.67113 147.48815 837.21875 147.40625 C 834.11743 147.22607 832.94064 147.10676 831.96875 146.9375 C 830.64468 146.70544 827.27911 145.89864 827.15625 145.78125 C 827.06065 145.68845 827.54234 144.68751 828.375 143.21875 C 828.91282 142.2687 831.78502 136.54189 832.4375 135.125 C 833.83528 132.08647 835.32875 128.37386 836.21875 125.6875 C 837.25343 122.55888 838.48489 117.8591 838.8125 115.71875 C 838.8835 115.26283 838.97938 114.71172 839.03125 114.46875 C 839.11585 114.08654 839.42211 111.56543 839.8125 108 C 839.878 107.42396 840.0076 106.33905 840.125 105.59375 C 840.49628 103.25956 840.37727 102.03637 839.59375 100.34375 C 839.40538 99.94243 839.19052 99.29269 839.125 98.875 C 838.87384 97.31341 838.54699 96.0625 838.375 96.0625 C 838.3368 96.0625 838.18141 95.86797 838.03125 95.625 C 837.78282 95.22095 837.59375 95.05071 837.59375 95.25 C 837.59375 95.2909 837.46266 96.21503 837.3125 97.3125 C 837.05042 99.21534 836.65857 102.59435 836.15625 107.15625 C 835.80953 110.29307 835.17716 115.49709 835.0625 116.125 C 835.0079 116.43077 834.88348 117.07656 834.8125 117.5625 C 834.33201 120.83309 833.8757 122.66407 832.84375 125.375 C 831.96468 127.67915 831.68169 128.5299 831.46875 129.40625 L 831.3125 130.03125 L 831.3125 128.78125 C 831.2934 125.51339 831.77752 122.35789 832.875 118.71875 C 833.93971 115.19154 834.5004 111.36716 835 103.96875 C 835.33579 98.98097 835.44906 96.13608 835.59375 90.8125 C 835.74663 85.21319 836.00626 83.12329 837 79.09375 C 837.53782 76.91518 837.74953 76.13704 838.4375 74.125 C 841.90738 63.99928 847.6839 57.26274 855.5 54.21875 C 859.16645 52.79094 862.95814 52.2209 867.59375 52.34375 C 871.36667 52.44476 873.67833 52.74419 879.46875 54 C 883.61568 54.90092 884.92498 55.01847 889.09375 54.84375 C 896.82522 54.51614 902.04643 53.39396 906.6875 51.0625 C 908.83604 49.98141 909.34809 49.78479 911.34375 49.3125 C 913.07391 48.902992 915.55385 48.629324 917.375 48.59375 z "
       transform="translate(5.0870321e-7,706.23915)"
       id="path2985-9-4"
       inkscape:export-filename="../mate.png"
       inkscape:export-xdpi="90"
       inkscape:export-ydpi="90" />
    <path
       style="color:#000000;fill:#a45391;fill-opacity:1;fill-rule:nonzero;stroke:#4f1e44;stroke-width:4;stroke-miterlimit:4;stroke-opacity:1;stroke-dasharray:none;marker:none;visibility:visible;display:inline;overflow:visible;enable-background:accumulate"
       d="M 1100 2 C 1045.8761 2 1002 45.876095 1002 100 C 1002 154.1239 1045.8761 198 1100 198 C 1154.1239 198 1198 154.1239 1198 100 C 1198 45.876095 1154.1239 2 1100 2 z M 1098.9062 34.65625 C 1098.9062 34.65625 1105.1227 39.57595 1113.2812 48.34375 C 1121.4279 41.96145 1125.625 37.03125 1125.625 37.03125 C 1125.625 37.03125 1126.7359 40.76 1128.5938 47.0625 C 1135.9929 43.0087 1140.6562 40 1140.6562 40 C 1140.6562 40 1139.4374 44.81545 1139.2188 53.40625 C 1149.5369 49.52085 1156.5 45.46875 1156.5 45.46875 C 1156.5 45.46875 1147.9297 61.4988 1144.1875 80.8125 C 1140.0034 88.7843 1134.6883 95.22075 1126.5938 96.71875 C 1126.1845 96.79445 1125.7567 96.8745 1125.3438 96.9375 C 1131.2015 105.4576 1136.1875 109.5625 1136.1875 109.5625 C 1136.1875 109.5625 1129.4263 111.1915 1117.9688 113.4375 C 1115.4367 113.6256 1113.0813 113.77395 1110.9688 113.59375 C 1108.2264 116.25215 1105.8855 118.4568 1104.0312 120.1875 C 1104.0766 120.2563 1104.1112 120.33725 1104.1562 120.40625 C 1104.1562 120.40625 1103.4966 130.51385 1103.25 138.84375 C 1104.5546 136.11375 1107.3057 134.1788 1110.5 133.1875 C 1113.7771 132.1706 1117.0285 133.499 1120.7812 135.125 C 1128.2581 139.4999 1132.5625 142.28125 1132.5625 142.28125 C 1132.5625 142.28125 1127.9907 146.3684 1120.1875 150.6875 C 1116.7155 152.2362 1112.7474 152.7721 1109.5312 151.5625 C 1106.6803 150.49 1104.3237 148.23495 1103.1875 145.78125 C 1106.0052 188.60135 1093.66 180.6539 1094.0625 146 L 1094.0625 144.375 C 1092.8877 148.3315 1089.5802 151.11835 1085.7188 152.46875 C 1082.1495 153.71685 1078.619 152.08925 1074.5312 150.09375 C 1066.3876 144.72455 1061.6875 141.3125 1061.6875 141.3125 C 1061.6875 141.3125 1066.688 136.3008 1075.1875 131 C 1078.9693 129.0992 1083.3097 128.4529 1086.8125 129.9375 C 1090.2628 131.3999 1093.0214 134.6015 1094.0625 138 L 1094.0625 120.8125 C 1092.2976 119.4307 1090.2032 117.6858 1087.9375 115.625 C 1086.6811 115.5842 1085.3596 115.4763 1084 115.375 C 1071.8559 112.9916 1064.6875 111.28125 1064.6875 111.28125 C 1064.6875 111.28125 1069.2878 107.71175 1075.7188 98.15625 C 1076.4805 97.24275 1077.2275 96.4134 1078 95.6875 C 1076.9995 95.5815 1076.0131 95.4317 1075.0312 95.25 C 1066.9366 93.752 1061.6216 87.31555 1057.4375 79.34375 C 1051.0083 61.00915 1043.5 49.625 1043.5 49.625 C 1043.5 49.625 1049.377 50.52355 1058.3438 52.21875 C 1056.8933 45.59455 1055.375 42.03125 1055.375 42.03125 C 1055.375 42.03125 1061.5308 44.94655 1070.9375 48.40625 C 1073.0433 41.95335 1074.25 38.875 1074.25 38.875 C 1074.25 38.875 1078.5112 42.80305 1086.7812 48.53125 C 1094.3832 39.59725 1098.9062 34.65625 1098.9062 34.65625 z "
       transform="translate(5.0870321e-7,706.23915)"
       id="path2985-0-6"
       inkscape:export-filename="../herbal.png"
       inkscape:export-xdpi="90"
       inkscape:export-ydpi="90" />
    <text
       xml:space="preserve"
       style="font-size:20.00004387px;font-style:normal;font-weight:normal;text-align:center;line-height:125%;letter-spacing:0px;word-spacing:0px;text-anchor:middle;fill:#000000;fill-opacity:1;stroke:none;font-family:Sans"
       x="99.926537"
       y="1157.0814"
       id="text3833"
       sodipodi:linespacing="125%"
       transform="scale(1.0000022,0.99999781)"><tspan
         sodipodi:role="line"
         id="tspan3835"
         x="99.926537"
         y="1157.0814">Flavored</tspan><tspan
         sodipodi:role="line"
         x="99.926537"
         y="1182.0814"
         id="tspan3837">White</tspan></text>
    <text
       xml:space="preserve"
       style="font-size:20px;font-style:normal;font-weight:normal;text-align:center;line-height:125%;letter-spacing:0px;word-spacing:0px;text-anchor:middle;fill:#000000;fill-opacity:1;stroke:none;font-family:Sans"
       x="300.2002"
       y="1157.079"
       id="text3833-0"
       sodipodi:linespacing="125%"><tspan
         sodipodi:role="line"
         x="300.2002"
         y="1157.079"
         id="tspan3837-7">White</tspan></text>
    <text
       xml:space="preserve"
       style="font-size:20px;font-style:normal;font-weight:normal;text-align:center;line-height:125%;letter-spacing:0px;word-spacing:0px;text-anchor:middle;fill:#000000;fill-opacity:1;stroke:none;font-family:Sans"
       x="499.92676"
       y="1157.079"
       id="text3833-7"
       sodipodi:linespacing="125%"><tspan
         sodipodi:role="line"
         id="tspan3835-1"
         x="499.92676"
         y="1157.079">Flavored</tspan><tspan
         sodipodi:role="line"
         x="499.92676"
         y="1182.079"
         id="tspan3837-8">Green</tspan></text>
    <text
       xml:space="preserve"
       style="font-size:20px;font-style:normal;font-weight:normal;text-align:center;line-height:125%;letter-spacing:0px;word-spacing:0px;text-anchor:middle;fill:#000000;fill-opacity:1;stroke:none;font-family:Sans"
       x="700.29785"
       y="1156.7274"
       id="text3833-1"
       sodipodi:linespacing="125%"><tspan
         sodipodi:role="line"
         x="700.29785"
         y="1156.7274"
         id="tspan3837-3">Green</tspan></text>
    <text
       xml:space="preserve"
       style="font-size:20.00004387px;font-style:normal;font-weight:normal;text-align:center;line-height:125%;letter-spacing:0px;word-spacing:0px;text-anchor:middle;fill:#000000;fill-opacity:1;stroke:none;font-family:Sans"
       x="99.926537"
       y="645.95734"
       id="text3833-6"
       sodipodi:linespacing="125%"
       transform="scale(1.0000022,0.99999781)"><tspan
         sodipodi:role="line"
         id="tspan3835-15"
         x="99.926537"
         y="645.95734">Flavored</tspan><tspan
         sodipodi:role="line"
         x="99.926537"
         y="670.9574"
         id="tspan3837-4">Black</tspan></text>
    <text
       xml:space="preserve"
       style="font-size:20px;font-style:normal;font-weight:normal;text-align:center;line-height:125%;letter-spacing:0px;word-spacing:0px;text-anchor:middle;fill:#000000;fill-opacity:1;stroke:none;font-family:Sans"
       x="299.05762"
       y="670.95593"
       id="text3833-0-4"
       sodipodi:linespacing="125%"><tspan
         sodipodi:role="line"
         x="299.05762"
         y="670.95593"
         id="tspan3837-7-6">Black</tspan></text>
    <text
       xml:space="preserve"
       style="font-size:20px;font-style:normal;font-weight:normal;text-align:center;line-height:125%;letter-spacing:0px;word-spacing:0px;text-anchor:middle;fill:#000000;fill-opacity:1;stroke:none;font-family:Sans"
       x="899.55078"
       y="670.95593"
       id="text3833-1-0"
       sodipodi:linespacing="125%"><tspan
         sodipodi:role="line"
         x="899.55078"
         y="670.95593"
         id="tspan3837-3-7">Mat</tspan></text>
    <text
       xml:space="preserve"
       style="font-size:20px;font-style:normal;font-weight:normal;text-align:center;line-height:125%;letter-spacing:0px;word-spacing:0px;text-anchor:middle;fill:#000000;fill-opacity:1;stroke:none;font-family:Sans"
       x="1099.951"
       y="670.95593"
       id="text3833-79-5"
       sodipodi:linespacing="125%"><tspan
         sodipodi:role="line"
         x="1099.951"
         y="670.95593"
         id="tspan3837-9-0">Herbal</tspan></text>
    <path
       style="color:#000000;fill:#6c73b2;fill-opacity:1;fill-rule:nonzero;stroke:#212331;stroke-width:4;stroke-miterlimit:4;stroke-opacity:1;stroke-dasharray:none;marker:none;visibility:visible;display:inline;overflow:visible;enable-background:accumulate"
       d="M 1100 202 C 1045.8761 202 1002 245.8761 1002 300 C 1002 354.1239 1045.8761 398 1100 398 C 1154.1239 398 1198 354.1239 1198 300 C 1198 245.8761 1154.1239 202 1100 202 z M 1153.9375 257.5 C 1155.3173 257.434 1156.7084 257.54848 1158.0625 257.78125 C 1168.3038 259.32078 1175.691 270.01786 1173.6562 280.15625 C 1172.0085 284.21608 1175.687 287.86834 1175.5625 291.90625 C 1175.1419 295.97046 1172.1049 301.0817 1167.4062 300.6875 C 1163.1338 299.2088 1161.9749 293.86086 1162.3438 289.78125 C 1162.1645 285.80044 1166.4704 284.35698 1168.6875 281.875 C 1171.759 275.72785 1167.928 267.9271 1162.2812 264.84375 C 1154.9907 260.47553 1144.5957 264.801 1142.4062 272.9375 C 1140.2579 280.49983 1145.6041 287.11728 1150 292.65625 C 1155.1407 298.69796 1158.7855 306.25475 1158.6875 314.34375 C 1158.8835 326.64715 1150.1073 338.1527 1138.3125 341.375 C 1126.3856 345.0733 1112.7155 339.5369 1106.3438 328.9375 C 1099.5696 318.6679 1100.7579 304.2469 1108.5 294.8125 C 1112.9728 290.78929 1112.6238 283.44576 1108.4375 279.34375 C 1103.126 273.62007 1092.7105 275.94501 1089.7188 282.96875 C 1086.8978 288.71071 1090.2504 294.98705 1093.0312 300.09375 C 1096.8865 306.68855 1098.441 315.99195 1093.1875 322.28125 C 1089.1658 327.65415 1080.5456 327.88805 1075.875 323.21875 C 1070.5995 318.19785 1070.9006 310.53215 1070.625 303.78125 C 1070.4744 293.47494 1061.3997 284.67135 1051.2812 284.1875 C 1039.4835 283.09843 1028.4794 293.70458 1028.625 305.40625 C 1028.1348 310.36045 1031.4098 314.6415 1031.0938 319.5625 C 1028.2392 318.2834 1026.4353 315.59895 1025.75 312.65625 C 1021.8764 301.64455 1026.8265 288.67878 1036.4375 282.46875 C 1047.2232 275.05721 1063.18 277.47662 1071.625 287.3125 C 1076.6526 292.74514 1078.5695 300.26865 1078.9062 307.53125 C 1079.1226 311.04155 1079.3573 316.27225 1083.4062 317.53125 C 1086.7968 317.74675 1087.4635 313.14305 1086.625 310.65625 C 1084.141 303.41065 1078.3923 297.32381 1077.7188 289.4375 C 1076.3358 277.38376 1085.7283 265.63824 1097.625 263.96875 C 1109.6902 261.80073 1122.2095 270.47625 1124.875 282.3125 C 1126.9013 289.74334 1124.4009 297.608 1119.9062 303.625 C 1115.6664 308.0881 1114.177 314.9759 1116.5625 320.75 C 1119.7017 329.2896 1130.4233 333.22265 1138.5938 329.59375 C 1147.7077 325.84505 1151.473 314.31795 1147.9062 305.46875 C 1143.9547 296.79695 1136.0062 289.8023 1134.9062 279.9375 C 1133.2266 268.80015 1142.6475 257.5753 1153.9375 257.5 z "
       transform="translate(5.0870321e-7,706.23915)"
       id="path2985-0-9"
       inkscape:export-filename="../oolang.png"
       inkscape:export-xdpi="90"
       inkscape:export-ydpi="90" />
    <text
       xml:space="preserve"
       style="font-size:20px;font-style:normal;font-weight:normal;text-align:center;line-height:125%;letter-spacing:0px;word-spacing:0px;text-anchor:middle;fill:#000000;fill-opacity:1;stroke:none;font-family:Sans"
       x="1100.3466"
       y="1157.079"
       id="text3833-79-0"
       sodipodi:linespacing="125%"><tspan
         sodipodi:role="line"
         x="1100.3466"
         y="1157.079"
         id="tspan3837-9-1">Oolang</tspan></text>
    <path
       style="color:#000000;fill:#eded60;fill-opacity:1;fill-rule:nonzero;stroke:#686835;stroke-width:4;stroke-miterlimit:4;stroke-opacity:1;stroke-dasharray:none;marker:none;visibility:visible;display:inline;overflow:visible;enable-background:accumulate"
       d="M 700 2 C 645.8761 2 602 45.876095 602 100 C 602 154.1239 645.8761 198 700 198 C 754.1239 198 798 154.1239 798 100 C 798 45.876095 754.1239 2 700 2 z M 727.84375 30.5 C 744.94384 30.20221 759.45718 37.98024 759.3125 49.4375 C 759.16782 60.89476 750.11925 72.80779 749.90625 73.8125 C 751.97193 77.44551 754.23996 83.28896 755.15625 86.5 C 756.18102 90.1089 755.97762 95.98837 756.21875 97.9375 C 757.13504 105.37634 765.90201 105.99815 763.125 109.96875 C 760.30379 113.99963 755.99784 104.12584 753.84375 104.375 C 751.69368 104.62015 756.50503 119.4375 752.28125 119.4375 C 748.05747 119.4375 751.84401 107.56991 748.90625 106.46875 C 745.96448 105.3676 744.67188 117.68167 740.90625 115.9375 C 737.14061 114.19334 745.56728 107.22033 744.28125 104.375 C 742.99523 101.52566 738.07816 109.78289 736.125 106.65625 C 734.17185 103.5296 741.03832 102.82149 741.34375 100.6875 C 741.64918 98.54948 738.42344 99.75068 739.34375 96.9375 C 740.27611 94.0962 741.82 97.12029 744.0625 96.3125 C 746.28089 95.51276 746.50264 93.24285 746.6875 91.40625 C 746.80006 90.285 746.98087 85.89958 746.6875 82.09375 C 741.50723 92.86822 731.56315 108.10758 725.125 113.75 C 715.53207 122.16942 685.50998 132.13104 684.875 133.03125 C 683.31168 135.23759 688.4878 144.13791 687.25 148 C 686.51456 150.29475 672.7495 157.45789 671.09375 159.9375 C 669.44201 162.41712 672.20999 168.21361 667.78125 167.28125 C 663.65794 166.40916 668.57365 160.49625 666.78125 159.375 C 663.84349 157.53839 661.24271 170.99057 658.15625 169.375 C 652.97599 166.67033 664.01933 157.61522 663.46875 155.59375 C 662.91817 153.57228 655.6656 156.80825 655.75 152.21875 C 655.81029 148.63798 665.07255 153.47884 665.96875 150.46875 C 666.65195 148.18204 662.32381 146.32143 665.40625 144.46875 C 668.43242 142.65225 668.05773 148.8125 669.34375 148.8125 C 670.62977 148.8125 678.8949 146.2283 679.71875 143.65625 C 680.31354 141.81161 678.10601 135.13809 677.25 134.53125 C 676.33372 133.87618 674.10857 134.59631 673.71875 135.0625 C 669.79638 139.77658 668.50976 139.02744 666.90625 140 C 665.35096 140.94844 652.34257 156.85894 638.84375 149.34375 C 633.34198 146.27738 638.59375 133.5 638.59375 133.5 C 638.59375 133.5 638.0625 132.20113 638.0625 129.34375 C 638.0625 126.48637 641.17387 126.62137 644.03125 123.125 C 647.36004 119.04991 646.07559 117.5863 655.71875 113.25 C 659.09858 111.7349 664.48882 109.83798 670.1875 107.8125 C 671.12791 103.5646 673.23381 96.87125 677.4375 95.75 C 682.42887 94.41977 685.57512 98.78064 686.9375 101.3125 C 691.0568 99.45178 694.67532 97.50941 697.0625 95.5 C 704.65406 89.11007 710.06993 80.35128 712.59375 76.875 C 714.91261 73.68406 717.70561 71.04738 720.40625 68.9375 C 724.11563 65.58661 724.20765 63.5316 722.09375 63.5625 C 719.97985 63.59384 718.4566 70.99036 715.125 68.40625 C 711.87377 65.88645 718.70211 64.33696 717.34375 63.03125 C 716.03361 61.76813 708.57864 69.41561 706.46875 66.125 C 704.75674 63.45489 713.65458 62.08271 713.15625 60.46875 C 712.66193 58.85479 704.97873 64.05466 704.34375 59.71875 C 703.74495 55.66215 713.78305 58.6693 713.71875 56 C 713.6866 54.63481 709.9971 56.52621 710.9375 52.96875 C 712.12306 48.48455 716.7611 55.36028 718.875 53.25 C 718.875 53.25 720.74899 49.84293 724.96875 49.71875 C 729.20459 49.59417 731.86337 58.00079 733.8125 58.78125 C 741.57687 55.30015 744.67968 53.79159 745.65625 49.40625 C 746.7132 44.66524 745.82709 38.2446 727.875 38.1875 C 709.67778 38.13003 680.83216 48.16396 677.0625 47.09375 C 674.63514 46.40573 683.27009 42.82824 694.40625 39.03125 C 703.82234 35.81901 710.73964 30.79776 727.84375 30.5 z "
       transform="translate(5.0870321e-7,706.23915)"
       id="path3773-1-1"
       inkscape:export-filename="../rooibos.png"
       inkscape:export-xdpi="90"
       inkscape:export-ydpi="90" />
    <text
       xml:space="preserve"
       style="font-size:20px;font-style:normal;font-weight:normal;text-align:center;line-height:125%;letter-spacing:0px;word-spacing:0px;text-anchor:middle;fill:#000000;fill-opacity:1;stroke:none;font-family:Sans"
       x="699.51172"
       y="670.95593"
       id="text3833-7-7-9"
       sodipodi:linespacing="125%"><tspan
         sodipodi:role="line"
         x="699.51172"
         y="670.95593"
         id="tspan3837-8-6-0">Rooibos</tspan></text>
    <text
       xml:space="preserve"
       style="font-size:20.00004387px;font-style:normal;font-weight:normal;text-align:center;line-height:125%;letter-spacing:0px;word-spacing:0px;text-anchor:middle;fill:#000000;fill-opacity:1;stroke:none;font-family:Sans"
       x="499.92566"
       y="645.95734"
       id="text3833-6-3"
       sodipodi:linespacing="125%"
       transform="scale(1.0000022,0.99999781)"><tspan
         sodipodi:role="line"
         id="tspan3835-15-9"
         x="499.92566"
         y="645.95734">Flavored</tspan><tspan
         sodipodi:role="line"
         x="499.92566"
         y="670.9574"
         id="tspan3837-4-2">Rooibos</tspan></text>
    <text
       xml:space="preserve"
       style="font-size:20px;font-style:normal;font-weight:normal;text-align:center;line-height:125%;letter-spacing:0px;word-spacing:0px;text-anchor:middle;fill:#000000;fill-opacity:1;stroke:none;font-family:Sans"
       x="899.92676"
       y="1157.079"
       id="text3833-7-6"
       sodipodi:linespacing="125%"><tspan
         sodipodi:role="line"
         id="tspan3835-1-2"
         x="899.92676"
         y="1157.079">Flavored</tspan><tspan
         sodipodi:role="line"
         x="899.92676"
         y="1182.079"
         id="tspan3837-8-9">Oolang</tspan></text>
    <path
       inkscape:connector-curvature="0"
       style="color:#000000;fill:#a7acc9;fill-opacity:1;fill-rule:nonzero;stroke:#212331;stroke-width:4;stroke-miterlimit:4;stroke-opacity:1;stroke-dasharray:none;marker:none;visibility:visible;display:inline;overflow:visible;enable-background:accumulate"
       d="m 900.00004,908.23914 c -54.12394,0 -98.00004,43.8761 -98.00004,97.99996 0,54.124 43.8761,98 98.00004,98 54.1239,0 98,-43.876 98,-98 0,-54.12386 -43.8761,-97.99996 -98,-97.99996 z m 53.9375,55.5 c 1.3798,-0.066 2.7709,0.0485 4.125,0.28125 10.2413,1.53953 17.6285,12.23661 15.5937,22.375 -1.6477,4.05983 2.0308,7.71206 1.9063,11.74996 -0.4206,4.06425 -3.4576,9.17555 -8.1563,8.78125 -4.2724,-1.4787 -5.4313,-6.8266 -5.0624,-10.90625 -0.1793,-3.9808 4.1266,-5.4242 6.3437,-7.90621 3.0715,-6.14715 -0.7595,-13.9479 -6.4063,-17.03125 -7.2905,-4.36822 -17.6855,-0.0428 -19.875,8.09375 -2.1483,7.56233 3.1979,14.17981 7.5938,19.71871 5.1407,6.04165 8.7855,13.59845 8.6875,21.68745 0.196,12.3035 -8.5802,23.8091 -20.375,27.0314 -11.9269,3.6983 -25.597,-1.8381 -31.9687,-12.4375 -6.7742,-10.2696 -5.5859,-24.6906 2.1562,-34.125 4.4728,-4.02325 4.1238,-11.3668 -0.062,-15.46881 -5.3115,-5.72368 -15.727,-3.39874 -18.7187,3.625 -2.821,5.74196 0.5316,12.01831 3.3124,17.12501 3.8553,6.5948 5.4098,15.8982 0.1563,22.1875 -4.0217,5.3729 -12.6419,5.6068 -17.3125,0.9375 -5.27554,-5.0209 -4.97444,-12.6866 -5.25004,-19.4375 -0.1506,-10.30635 -9.2253,-19.10995 -19.3438,-19.59376 -11.7977,-1.08907 -22.8018,9.51711 -22.6562,21.21876 -0.4902,4.9542 2.7848,9.2353 2.4688,14.1563 -2.8546,-1.2791 -4.6585,-3.9636 -5.3438,-6.9063 -3.8736,-11.0117 1.0765,-23.97745 10.6875,-30.18751 10.7857,-7.41154 26.7425,-4.99213 35.1875,4.84376 5.02764,5.4326 6.94454,12.95615 7.28124,20.21875 0.2164,3.5103 0.4511,8.741 4.5,10 3.3906,0.2155 4.0573,-4.3882 3.2188,-6.875 -2.484,-7.2456 -8.2327,-13.3324 -8.9062,-21.21875 -1.383,-12.05375 8.0095,-23.79927 19.9062,-25.46876 12.0652,-2.16802 24.5845,6.5075 27.25,18.34375 2.0263,7.43081 -0.4741,15.29556 -4.9688,21.31256 -4.2398,4.4631 -5.7292,11.3509 -3.3437,17.125 3.1392,8.5396 13.8608,12.4726 22.0313,8.8437 9.1139,-3.7487 12.8792,-15.2758 9.3124,-24.125 -3.9515,-8.6718 -11.9,-15.66645 -13,-25.53126 -1.6796,-11.13735 7.7413,-22.3622 19.0313,-22.4375 z"
       id="path2985-0-9-1"
       inkscape:export-filename="../flavored_oolang.png"
       inkscape:export-xdpi="90"
       inkscape:export-ydpi="90" />
    <path
       style="color:#000000;fill:#7dd178;fill-opacity:1;fill-rule:nonzero;stroke:#214a1f;stroke-width:3.92156816;stroke-linecap:butt;stroke-linejoin:miter;stroke-miterlimit:4;stroke-opacity:1;stroke-dasharray:none;stroke-dashoffset:0;marker:none;visibility:visible;display:inline;overflow:visible;enable-background:accumulate"
       d="M 500 201.96875 C 445.85444 201.96875 401.96875 245.85444 401.96875 300 C 401.96875 354.14556 445.85444 398.03125 500 398.03125 C 554.14556 398.03125 598.03125 354.14556 598.03125 300 C 598.03125 245.85444 554.14556 201.96875 500 201.96875 z M 426.125 251.59375 C 427.7259 252.18435 446.04793 252.8736 469.78125 256.875 L 467 273.40625 L 472.375 257.34375 C 481.49643 258.95355 491.34831 261.0519 501.28125 263.8125 L 495.28125 285.9375 L 504.71875 264.78125 C 507.54169 265.60575 510.34706 266.4972 513.15625 267.4375 C 519.57481 269.5781 525.69026 271.8806 531.375 274.3125 L 518.46875 298.15625 L 535.25 276 C 543.6524 279.8159 551.00931 283.9698 557 288.375 L 537.6875 312.71875 L 560.75 291.28125 C 566.36703 296.01345 570.38423 301.02445 572.40625 306.28125 L 551.3125 323.875 L 573.5625 310.375 C 574.33646 314.6715 573.75423 319.09685 571.625 323.65625 C 566.53321 334.56095 554.89603 342.97095 539.53125 346.53125 L 540.6875 329 L 536.59375 347.15625 C 534.31579 347.58135 531.97963 347.9155 529.5625 348.125 C 524.32473 348.5795 518.79107 348.50465 513.03125 347.84375 L 520.4375 320.9375 L 508.5625 347.21875 C 499.80192 345.77725 490.60748 342.98055 481.25 338.59375 L 496.46875 310.5 L 476.84375 336.34375 C 467.81737 331.34585 460.34727 324.37625 454.1875 316.53125 L 470.90625 296.1875 L 451.8125 313.34375 C 447.44285 307.30295 443.77371 300.88765 440.71875 294.53125 L 452.59375 284.78125 L 439.75 292.4375 C 430.29414 271.96768 427.00789 252.93805 426.125 251.59375 z M 448.65625 275.125 C 496.51852 300.5134 503.88784 305.22865 543.96875 324.15625 C 508.40307 301.86085 493.46039 292.21932 448.65625 275.125 z "
       transform="translate(5.0870321e-7,706.23915)"
       id="path4111"
       inkscape:export-filename="../flavored_green.png"
       inkscape:export-xdpi="90"
       inkscape:export-ydpi="90" />
    <path
       style="color:#000000;fill:#43923f;fill-opacity:1;fill-rule:nonzero;stroke:#214a1f;stroke-width:3.92156816;stroke-linecap:butt;stroke-linejoin:miter;stroke-miterlimit:4;stroke-opacity:1;stroke-dasharray:none;stroke-dashoffset:0;marker:none;visibility:visible;display:inline;overflow:visible;enable-background:accumulate"
       d="M 700 201.96875 C 645.85444 201.96875 601.96875 245.85444 601.96875 300 C 601.96875 354.14556 645.85444 398.03125 700 398.03125 C 754.14556 398.03125 798.03125 354.14556 798.03125 300 C 798.03125 245.85444 754.14556 201.96875 700 201.96875 z M 626.125 251.59375 C 627.7259 252.18433 646.04793 252.87364 669.78125 256.875 L 667 273.40625 L 672.375 257.34375 C 681.49643 258.95352 691.34831 261.05185 701.28125 263.8125 L 695.28125 285.9375 L 704.71875 264.78125 C 707.54169 265.60578 710.34706 266.4972 713.15625 267.4375 C 719.57481 269.5781 725.69026 271.88054 731.375 274.3125 L 718.46875 298.15625 L 735.25 276 C 743.6524 279.8159 751.00931 283.96988 757 288.375 L 737.6875 312.71875 L 760.75 291.28125 C 766.36703 296.01349 770.38423 301.02445 772.40625 306.28125 L 751.3125 323.875 L 773.5625 310.375 C 774.33646 314.6715 773.75423 319.09685 771.625 323.65625 C 766.53321 334.56095 754.89603 342.97095 739.53125 346.53125 L 740.6875 329 L 736.59375 347.15625 C 734.31579 347.58135 731.97963 347.9155 729.5625 348.125 C 724.32473 348.5795 718.79107 348.50465 713.03125 347.84375 L 720.4375 320.9375 L 708.5625 347.21875 C 699.80192 345.77725 690.60748 342.98055 681.25 338.59375 L 696.46875 310.5 L 676.84375 336.34375 C 667.81737 331.34585 660.34727 324.37625 654.1875 316.53125 L 670.90625 296.1875 L 651.8125 313.34375 C 647.44285 307.30295 643.77371 300.88765 640.71875 294.53125 L 652.59375 284.78125 L 639.75 292.4375 C 630.29414 271.96762 627.00789 252.9381 626.125 251.59375 z M 648.65625 275.125 C 696.51852 300.51339 703.88784 305.22865 743.96875 324.15625 C 708.40307 301.86085 693.46039 292.21931 648.65625 275.125 z "
       transform="translate(5.0870321e-7,706.23915)"
       id="path4111-1"
       inkscape:export-filename="../green.png"
       inkscape:export-xdpi="90"
       inkscape:export-ydpi="90" />
  </g>
</svg>
